<mxfile host="Electron" modified="2024-04-04T23:46:31.061Z" agent="Mozilla/5.0 (Windows NT 10.0; Win64; x64) AppleWebKit/537.36 (KHTML, like Gecko) draw.io/21.1.2 Chrome/106.0.5249.199 Electron/21.4.3 Safari/537.36" etag="UnSf5cMK5zqp-oaeg-GG" version="21.1.2" type="device">
  <diagram name="Page-1" id="i_rtYaCStcTsKyNUGpfy">
    <mxGraphModel dx="2018" dy="670" grid="1" gridSize="10" guides="1" tooltips="1" connect="1" arrows="0" fold="1" page="1" pageScale="1" pageWidth="850" pageHeight="1100" math="0" shadow="0">
      <root>
        <mxCell id="0" />
        <mxCell id="1" parent="0" />
        <mxCell id="WqvjjpdOr-V9ovbXtOMA-28" value="" style="group" parent="1" vertex="1" connectable="0">
          <mxGeometry x="-110" y="400" width="310" height="314.48" as="geometry" />
        </mxCell>
        <mxCell id="WqvjjpdOr-V9ovbXtOMA-1" value="" style="sketch=0;html=1;dashed=0;whitespace=wrap;fillColor=#FFFFFF;strokeColor=#7a060c;points=[[0.005,0.63,0],[0.1,0.2,0],[0.9,0.2,0],[0.5,0,0],[0.995,0.63,0],[0.72,0.99,0],[0.5,1,0],[0.28,0.99,0]];verticalLabelPosition=bottom;align=center;verticalAlign=top;shape=mxgraph.kubernetes.icon;prIcon=sched;movable=1;resizable=1;rotatable=1;deletable=1;editable=1;locked=0;connectable=1;" parent="WqvjjpdOr-V9ovbXtOMA-28" vertex="1">
          <mxGeometry width="310" height="295.08" as="geometry" />
        </mxCell>
        <mxCell id="WqvjjpdOr-V9ovbXtOMA-3" value="" style="ellipse;whiteSpace=wrap;html=1;fillColor=#FFFFFF;fillStyle=auto;gradientColor=none;strokeColor=none;movable=1;resizable=1;rotatable=1;deletable=1;editable=1;locked=0;connectable=1;" parent="WqvjjpdOr-V9ovbXtOMA-28" vertex="1">
          <mxGeometry x="40" y="30" width="230.01" height="240" as="geometry" />
        </mxCell>
        <mxCell id="j3mudXQNPEdRg0Ww-Zf8-2" value="" style="shape=image;verticalLabelPosition=bottom;labelBackgroundColor=default;verticalAlign=top;aspect=fixed;imageAspect=0;image=data:image/png,iVBORw0KGgoAAAANSUhEUgAAAtkAAANECAIAAADqoKTgAAAAAXNSR0IArs4c6QAAAARnQU1BAACxjwv8YQUAAAAJcEhZcwAAFiUAABYlAUlSJPAAAP+lSURBVHhe7P3fs31fVh2GpRIDxtBGqIQIf4BUZcnlPDj2ayqVSBZdpkrGPEZVSUSZtikRZKu7SfLWEk5i8ZIqSZTwQ9zdKlqWqizeJL0IGgSCBgmBEBLQ9PfbDU2LXw3qWJBETpR59lh39LhzrrnWunvdH+feM2eNmjXWXGPOu/vL594z2Gedff5H/6qioqKioqKi4uWivEhFRUVFRUXFS0Z5kYqKioqKioqXjPIiFRUVFRUVFS8Z5UUqKioqKioqXjLKi1RUVFRUVFS8ZJQXqaioqKioqHjJKC9SUVFRUVFR8ZJRXqSioqKioqLiJaO8SEVFRUVFRcVLRnmRioqKioqKipeM8iIVFW8q/n8SWMYMgmCR2S1ZrKioqHiiKC9SUfFGgtaBoUUnMIJgkdktWayoqKh4oigvUlHxRoLWgaFFJzCCYJHZLVm0UF5RUVHxWFFepKLi1YezDoy4RYERBIvMbsmihXFdVlRUVDxKlBepqHjFAWfgMmMgMIJgkdktWbQwHosVFRUVm1FepKLiNYVzA93MGAiMIFhkdksWLYxrEbmioqJiM8qLVFS8mjicwCXAs8wYCIwgWGR2SxYtjGsRuaKiomIzyotUVLyaOJzAJcBjfvTgcIQrIldUVFRsRnmRiorrDffCz8i2/r+PHRhrPwLBpWbEsfPFZUVFRcV6lBepqLjewKs7M6O71ezDYwd+BAI/CIQZcex8cVlRUVGxHuVFKiquK/CK3s0MLJtZSOJ/OBWtOQn96cyIY8cXKyoqKlaivEhFxXWFvqK7rNHcQRLNWTw8Wn8e9qPdhSEu1xSKFRUVFStRXqSi4rpCX9Fd1mjWoBfNVpyNNiUPd2GI46J8saKiomIlyotUVFxX6Cu6yxbNDoRoPuKxo02/H7gSXhjCFZErKioqVqK8SEXFdUV8RWduXiBEMw5PE+1nhOCFIYxjqbmioqJiJcqLVFRcRfDF272iazQXEKK5hieL9mPuBy7puORLcKm5oqKiYiXKi1RUvHAcL+KX4FKzRXvxvx/NJkj8y8eONlei/ez7oZcar99yRUVFxTjKi1RUvFjwBRvhisjtBT9Ecwd30exDL/4/eTRFHm26RPvx9wOXymt2uaKiomIc5UUqKl4s+IKN0GJ7kQ/RHMERzS9INIvxGNEmSrSfKtGu6S5w5d0MUlFRUdGN8iIVFS8W+lJtwaJFe3m/H80CHNEMgkQzESH+33k0RRJtrkT72RLtyu4C1x8zSEVFRUU3yotUVLxA8EUaGXHsXJbthT1Ee/0/ormDu2j2IUQzHcNo0l606RLtx99Fu7K74P8Ql3VZUVFR4aK8SEXFs4a+KjMjwNurukR72T+iOQKJ5hqOaObifvy/8miKXrSJR7SfJNGu5oh2lRLd/4FcVlRUVLgoL1JR8ayhr8rMjPZiLtFe8I9oRkCimYWHu5AYred+tOlHtB95F+2ajmjXehf43+L+B3JZUVFR4aK8SEXFs4a+KjNbtJfx+9Fe6o9oFuCI5g6OaK5BopmLu/jdWTSdRBt0F+0nHdGu4Ih2ZUe0K74L/k/j/0AuKyoqKlyUF6moeNbQV2Xm9gIeor3OH9Fe/x9iRJrXWIvWc0SbJdF+3hHtOo5oF3dEu+i70P+BJJYrKioqXJQXqah41tBX5ctL9MNPqjZHcERzCkc0H3FE8xdH/E4etmsDcRmn4/ifVVFRUXE+yotUVDxT4GXbZYtmPe6iuY8jYD4QzX0c0dzHEc193AX8B6I5jjzsR1yurKKiouJFo7xIRcUzBf0Hc3MfErAgiOZBjmge5IjmQY5oBuSIZkCOaF7jiH+RhP2Iy2VVVFRUvHSUF6moeKZwXsSiGRAJuBCL5kGOGFiQZj1y8/HfJ2EtuBKLf/npz/zOD/3wywJXUlFRcZtRXqSi4pkCr/3MzX1INBtyRLMhRzgv4lyIxdiC/D97QSNi8e4f/nd/8St//wvid3/w77ZLqaiouMkoL1JR8UyhXqS5D4nmQY5oHuQINSJwIQh1IRZTC/IFCfsRxxVd4rNf/x85Z/DM+MJf+avtUo74rb/7I3//O/+rtqioqLiNKC9SUfFUYbYDzgMBjmIzIBJwIRZqQRDOiMCFWJxwIRY2ENdj8Wvf8qecM3hm/MrX//H/4d3PtKs54sf+nX/vv/6K3/vjH/loW1dUVNxAlBepqHiqgO1oC/EizX1INBtyxMCLNA9yRDQizXoc0XyHxD8/wsS8pN/5wR9+8XdnnBH5qf/wP/747/mf/nfv+Zo/86Vf+fl33m3VioqKtx7lRSoqniouTuS+F7Fo7kOieZAjBndE1IJYqAux6FoQ+A8N+3Htaq7vmMjnvve/NSNi+Jv/5u83L/Ldf+Tr20ZFRcVbj/IiFRVPFTAfbbF3RwRepOtCLNSINNNxxG/fDxveLuVf/avPvvcbnTN4Znzhox9rl3LEb/3dH/mx/9m/Dy9iMC9i+Kvf/L62XVFR8aajvEhFxeMHLMhhRUZepHmQI5wRcS6ka0RgQSycC2nW44jfugub1q7jSo6JvPPpdjVHqBEx/N//jd8DO1IHRyoqbiHKi1RUPH7AghxWpHkRI82ASKgLQdCFWKwYEXUhzX2I/7D4/BGmsR+EK7naYyKK//orfi+8iOHz795zLRUVFW8vyotUVDx+wIIcVqSR5j4kukZkfEdk7EKa+zgCFsTiN4+gEbG42mMiChxfBf5SHRypqHjrUV6kouIxg+YDmdEMyF2cMCLqRTIj0gzInQWx+I3f+A0be1zaJa7waSI/9u/8e86IGHB8lbgcHLm7w1RRUfH2orxIRcXjhBmOmC2a+zgCFgTRPMgRi0aEd0S6FoTmg/Hrv/7rNuRycUdc59NEnAsh1Iv8F1/6lT/+4Y+0noqKijcX5UUqKh4n6D80WzQbckSzIctGhC7EGRF4kcyImAVB2K79rMvFvZJjIgoeXyXqiSMVFW81yotUVDxO0H9obh7kCLgQRLMhRzgvQiMCL+KMCG+KOCOiLuTX7sJ+0OXKjnj33/6fO2fwzPjdj/9Qu5QjusdEFHp8FagnjlRUvNUoL1JR8TjhXIhF8yBHwIIgmgc5whkRd1PEGRHeEYEX6d4OgQv51V/9VRt7XNclrvxpIl38DTm++l/ckXriSEXFm4zyIhUVu0H/odmi2ZAjmg05otmQDSPC2yFqRGBBLP7ZP/tnNuFyZUdc49NE8mMihH6URlFPHKmoeHtRXqSiYjfoPzQ3D3IXzYYs3BS5vDdz50W6RoR3ROhCaETMhVjYrv2gy5W9wmMiCrUgvDViqCeOVFS8sSgvUlFxProuxKIZEAlnRLouhHdEaEQux0PCARHeDoEFURfyuc997ld+5VdoRCyu7WkiP/ef/R+c4RggHl8FLgdHjv/aFRUVbyPKi1RUnA/6D83NfUg4I2LR9SLOiLg7IjAi8CLxdoi5EBgRG3i5siNey9NEMvD4qt4UAeqJIxUVbynKi1RUnI8VL7JuROBFLodE7m6KOCOS3RGBC7GwCZfLOuLX3vdtzhk8Mx70NJEu/sZ7voYuJNqReuJIRcWbifIiFRVnoutCLJoBkeh6ERqR452Z9IzI5XhI74AIXIgakc9+9rNWtx90uTgcE3npD/G686o/9Q3f5KzGFDi+ChcSvYhV6uBIRcXbiPIiFRUPDtgOEM3NfRwBC4KgBWGoF1EjondEohG5vCvTe1/GjMgv//Iv2w+6XNwR1/Y0kZ/71m93PmMRzn841BNHKireRpQXqah4cFycSLgjYtFsyBFwIRaLRoQ3RcyIwIuYC4ERscAdkeNtGf++DIyITTsu7RLXeExk9jSRDNnxVaKeOFJR8QaivEhFxYMDzgMEuRkQCTUiFs2GDM+rwotcTogkZ0SOt2U6RsTaj+u6xOv60pkpvic8fbVzcKSeOFJR8cqjvEhFxYPjsCJzL9JsyBGZEYEXoRHhuzPRiLg7IuZCYESsaD/ruK7X/TSRLvTIyAB1cKSi4lVHeZGKigfHYUW++O5Mcx8Sxz2RkRcxI8KbIjQi8CLHKZHLk1XhQjIjYi7E4pd+6ZdoRCxe9dNEunBPX83OsdYTRyoqXnWUF6moeHDAgoA09yExNSK8KRLviFgcp0R+S2+HZHdEzIjYHFySxWt/mkgGuA3nP6IdqYMjFRWvN8qLVFQsBcwH4rAiLZoBkXBeJDMi9CIwIvAi+u6MGRELcyHxjoi5kM985jPW2C7oOp8mcva8qsN/+eVfpbdDogsh6uBIRcUrjfIiFRVLYbajMfEizX1IOCNiQS9CIwIvQiMCL+KMyOCtGRgRq9sPwvW8jaeJZPier/i9UxdC1MGRiorXGOVFKiomYZ6DGXH4kHtGBBYEoRbEIt4RMReyaUQ+/elP2w9qV3MNTxN57GMiir/ynt/nDEc0Jaz8pXriSEXFK4zyIhUVk4ALQUZMjYhFcyL3z6se78z0j4nQi1xOqx6PEhkYERvVLuXtHhMh3PHVKergSEXFq4vyIhUVaagLybxI8yBHNBtyRDQi8CJ6U4R3RAY3RaIRscZ2HW/uaSIZBjdCyLVSB0cqKl5XlBepqOhEdCHMFs2GHNFsyBHNhhwxNSIWYyOCOyLmQizgQt59911zJ/aD7Eos3t7TRDL8X778q+gzFNGjEJ9/5912TRUVFVcf5UUqKjpB5xFz8yB3ARdi0TzIEfGmyPHmTOfdmQfdEXnnnXfsB9llIN7e00Qy/N/Eizj/EW+KAJeDI8f/ySoqKq4/yotUVHSi60IQzYPcxdSI0IvoTREzIvAiZkQszIhYmBGxMCOCmyLOiLz77rs253JxR3z2vd/onMEz4wsf/Vi7lCMe/ZgI8X3v+Zo/+6//m+8PbmNwUwSogyMVFa8lyotUVHTCPEfMzX1InDYi5kKymyI8r+qMiDVeruyIq3iayP0P8T7W00QizIj8n770K7/jsBfduyDZrRGr1MGRiopXEeVFKio6se5Fmgc5IjMi8CLurZns3Rn3wRkYESva/MuVXefTRJ7mmIjhu778q8yIAB+8cxjqNsgz1BNHKiquP8qLVFTci64LsWjuQ2J6U8SMCG+KXA6JnDomYkbknXfeseGXizvido6J/MUv/z00ImpHVkCbUk8cqai4/igvUlFxL+g/NDf3IXHCiFxOiIgRsaAROY6I3LsjwrdmzIjYnMuVHfHmnyZC4JiI8yKGeHDEId4suRwcOf5PWVFRcZ1RXqSi4l44F4JoBuQIuBAELQiia0TgRbJ3Z3hGBHdELPStGTMi946J3MbTRICuETHowRGiu2TRyI9/+CPtiisqKq4vyotUVNwLcx6aLZoHOaJ5kCP0dghCvUjXiPCmCN+d4Vsz+OCMBc+rmhHxx0Ru42kiBj0mEjF4p8aZEkU9caSi4mqjvEjFrQcMR1sEL9I8yBHNgxwBI2LhXMiDjAjenYER6b47Y/OPi7rE1R0T+dZvdwbisRCPiUR8QEyGuwuiRcV318GRioprjfIiFbceFyfS8yIWzYMc0TzIEXAhiIEXuRwSCedV4UXMiOCmiDMi+u6MzcElWVzj00Se5kO82TGRCLMXNBzqPKILYaWeOFJRcZ1RXqTi1gO2oy0WvEjzIEdkRoReJDsm0r0poh+csS5cj8VVHBN5xqeJ/B+D7egCB0ec25iinjhSUXGFUV6k4tYDtqMt7pYWzYPcRXMiwYsMjEi8KaJGRG+K/PIRdUzkzx/HRBa9iCE+cQQYV+qJIxUV1xblRSpuPeA82qJ3RwTRNSLqRcyIwIssGhF8iPdyWvW4I8J3Zz71qU/Z8HY1N/k0kXUvYtCDIw7ZzZI6OFJRcW1RXqTi1gPmoy2OZXMfElMjwpsiZkTgRcyIWJgRsbgcEpEvneFnZ/S8Kt+dsTntUm71aSIP8iIGsxfj92jibj1xpKLiqqK8SMWth3qRRzQiuCNi4W6K8I4IboqYEeEdkWs8JvISTxN5qBf5jvxNGdajoJ44UlFxPVFepOLWY8WLNA9yhDMilzdmkvOq0Yi486owIrwjYhWbjyu55aeJPNSLGD6Y2w5nSgir1MGRioorifIiFbcVsB00HxYXJ3JXbO7jCNwOQagLQagXUSOiXmR8XpXvzvSfJvLS3373ux//oXYpRzzn00ROeBFDPDgS/YdDHRypqLiSKC9ScVtB24GlxcWJHNE8yBHNgxzxWEbEfYJXjcinPvUpG9Uu6OafJnLOixj0q2q6N0IiryeOVFRcQ5QXqbitMM/BjDh8yCWaDTmi2ZAjnBehEaEXuRwSkXdnLMyIwIuYEbEwI0IvYkbE4tqPibiniTzvl86c9iLx4MjYkQCf/IEfbP87KyoqXijKi1TcVpjnYEY4F4JQF4JYMSKDmyLu3RkcEzEvcsvHRPA0kYjTXsSgTxyJtkPB3e/8A3+4Do5UVLxslBepuK0450W6RoReZMWI4LMzMCJ8d8aMSD1NJGLHixhOPnFE/klUVFQ8c5QXqbiVUBdCL7JiRCy6XqR7TES9iBoRvDvDD/HSi9gcXInFbT5NJGLTixjeH2xHd6nFeuJIRcULRnmRiluJRS+ybkT0pogZkcFNEXdklSdFrAWXYfFr7/s25wyeGS/1NJGIfS+CgyNT/+Hwye//ePtfXlFR8bxRXqTiVsJ5EUQzIBJdL0Ijcnlj5iFGpPs0EdwRsaINPy7tOCby0h/idedVf+obvskZiMeCe5pIxL4XMQyeOALEYh0cqah4qSgvUnErYc5Ds0VzHxJqRHA7BJHdEaEXWbkjQiOCD/HSiFjc8tNEIh7Fixg+sOxCWPlL9cSRioqXiPIiFW8/6D80N/chsWhEzIUsGpHueVV8iNdGXa7siGs8JvKMTxOJeCwvYlCf4SxItqwnjlRUPH+UF6l4y9F1IRbNfRwBC4KAEbFoNuT+uzO8IwIv0j2vCi/SPa9KI2Jdl4s74ma/dGaAR/Qi3YMjBq3E3XriSEXFM0d5kYq3GXQeMVs0G3JEsyHD86pmROBF1IgMboroMRH37oxVbL5diUU9TaSLR/QiBj044pDV6+BIRcUzR3mRircZdB4xNw9yF82JzLyIGhG9KTI9JuLenbHhdhmIeppIF4/rRQwnvjnvcnDk+AdTUVHxDFFepOJtRteFWDQDIjE1ItGL4KbI8ebMP18/JuK/dKaeJpLg0b2IwexF14UMUAdHKiqeLcqLVLzNoP/QbNEMiMRDjUi8KWJGxIJGRI+J6B2Re8dErvBpIk9zXtXwICNieAovglsjXf+BYtyySh0cqah4nigvUvE2g/6DuVkPiXN3RMxSqBEZvDuj51X9MZF6mkiOp/AiNjMeHOn6D13WwZGKiueJ8iIVby2iC7Fs0QyIhPMiXSNCLwIj4u6IrL87Y/MvF3dEHRMZ44m8iGX9qpqxESGvJ45UVDxDlBepeFMB2wGiubkPCWdELJwXcUaEN0Uuh0TEi6gRyT7Ea3MuF3dEHROZ4um8iEF9Rhdxtw6OVFQ8dZQXqXhTcXEi4Y6IRTMgdxYEoRYEEY2I3hQ53pxZfXfmM5/5TOeYSD1NZAFP6kU+eNgLGA7aDuc/4m4dHKmoeNIoL1LxpgLOA4TLZkOOaDbkCOdFohG5HBKZGRHeETEjEu+IWNF+xHFp9TSRVTypFzGcfOLIO++2/2oVFRWPHeVFKt5UwHyAIDcPckTzIEfAiFg0J3J4kcshkbvzqrwjQi+yfkekjonwhf8EntqLGAZPHAFi8bvriSMVFU8W5UUq3lQcVmT1jggCLsQZEd4RmRqR7LyqPyby3m90zuCZ8YWPfqxdyhFXeEyEeAYvYjB7sehCWKmDIxUVTxTlRSreVMCCkDQbckSzIbPzqrwjAi/SPa/q3p3pnle1LlySxVU8TeT+h3if9Gkim2biebyIflVN15R0UQdHKiqeIsqLVLypgAUhaTbkiKkR2b8pQi9iFZuPS7rGp4k88TGRV+FFDB8QO6LQitutJ45UVDxFlBepeAsB/wECDtJsyBEDL6JGBF6ERgReJDMi7qYIPztjw3E9Fjd1TAQv+a/FixgGB0eiRwEuB0cqKioeNcqLVLyFgP8AYTQPcsTAiMSbImpE8O7M+I6IO69675jIjT1N5NV5EcP7c9sBxN3LwZG7f3IVFRX7UV6k4hWHGQ5kEPJmQCTWjQi8CG6H6LszZkQszIhY8I6IhTuvai24EosbfJrIa/QiuDUyvikS7cgnv//j7b9pRUXFdpQXqXjFAQsC/4FKsx4S0zsi5kKmRsTdFMmeJmLWxObjSm7qaSL80pnX6EUMXTsCoBi36okjFRWPGOVFKl5xOC9iuRkQCXoRWBAEjQjviMCL8K2ZgRHBTRF6ket9msjHf6hdyhE/963f7gzEY0GfJvJKvYgB51jVbUT/4Sp1cKSi4rGivEjFKw5aEERzHxI0IpkXcXdEeFPkckhEvEg0Inh3Rm+K2ChclcU1Pk3kaT7E654m8nq9iEHdxtiIkNcTRyoqHiXKi1S84jD/gYxoBuQu1IhYNBty/6YI74jAi6gRMRdicZwSuRwTiXdE9IMz1oVLsriKYyIv9DSRV+1F4js1Y0cC1BNHKir2o7xIxasMcx6aEc2D3EXXi6gRedAxEXde1QLvztzyMZH4NJFX7UVMY3bE7AUMB22H8x9ut544UlGxH+VFKl5lmPPQjGge5AhnRCycFzEjQi9yvDnzxZsig/OqZjvwIV6+O1NfOqMv8+CbZmKzvYuVmdDEgyNEVq+DIxUVm1FepOKVhXmOmC2aBzmia0ToQqIRMRcyNiK/Gp6vyndnbM7lso54cSPyzE8T0Zdw5ZtmYrO9i5WZ1OCJI4CzHUCs1xNHKip2orxIxSsL+g/NzYMc0TUi0Ytkx0SymyLOiODdGeu6XNMRN/g0EfcSTr5pJjbbu1iZSQ2/qkY9B3h0IazUE0cqKk5HeZGKVxZjL7JuRPSmiFkKeJHpTREakXfDl844Z/D88MdEvuGbnIF4LPBpIoC+zINvmonN9i5WZqpGv6om+g9DLNbBkYqK01FepOIVRNd/WDQDIjHwIpkR4U2R8TGR47jqF8+r+mMiL/3tdy/yNBFAX8LBN83EZnsXKzOdJjs4okUnqIMjFRXnorxIxSsI+g/NzX1IDIyI8yIwIha8I2IxvSNiwfOq946JvLQReamniQD6Eg6+aSY227tYmRk16jac7ejaFEM9caSi4kSUF6l4BbHuRZoHOcIZEXMPNCK8KUIjgpsiZkQszIhYuA/xfuYInFe1xstlHXGNTxN5lmMihL6Eg2+aic32LlZmRs13HPbCbMfAiJCT1BNHKioeGuVFKq40uv5DczMgR0zviMCFdI0IXEi8KeI+xIs7IvFpIs4ZPD+e+WkiEfoSDr5pJjbbu1iZ2dWc+Oa8OjhSUfHQKC9ScaUxcCHIzYYc4byIMyL0IjQi0YsM3p3BTREYkXqaSIS+hINvmonN9i5WZmaawTnWbtFwOThy/EOtqKhYifIiFVcaXf9h0dyHhDMiFl0vMjYiFmpE4od44UVs+OXijrjNp4lE6Es4+KaZ2GzvYmXmQGP2outCBqgnjlRUrEd5kYorDfoPzRbNgNzFohFx785YXA6J5F860zUiZl8uV3bEr73v25wzeGa81NNEIvQlHHzTTGy2d7Eyc6DhE0fgM9SIgMeKoZ44UlGxGOVFKq406D+QEc2ASDgvkhkReBEakezdGXdeFUYEH+K1ynFdl7gcE3nP1zpz8Mxw51Wf7WkiEfoSDr5pJjbbu1iZOdac+Oa8OjhSUbEY5UUqrjTMeWi2aO5DwhkRC+dFzIjwpsjx5szkmIg7rwoj8m780pmbeZrIX8iPiRD6Eg6+aSY227tYmTnVfODOZKgpcf7DLf9SPXGkomIhyotUXFfAdoBobu5DomtE6EKiERnfEemeV+VnZ2z45eKOuMZjIs/4NJEIfQkH3zQTm+1drMycavgRX3UbRFavJ45UVEyjvEjFdcXFiQzviMCCIGhBGPQicCEwIvQiMCLRi5gRwU0RGhH9EO+9YyJX8DSRdil38VLHRAh9CQffNBOb7V2szJxqTKBPHFk0JbasJ45UVIyjvEjFdQXMBwiXzYYc0WzIzIjwjogaEXiR6U0RfXfGHxMJ5uCZ8WxPE5keEyH0JRx85YV/gM32LlZmTjUQ8OCIeg5wrQCo1MGRiopxlBepuK6A+QBBbh7kiGZDjuh6kePNmXZTxBmR7h0Rd0zEnVe9tqeJOCPyIk8TidCXcPCVF/4BNtu7WJk51VAw/ea8iHriSEXFIMqLVFxXHFZkckfEAkbEotmQ5N0ZMyIW5+6IXJsRuZKniUToSzj4ygv/AJvtXazMnGooMGL2AnbEeRFdgrNSB0cqKrIoL1JxXQELQtJsyBHNhoTzqs6IZDdFzIjAi5gRsaAR0Q/x6nlV68IlWVzD00TapdzFE51XNTzIiBj0JRx8+qI+xmZ7FyszpxoV6BNHSAi3JOrgSEVFN8qLVFxXwIKQNBtyxNSI8KYIjYh6EXMh8aYI3p357BH67oxZE1yPxU09TeShRsSgr9DgKy/8A2y2d7Eyc6pxAr5TMzAi5CB1cKSiohvlRSquIuA/QMBBmg05wnmRzIjAizgjMn13Rj87c8vHRE74AG0BPzFEsdnexcrMqSYKYEfgNohYUVwOjlRUVNyP8iIVLx+wHY5bbh7kCGdELDIvokZEvYgZEQs1Iu5DvJ+5+S+dsdfaEz5AW8BPDFFstnexMnOqiQKrvP8wH4TaDixd0VAHRyoqXJQXqXjJoO0AIW8G5C4eZETgRehCLPDuzHFK5IFfOnNjTxOxV9aV12wHbQE/MUSx2d7FysyppitwB0fgNqL/cKiDIxUVGuVFKl4yYEHgP0iaAZFwXiQzIrwpAiMCLxLfnXHnVUfHRII5eGY829NEcEzEXmtP+ABtAT8xRLHZ3sXKzKkmE7gnjqgRySqXgyPvvNv+71pRcfNRXqTiZYLmA5mkuY+7UBcCC6JehEaEN0WON2fmx0TcTRF+dsaGXy7uiBt8moi91p7wAdoCfmKIYrO9i5WZU00msDrfqXGeQ+Eq9cSRigpGeZGKlwmaD2REMyAS0YtYxDsixzsz7Y7IihHBZ2dGx0Re+tvvvvDRj7VLOeJJj4noa+rKa7aDtoCfGKLYbO9iZeZUkwmsbqDbcKZE4ep1cKSiAlFepOJlwpyHZkQzIHehRsSiORHxIjAizovAiEQvokYkvjtjXcd1XeIqniZy//9jfrqniXxIPsSL11QuF6Et4CeGKDbbu1iZOdVkAtTjwRF1Hs6FEHVwpKLCorxIxcuEOQ/NiOZBjnBGxMIZke5NEbMU8CLZTZHuh3j9MZFre5rIUx4T0ddX49PX4wg3wVVOYLO9i5WZU00mYP2Dh72AI8nMh6v/uXriSEVFeZGKlwpzHpoRzYYcMfAiakTgRcbvzpgLscjuiNz4l87o66vx6etxhJvgKiew2d7FysypJhNoXT/iS8MB7lwIK/XEkYqK8iIVLxPmPDRbNA9yxMCIjG+KHG/OXD7Eu3hH5NrOqz7n00Ti66jx6etxhJvgKiew2d7FysypJhNo3bieY43+I8I0l4Mjx+9CRcVtRnmRiucO+g/NzYMcMTUi5kJoRMyF6E2R3z7CvIgZEQszIhb84IzeFIERsa7LNR1xa08T6b6OZi+3A7gJrnICm+1drMycajKBq/PgCEDDwawV4pPf//H2f/WKituL8iIVzx3RizQPcsTUiHTviMCIdN+d0Q/OWOi7M2ZNLhd0xA0+TQTQ11Hj09fjCDfBVU5gs72LlZlTTSaIdT5xBJ7D2Q63BOqJIxW3HOVFKp4jov+wbNEMiITzIpkR4U2RgRF5Xe/OuPOqP/et3+4MxGPBfemM49nL7QBx2okhis32LlZmTjWZoFvPng3f5SB1cKTiZqO8SMVzBP2H5uY+JJwRsci8CIwIvAiPiZgXMSNioUYE787QiLyap4k8zYd445fOON59WR0jTjsxRLHZ3sXKzKkmE3TrVqTJyLxIRD1xpOI2o7xIxXOEcyGIZkDuYmpELodE7r87Yy6ERuS3jjhOibzCL505/sswnu5pIvFLZxzX5SLitBNDFJvtXazMnGoyQVb/jsNemPkg1HZgySJJPXGk4gajvEjFc4Q5D80WzYBIqBeBC7GIRoQ3RfStmfjujDuvasFjIp/73OeOi7pEfemM49nL6gBx2okhis32LlZmTjWZYNDoDo4420Fo5XJwpJ44UnFjUV6k4jmCLgS5uY+7UBdi0WzI7Lzq1IjwmAjPq7777ru3/DQRvGRa1tdOx3W5iDjtxBDFZnsXKzOnmkwwbvxAz44A0ZQAdXCk4taivEjF04ZzIcjNg9xF14uMjYh6EWdEuudV+8dEbuxpInjJtKyvnY7rchFx2okhis32LlZmTjWZYNxou2YvnB2JLsRV6okjFTcV5UUqnjamXsQZEYsVL8JjIs6LmBGxiMdE8O7M1R0TuR9P9zQRfOkMXjIt62un47pcRJx2Yohis72LlZlTTSaYNrqvqlHbkXFDPXGk4naivEjF08bYi6wbEXgRGhF4ke67M3pTRN+dscrlgo64xmMi3/BNzkA8FvilM8z62um4LhcRp50Yoths72Jl5lSTCVaGx3dqBi4EqIMjFbcT5UUqHj+6/gPZotmQIwZeJDMivCnSfXeGx0SO46pfPK/q35156Q/xPufTROyFEC+WzPra6bguFxGnnRii2GzvYmXmVJMJFi/Y7Ig5DDoSgLxrR/5SHRypuI0oL1Lx+EHnEXPzIEcMjIjzIjAivClyvDkz+dKZXzqif171xZ8mEo+JPNnTRPAqiBdLZn3tdFyXi4jTTgxRbLZ3sTJzqskEixdsMrMX8BzqSFjRJVFPHKm4hSgvUvGY0fUfFs19SEyNiLmQzIj89hHRiLyap4ncj2f70hlmfe10XJeLiNNODFFstnexMnOqyQTrF6xPHAGh54hLwIr1xJGKNx/lRSoeM+g/NDf3ITE1InpHBF4ERoReJHt3xowIborw3ZlrPybyjF86w6yvnY7rchFx2okhis32LlZmTjWZ4EEX3P2qGs2A8jo4UvHmo7xIxWPGOS+SGRHeFLkcEhkeE9F3Z3hMpJ4mwtc/cOa4Ra7LRcRpJ4YoNtu7WJk51WSCh16wO8eqtgMVXQKXJ44cv1AVFW8yyotUPE50XQhyMyB3oUYELgRBL+KMCG+KXA6JHF7EjIjFyrszV2VEXuRpIgA4c9wi1+Ui4rQTQxSb7V2szJxqMsFDL9j0Zi/gQpwX6XKQeuJIxRuO8iIVjxOLXuRBRoQ3RWhEfuuI3zziYcdE3vdtzhk8M57/mIi+QIIzxy1yXS4iTjsxRLHZ3sXKzKkmE5y44OyJIyRd1BNHKt5qlBepeJxw/kOj2ZAjul6ERoRehEbEwiwFvEh8d4ZGxMKMiAWPiXzOfenMe77WmYNnhvsQ77M9TQTQiuW4Ra7LRcRpJ4YoNtu7WJk51WSCcxf8wcNewIioHQG6yzo4UvFWo7xIxeOEeQ7NFs193IW6EERmROBFYETGx0RwXhU3RXhe9Qo/xOufJvLEx0Tw0qgvkFqhQLfIdbmIOO3EEMVmexcrM6eaTHD6grsHR5AVWqknjlS8ySgvUvE4QReC3AyIRNeLOCPCmyJwIWMj4s6r1jGR73vP19iLImCvc/oCqRUKdItcl4uI004MUWy2d7Eyc6rJBKcv2Brff9+FqO1Qrst64kjF24vyIhWPE3Qh60ake1PkeHPmi8dEul7EjAhuijgjgndnrAWXZHFrTxOx1zYAr3P6mqc5bpHrchFx2okhis32LlZmTjWZYOeC+RFfQm0HwQpIPXGk4o1FeZGK8wH/gQA/rMj5d2dWjEi8KaLvzlgF12Nxg08TsRdFAJwveFqhQLfIdbmIOO3EEMVmexcrM6eaTLBzwdbbfeIIbUcXdXCk4o1FeZGKkwHb0RZ3S4tmQCQGXkSNCLzIyrszPCaCOyLmQnBH5NrenXn+p4lYBsD1BU9z3CLX5SLitBNDFJvtXazMnGoywc4Foze+U6NGhFyLl4Mj8gtYUfGqo7xIxcmA82iL3h0RWBCEWhAEb4o4I8KbImZELNbviFybEXmRp4lYBlgBtEKBbpHrchFx2okhis32LlZmTjWZYOeC0WuZdgSGQ7MSXX6sDo5UvJUoL1JxMmA+2uJYNg9yRPMgR0yNyPHOjDciv31ENCJ6TESNiHW1S7nOp4k8zbffGT4kTxOxDLACaIUC3SLX5SLitBNDFJvtXazMnGoywc4Fs5dPHFHQdiArAergSMXbiPIiFSfDeZHmQY5oHuQIGBGLZkOSOyLwIjAi9CLZuzNmRHBThEbEHxO51aeJWAb0RU53keMWuS4XEaedGKLYbO9iZeZUkwl2Llh79YkjIPQcGeojvhVvI8qLVJwM9SJGmg05otmQI5oTWTuvqjdFxu/O4KYIjIiFzceVWNzOMZG/8OW/hy9mzAArgFYo0C1yXS4iTjsxRLHZ3sXKzKkmE+xcsOvtfsRXc8Tlq2oqKl55lBepeHDAghxWZOJF4EIQzouM350ZnFeFEdGbIjYcl2Fxa08T4YsZM8AKoBUKdItcl4uI004MUWy2d7Eyc6rJBDsX7HptOXjiCCq6BOqJIxWvPcqLVDw4YEEOKzLyIrAgCGdEspsiZkQszIhYmBGx6N4RwZFVMyKf+tSnTI9rsLjBp4nwxYwZYAXQCgW6Ra7LRcRpJ4YoNtu7WJk51WSCnQuOvfHgiLkNZEA5l3VwpOJVR3mRiocFLYgjzYYc4bxIZkTgRcY3ReJ5VX525p14TCSYg2fG8z9NJGaAFUArFOgWuS4XEaedGKLYbO9iZeZUkwl2Lrjb2302PG0Hl4r6iG/Fq47yIhVLobbDgry5j7twLsRiakTgQhbfneEdEdwUsfnH1V3iNp8mEjPACqAVCnSLXJeLiNNODFFstnexMnOqyQQ7F5z1vv9wGDQizn90l2VHKl5vlBepWAr1HxbgzYBIdL2IMyLwIvrWzMCIxPOquCPij4m89LfffeGjH2uXcsSzPU0kZoAVQCsU6Ba5LhcRp50Yoths72Jl5lSTCXYueDATJoNehMRylxjqiSMVrzTKi1QsBf0Ho7kPia4RUS+iRkRvipgRiV7EjAhuiui7M9f7NJH7///osz1NJGaAFUArFOgWuS4XEaedGKLYbO9iZeZUkwl2LnjQ+x13ViNzIQoW6+BIxWuM8iIVS2HmA5nRDMhdqBGBBUGoETnemfFGBF7EXIiFuRCLXz8Cx0RwU8QZEX9M5NqeJvKUx0Tw0jXIACuAVijQLXJdLiJOOzFEsdnexcrMqSYT7FzwuHf6zXnKsayP+Fa8xigvUrEUZj6QEc2ASAy8SHZHhDdFsjsiXSNyy8dE7MUJL12DDLACaIUC3SLX5SLitBNDFJvtXazMnGoywc4FT3t5cISZtoNcUXak4jVGeZGKpTD/gYxoBuQu1IhYNBuS3BQxI8KbIsebM5MvnVEvcm1G5MWfJhIzwAqgFQp0i1yXi4jTTgxRbLZ3sTJzqskEOxe88kPhMGhHyGk+HDFcnjhy/33DioprjvIiFZMw56EZ0TzIEc6IWEQjwpsizoj89hHRiMQP8XaOidTTRHoZYAXQCgW6Ra7LRcRpJ4YoNtu7WJk51WSCnQte6dVnw8NwaI5A/ZPf//H277Ki4uqjvEjFJMx5aLZoHuSIqRHhTZHjzRl/TCS+O8NjImZELGBE8NkZf0wkmINnxjU8TSRmgBVAKxToFrkuFxGnnRii2GzvYmXmVJMJdi54sVcPjsBtkDArMdRHfCteUZQXqUiD/kOzRbMhRywakeymyPl3Z176Q7zuvOrPfeu3OwPxWBg/TSRmgBVAKxToFrkuFxGnnRii2GzvYmXmVJMJdi54vXf8xJFupb45r+K1RHmRijToPzQ3D3LE9KbI8eZM+u5MNCI8r4o7IldrRDpPE3maD/FOnyYSM8AKoBUKdItcl4uI004MUWy2d7Eyc6rJBDsXvN5rSrMX6kVI4DwAXRqvr6qpeBVRXqQiDfoPRvMgR0yNCG+KqBGxMCNiYUbEwoyIRXZH5HqPiRz/ZRhP9zSRB707gwywAmiFAt0i1+Ui4rQTQxSb7V2szJxqMsHOBT+oV7+qBlYDRM2HI4Z64kjF9Ud5kYp7YYYjZotmQCScF8mMCL0I7ohkN0W651VxTMQMyuXKjrjBYyIGvFwtZoAVQCsU6Ba5LhcRp50Yoths72Jl5lSTCXYu+KG9H7izGmpE1Hk42FZ9xLfi+qO8SMW9oP/Q3NzHXTgXYuGMyPHOTMeI4I5IZkRwXlWNyBV+iPeZnyYC4OVqMQOsAFqhQLfIdbmIOO3EEMVmexcrM6eaTLBzwSd63y9ehIDtYHaogyMVVx7lRSr6/kNz8yB3LgShLsSCRiS7I5IZkfjuDI3IO+5LZ27vaSIA+GIGWAG0QoFuketyEXHaiSGKzfYuVmZONZlg54JP9FqL2QvnQkhgPgAt1hNHKq45yotU9P2H5qkRsaAXUSPivAiMiHoRMyIW7t0ZGhHrsgtA3ObTRPjas54BVgCtUKBb5LpcRJx2Yohis72LlZlTTSbYueBzvdnBEWQlhFXqiSMVVxvlRSr6/kPDeREYEYtmQ+7fFJkaEXMhFr9+hDsmondErHi5uCOu8ZjIN3yTMxCPBT2vCoAvZoAVQCsU6Ba5LhcRp50Yoths72Jl5lSTCXYu+HQvHoAGk4FMgroCxXqnpuJqo7xIRepFYEEYzYksnFdVI+K8SLwjosdEaETqaSL6EqWVaQZYAbRCgW6R63IRcdqJIYrN9i5WZk41mWDngk/3WmM8OELboRZEl3WOteI6o7xIRd+LNAMi4YyIhfMilwOrd17EjEi8KTI4JsJP8Fq8gi+dea6nifBVZz0DrABaoUC3yHW5iDjtxBDFZnsXKzOnmkywc8Gne63RQJMBgDMrWK8njlRcYZQXuenouhCL5j4kBkaEd0QeakSyd2du9pjIh8LTRPiqs54BVgCtUKBb5LpcRJx2Yohis72LlZlTTSbYueDTvWjUgyMKmg9Cl/XEkYpri/IiNx30H5qb+5AYGBH1IvGYSNeL0Ih035259mMiT/k0Eby6aAZifZABVgCtUKBb5LpcRJx2Yohis72LlZlTTSbYueDTvWw88c159U5NxbVFeZGbjnUv0jzIEc6I8I4Ib4pcDomsvTtjRgQ3RWBEbvxpInh10QzE+iADrABaoUC3yHW5iDjtxBDFZnsXKzOnmkywc8Gne7VRD47AbdB2gMRlfXNexVVFeZEbja4LsWjuQ0JvisCFINwdkXUjwjsiFjwmcoVG5PmfJhIzkO12M8AKoBUKdItcl4uI004MUWy2d7Eyc6rJBDsXfLpXG43TbWR2RI0IeD1xpOJ6orzIjQb9h+bmPiQGRoQ3RdSIwIvAiFiYEbHIzqvijgjenTEjYvrLlR3xa+/7NucMnhkv8jSRmIFst5sBVgCtUKBb5LpcRJx2Yohis72LlZlTTSbYueDTva4RB0fgMwiaD0KLxuuJIxVXEuVFbi66LgTRDIhE14uoEYEXuRwSGR4TMSNiwfOqeHcGx0QsOsdE3vO1zhw8M9yHeF/q2++AbLebAVYArVCgW+S6XEScdmKIYrO9i5WZU00m2Lng072x8YP3XYjjtCC6rCeOVFxJlBe5oTC3kWWL5j7u/AcCLgRx2oi486pmOwbvzvzLT3/m6p4m8pTHRPCKkmVgrHEZYAXQCgW6Ra7LRcRpJ4YoNtu7WJk51WSCnQs+3dttfP+d1chcCMHdOsdacQ1RXuSGgs4j5mZDjmg25Ai4EAtnROBF1IjQi0QjMnh3xoyIhc23y0Bc4TERZyAeC/FpIjEDY43LACuAVijQLXJdLiJOOzFEsdnexcrMqSYT7Fzw6d5uoxXhMBxoPpQQ9cSRiheP8iI3FF0XYtE8yF00GzK8KaJexBmRwU0RGhHcFIEXsa7LxR3x2a//j5wzeGY88zERvHgMMjDWuAywAmiFAt0i1+Ui4rQTQxSb7V2szJxqMsHOBZ/uzRrdE0fMaiih/+ASuZ44UvGyUV7khoL+Q7NF8yB38SAjol4ERsRciIW5EAveEYlG5FU8TeSpjYgBryhZBsYalwFWAK1QoFvkulxEnHZiiGKzvYuVmVNNJti54NO9g0Y9OELQdigh6iO+FS8b5UVuJWA7QLi0aAZEoutFohHhTRFzIbwpkn2I1zyHhRkRC94R8cdEbuxpIgBeUbIMjDUuA6wAWqFAt8h1uYg47cQQxWZ7Fyszp5pMsHPBp3sHjbaFJ46YyWAGWIm4HBwpO1LxQlFe5Cai+Y7gRZr7uIuuC0HQi5gR4U0R3hFZPCbyS0eYEcGHeG3+cXWXuKljIvoqAp5lYKxxGWAF0AoFukWuy0XEaSeGKDbbu1iZOdVkgp0LPt07aLQtAxwGXQhA5xG55To4UvFSUV7kJgLOwwIcuRkQicyL6B2RhxqR7N2Ze8dE3vuNzhk8MzrHRJ7yQ7z6KgKeZWCscRlgBdAKBbpFrstFxGknhig227tYmTnVZIKdCz7dO2jEFt6pgckA1HZYVkLUwZGKF4nyIjcRhw+5BLjl5j6OgAVBqAVB6B2R452ZLx4ToRGxuBwSyb0IjUg9TYQvFfqykWVgrHEZYAXQCgW6Ra7LRcRpJ4YoNtu7WJk51WSCnQs+3TtoxJblD9x3IeQRrNdHfCteJMqLvPGg/0CQNxtyRLMhMyPCOyI0Iis3RfC4dxqRd99914j9lOPqbvSYiL6K8GWjm4GxxmWAFUArFOgWuS4XEaedGKLYbO9iZeZUkwl2Lvh076ARW8j6VTUwHMrVhRBlRyqeP8qLvPFQ/2EB3jzIEc2GHDH2Ig8yInAhfHeGRuSd236aiL5UKM8yMNa4DLACaIUC3SLX5SLitBNDFJvtXazMnGoywc4Fn+4dNGKL2ewFXQgyAOfhdoE6OFLxzFFe5I0H/QejeZAjmgc5AkbEotkQMSLqRS6HRMIxEYvsvCreneF5VZuDC7O4qaeJfOjuQ7x8kVCeZWCscRlgBdAKBbpFrstFxGknhig227tYmTnVZIKdCz7dO2jEFgXuq2pIuFSwUgdHKp4zyou85YD5IEE0G3JEsyHJedVFI/L5I2BELHhGxMKdV7UKLszi1p4moq8ckWcZGGtcBlgBtEKBbpHrchFx2okhis32LlZmTjWZYOeCT/cOGrGlgniOFYDtILRSH/GteM4oL/KWA+aDBNFsyBEPMiIDLzL+7AzOq974MRF9YYg8y8BY4zLACqAVCnSLXJeLiNNODFFstnexMnOqyQQ7F3y6d9CILSfQgyOwHXQeJG5Z35xX8WxRXuTNRrMeD/EiXSMyvSmSnVfVmyL+aSIv/e13X/jox9qlHPEMTxPRF4bIswyMNS4DrABaoUC3yHW5iDjtxBDFZnsXKzOnmkywc8GneweN2HICW8JnEFyq/3DLv/1n/8v2S1JR8ZRRXuTNRrMe971I8yBHOCNi0fUizojAi/CYCN6dsVAjou/O4KaIzcFVWVzF00Tu33x+hqeJ6AtD5FkGxhqXAVYArVCgW+S6XEScdmKIYrO9i5WZU00m2Lng072DRmxFAZ8ND7dBwHYAbmmogyMVzxDlRd5awHOQMJoBuYsHGRF4EXdHxOI3j8jemkmPiVzb00Se+LxqfGGIPMvAWOMywAqgFQp0i1yXi4jTTgxRbLZ3sTJzqskEOxd8unfQiK2uwH1VjVkNtyS4rI/4VjxDlBd5U9F8x/B9GUTXi0QjwpsiakTgRfjujBkRi3hetY6J6EuCvjBEnmVgrHEZYAXQCgW6Ra7LRcRpJ4YoNtu7WJk51WSCnQs+3TtoxFYm6H5VDWwHoEvwj9VHfCueOMqLvKlo1mP2vowF/QeDRsRcyLoR4U2R7od4zYvQiFjc2tNE9CVBXxgizzIw1rgMsAJohQLdItflIuK0E0MUm+1drMycajLBzgWf7h00YmtwtTQZzPQfkQB1cKTiSaO8yJuK5j7EizQPckSzIUd0vYjeETnemfniMREzIvAiXSOSvTtjo3BhFjf1NBF91nt8YYg8y8BY4zLACqAVCnSLXJeLiNNODFFstnexMnOqyQQ7F3y6d9CIrYEATxyhBVEOdPknv//j7TenouKxo7zImwr4DwvyZkOOaDZE3pppNuT+uzO8IwIvEo+J6Lsz3Q/O4N0Zcye4Kotbe5oI/uLrS4K+MESeZWCscRlgBdAKBbpFrstFxGknhig227tYmTnVZIKdCz7dO2jE1ngyvqoGVsMBzgNbSuqJIxVPF+VF3lTAf1iQNxtyhDMiFtGIuJsiZkScF1l8d8aIzcdVXY6JvPSHeN151Z/71m93BuKxwGMiBn1J0BeGyLMMjDUuA6wAWqFAt8h1uYg47cQQxWZ7Fyszp5pMsHPBp3sHjdiaTuYTR+A2lMOCkLNSz4aveKIoL/JGQv2HBXmzIUdMvcjlnMidF1kxIvwErxkR3hF5HU8T+eqvcx7iUYCnifA1QF8S9IUh8iwDY43LACuAVijQLXJdLiJOOzFEsdnexcrMqSYT7Fzw6d5BI7amk/lODdxGJMwAeB0cqXiKKC/yRkL9hwV48yBHTI2I3hS5HBLpvTuzeF7V5hwXdYmrOCZy/AdhPPXTRPgaoC8J+sIQeZaBscZlgBVAKxToFrkuFxGnnRii2GzvYmXmVJMJdi74dO+gEVsrk6Md4ZLmg0uinjhS8ehRXuTVB8yHhXKL5kGO2Dcinz9i5bzqjR8TsRcAvgboS4K+MESeZWCscRlgBdAKBbpFrstFxGknhig227tYmTnVZIKdCz7dO2jE1uLk7IkjIPQfACr1bPiKR4/yIq8+mvW470WaBzniQUYEXgRGxHmReF7VvTtjRsSIzceF3eCXzhjsBYCvAfqSoC8MkWcZGGtcBlgBtEKBbpHrchFx2okhis32LlZmTjWZYOeCT/cOGrG1PlmfOOJAF+JQB0cqHjfKi7zWgOcgsQBvBkTCeZGuEdGbIpdDIg88r8qbIjb/uLpL3NTTRPh334hyl7WuPMvAWOMywAqgFQp0i1yXi4jTTgxRbLZ3sTJzqskEOxd8unfQiK31ye7WCGGeAxlgBaQOjlQ8YpQXea2h/oPR3IeEMyIWXS+i7864OyLwImZE9KaIMyK4KWJzcG0Wt/Y0Ef7dN6LcZa0rzzIw1rgMsAJohQLdItflIuK0E0MUm+1drMycajLBzgWf7h00Ymt9sin1iSN0G0osR1JPHKl4rCgv8loD5oME0QzIXUyNyHFD5IvvzuCOiLkQNSK/ecSvH/Fajol8+g/9u/6YyFOeV8Vfc/5ZV+6y1pVnGRhrXAZYAbRCgW6R63IRcdqJIYrN9i5WZk41mWDngk/3DhqxtT4Zyg+KybBMqPngEqiDIxWPFeVFXmvAfJAgmge5cyEIdSEW0Yjwpoi+NQMvosdELGBELNwdEX9M5JaeJqJ/zUGUu6x15VkGxhqXAVYArVCgW+S6XEScdmKIYrO9i5WZU00m2Lng072DRmytT6aSTxwBYD5IaEEUdXCk4lGivMhrDZgPEoQzInAhFs2GDM+r8t2ZaERwR8Ri6WkiL31M5Hd/8O+2SzniqZ8m4v6aG3FFzVpXnmVgrHEZYAXQCgW6Ra7LRcRpJ4YoNtu7WJk51WSCnQs+3TtoxNb6ZCqzWyMEdwHwOjhSsR/lRV5rwHyQWMCIWDQnkniRzIjoTRFnRLJjIlf6NJH78WzHREhcUbPWlWcZGGtcBlgBtEKBbpHrchFx2okhis32LlZmTjWZYOeCT/cOGrG1PlmV8eAI0HUhJPXEkYrNKC/yWgP+g6TZkCOcEbGgERl7keOgyD+/HBK5/+4MjMjnrv5LZzrHRJ7MiHwoHBMhcUXNWleeZWCscRlgBdAKBbpFrstFxGknhig227tYmTnVZIKdCz7dO2jE1vpkp9SP1cBtkKv/0EodHKnYjPIiryzgP0DAQZoNOWLRiMCLwIVMb4p0353xx0Ru6Wki7s+9ElfUrHXlWQbGGpcBVgCtUKBb5LpcRJx2Yohis72LlZlTTSbYueDTvYNGbK1Pjkr3xBEScmaSy8GRu79OFRUPjfIiryPUdrDCaB7kiOlNETMivCkCI3KcEukYkctp1bsvnTEXokbknXfeeQXHRIKHeBR833u+xv5Yuz/3SlxRs9aVZxkYa1wGWAG0QoFuketyEXHaiSGKzfYuVmZONZlg54JP9w4asbU+OSr1nRq4DV0Sbvm3P/Sd7devouKBUV7kdYQZDmQQcovmQY6YGhHeFNG3ZtSIWGR3RPDuDM+r2hxcicVn3/uNzhk8M575mIj9sXZ/7pW4omatK88yMNa4DLACaIUC3SLX5SLitBNDFJvtXazMnGoywc4Fn+4dNGJrfXJXaXYEbkNdiBJmALyeOFJxLsqLXHuY29BM0tyHxEONSPeOiMXKeVV/TOQ9X+vMwXPickzk/od4n/ppIgb3516JK2rWuvIsA2ONywArgFYo0C1yXS4iTjsxRLHZ3sXKzKkmE+xc8OneQSO21idnSh4cgdUg6Dwi6uBIxbkoL3LtQfOBTNIMyF08yIgMvMjKeVV/TOTaniby9F86Y3B/7pW4omatK88yMNa4DLACaIUC3SLX5SLitBNDFJvtXazMnGoywc4Fn+4dNGJrfXKmtPoH7rsQwmwHMqC8njhScSLKi1x70HwgkzQPchfOi3SNiLspAi+ycl7VvIj5D4vX8TSR4CEeBfo0EfyZZnbEFTVrXXmWgbHGZYAVQCsU6Ba5LhcRp50Yoths72Jl5lSTCXYu+HTvoBFb65MzpdUHz4YnpwsBrFJPHKl4aJQXufag+UAmaR7kCBgRCxgRC+dFnBGxyO6IDN6dwU0Rm3O5rCNu9mki+DPN7Igrata68iwDY43LACuAVijQLXJdLiJOOzFEsdnexcrMqSYT7Fzw6d5BI7bWJ2dK1LMnjgBqQZTUE0cqHhTlRa49aD6QGc2GiBGx6BoReJH47ow7r2qRnVfFHZFbfpqI+9IZclaUuKJmrSvPMjDWuAywAmiFAt0i1+Ui4rQTQxSb7V2szJxqMsHOBZ/uHTRia31ypmSdz2ONiC4E5HJw5PirVVGxEuVFrj3MdmhGNBtyRLMhR9CLOCNCL4KbIvAiZkS6N0WyOyLGbfhxUTf3NBH3p5mcFSWuqFnryrMMjDUuA6wAWqFAt8h1uYg47cQQxWZ7Fyszp5pMsHPBp3sHjdhan5wptf5+cRuWI+BCFPXEkYr1KC9yvWGeI2aL5kGW74ioETlOiaTHRH71iHhe9RqPiXz8h9qlHPE8x0T0TzN43DLiipq1rjzLwFjjMsAKoBUKdItcl4uI004MUWy2d7Eyc6rJBDsXfLp30Iit9cmZUuvdr6rRimVukdcTRyoWo7zI9Qb9h+ZmQ45oNuQI50W6RoR3RB50TATvzticyzUdcRVPEzn+gzCe9EO8/Iusf5rB45YRV9SsdeVZBsYalwFWAK1QoFvkulxEnHZiiGKzvYuVmVNNJti54NO9g0ZsrU/OlK4+eOIIlxF1cKRiJcqLXGM4/2HR3IeEWhAEjcjgpgiMiMXlkEjv3Znuh3j1mMgXPvpXb+ppIvbnmH+R9U8zeNwy4oqata48y8BY4zLACqAVCnSLXJeLiNNODFFstnexMnOqyQQ7F3y6d9CIrfXJmTLW40d8zW0oB8iNfHc9caRiIcqLXFfQf2i2aAZEYsWIxPOqFscpkctNEXMhFuZCLLp3ROLTRH7nB3/41o6J2J9j/kXWP83gccuIK2rWuvIsA2ONywArgFYo0C1yXS4iTjsxRLHZ3sXKzKkmE+xc8OneQSO21idnym5d7QjchiMR9cSRimmUF7muoP/Q3NyHxPSmCIyI3hHhTZHBuzNmRCzUiFjY8MuVHXFrXzpjsD/H/Iusf5rB45YRV9SsdeVZBsYalwFWAK1QoFvkulxEnHZiiGKzvYuVmVNNJti54NO9g0ZsrU/OlN06PuJrDgPmwwF1WBBd1hNHKsZRXuS6wrkQi+Y+JKZGRG+KXA6JhGMiuCnijIi+O8PzqjbnuK5L3NrTRPCX1/4c8y+y/mkGj1tGXFGz1pVnGRhrXAZYAbRCgW6R63IRcdqJIYrN9i5WZk41mWDngk/3DhqxtT45U2Z1PhueboPEckbq4EjFIMqLXFfQhSBbNANyF/tG5PNHRCPyK7/yK+68qj8mEszBc+KZnybCv8JGlIOQxy0jrqhZ68qzDIw1LgOsAFqhQLfIdbmIOO3EEMVmexcrM6eaTLBzwad7B43YWp+cKQf1+MQRLtWCKOqJIxWDKC9yXUEXgmzRPMgRDzIi8CIwIs6L6E0RGhH37sy1HxP51m93BuKx8Oe//Kvw15Z/dpWDkMctI66oWevKswyMNS4DrABaoUC3yHW5iDjtxBDFZnsXKzOnmkywc8GneweN2FqfnCnH9fcnLkQ5XAhRTxypyKK8yLUE/Ydmi2ZDjnBepGtE9KbI5ZDIwjERvjtj/sOi8zSRl/72u87TRL7665yHeBToMRES5SDkccuIK2rWuvIsA2ONywArgFYo0C1yXS4iTjsxRLHZ3sXKzKkmE+xc8OneQSO21idnynE9fsQXYJEWhLBiPXGkohvlRa4l6D80Nw9yhDMiFl0vMn53JhoR3hGxwDGRd271aSJ/66t+vx4TIVEOQh63jLiiZq0rzzIw1rgMsAJohQLdItflIuK0E0MUm+1drMycajLBzgWf7h00Ymt9cqac1vXgSATMB10IiKEOjlTEKC9yLeFciEXzIEcsGhGL482Z5kXUiFiYEbEwI2IRz6vijogZEbMpxxVd4iqeJvJCx0RIYpE8bhlxRc1aV55lYKxxGWAF0AoFukWuy0XEaSeGKDbbu1iZOdVkgp0LPt07aMTW+uRMOa0b6doRNR8kXNYTRypilBd5+aD/0GzRbMgRXS8SjUh8d8aMSPemSDyvimMiVrHhl8u6saeJxGMiJLFIHreMuKJmrSvPMjDWuAywAmiFAt0i1+Ui4rQTQxSb7V2szJxqMsHOBZ/uHTRia31yppzWQeLBEQIVuhAQQz1xpMJFeZGXDDoPzc193EXXhUyNiLkQvSkS352J51U7x0Ru6Wki+Kvq/siCxCJ53DLiipq1rjzLwFjjMsAKoBUKdItcl4uI004MUWy2d7Eyc6rJBDsXfLp30Iit9cmZcloH0SeOICshtwyA1xNHKjTKi7xMdF2IRTMgEgMv4oyI8yKL51X13Rmbc7m4I27naSI4JoK/qu6PLEgsksctI66oWevKswyMNS4DrABaoUC3yHW5iDjtxBDFZnsXKzOnmkywc8GneweN2FqfnCmndZLuOVatqAsh/+T3f7z9blfcfJQXeZmg/9Bs0QzIXQyMyPimiBkRi8shkeV3Z/wxkWAOnhPPfEyEf1XjH1kjsUget4y4omatK88yMNa4DLACaIUC3SLX5SLitBNDFJvtXazMnGoywc4Fn+4dNGJrfXKmnNZV8IE7hwHDARK5op44UsEoL/IyQf+h2aJ5kCNOGBGL482ZzpfO6B2RaESsaPMvV4ZjIi/9IV737XdP/TQR/lWNf2SNxCJ53DLiipq1rjzLwFjjMsAKoBUKdItcl4uI004MUWy2d7Eyc6rJBDsXfLp30Iit9cmZclp3Ah4cUfNBAq7Ech0cqUCUF3mZoP/QbNFsyBFTL6JGxN0U6b47Y0bEwh0TMSNSTxMx4K9q/CNrJBbJ45YRV9SsdeVZBsYalwFWAK1QoFvkulxEnHZiiGKzvYuVmVNNJti54NO9g0ZsrU/OlNO6E3SfDa+cLoSwZR0cqbAoL/IyQf+huXmQI2BELOBCLJwRgRcZGBHcFBkcE8F51Ws8JnL8B2E86TER/hnFX9X4R9ZILJLHLSOuqFnryrMMjDUuA6wAWqFAt8h1uYg47cQQxWZ7Fyszp5pMsHPBp3sHjdhan5wpp3UnsGX3m/O4pAVBhbmeOFJRXuS5o+tCLJoHOaLZkCPGRgRepHtHxCIaEX13pv80kWAOnhMv9TQR/BlldiQWyeOWEVfUrHXlWQbGGpcBVgCtUKBb5LpcRJx2Yohis72LlZlTTSbYueDTvYNGbK1PzpTTuhNgOfjmPIVViMvBkYrbjvIizx30H5qbBzmieZAjBkYEXgRGpOtF3LszMCLu3Rmr2PzLZd3Y00S+6/7TRMjjH1kjsUget4y4omatK88yMNa4DLACaIUC3SLX5SLitBNDFJvtXazMnGoywc4Fn+4dNGJrfXKmnNadgMv3i/kgUdCFEHVw5MajvMjzRdeFIDcbckSzIY9nRNy7M2ZEeFOERsTipp4m4v50ksc/skZikTxuGXFFzVpXnmVgrHEZYAXQCgW6Ra7LRcRpJ4YoNtu7WJk51WSCnQs+3TtoxNb65Ew5rTsBl3inxsEMRyTgIHVw5JajvMhzxMCFWDQPckSzIUcMvMjx5kz67szgvKoFjol86lOfsjl2DYhbe5qI+9NJHv/IGolF8rhlxBU1a115loGxxmWAFUArFOgWuS4XEaedGKLYbO9iZeZUkwl2Lvh076ARW+uTM+W07gS6jO/UIGuR4G49ceRmo7zIcwSdh2ZE8yBHNA9yxMCIWJgL6RoRCzMiFtl5Vd4RufZjIk/z7XcGPSaifzrB45aRWCSPW0ZcUbPWlWcZGGtcBlgBtEKBbpHrchFx2okhis32LlZmTjWZYOeCT/cOGrG1PjlTTutO4JbTb85zXsRQX1Vzs1Fe5DnCPIdmRDMgEupCLDIjou/OmBGxMCPCmyK/cYRZDQsYET2v2j8mcktPE7E/l92/pOBxy0gsksctI66oWevKswyMNS4DrABaoUC3yHW5iDjtxBDFZnsXKzOnmkywc8GneweN2FqfnCmndSeIevfEEdqOWCHq4MhtRnmR5whzHpotmvu4C7gQC7gQi7ER6d4U0XdnfvWIeF4V787Y/OO6LnGNx0Se8mki9uey+5cUPG4ZiUXyuGXEFTVrXXmWgbHGZYAVQCsU6Ba5LhcRp50Yoths72Jl5lSTCXYu+HTvoBFb65Mz5bTuBFHvbo3AecQKM1AHR24wyos8R9CFIFs0D3IXzYnc9yKZEcEdkQedV9V3Z2zOcVGXuMFjIvbnsvuXFDxuGYlF8rhlxBU1a115loGxxmWAFUArFOgWuS4XEaedGKLYbO9iZeZUkwl2Lvh076ARW+uTM+W07gRRb5WxHYH5iKSeOHJrUV7kOYIuBNmieZAjmg05gkZkxYvoMRG8O+OMSHx3xnaPK7rEbT5NxDL/YuqfTu7qEiQWyeOWEVfUrHXlWQbGGpcBVgCtUKBb5LpcRJx2Yohis72LlZlTTSbYueDTvYNGbK1PzpTTuhNEPSofEPMB0HmQY8lcB0duLcqLPG3Qf2i2aDbk1HlVi+OUyOWYCIxI946IGhHcEfHHRG7maSL40hn8WbTMv5j6p5O7ugSJRfK4ZcQVNWtdeZaBscZlgBVAKxToFrkuFxGnnRii2GzvYmXmVJMJdi74dO+gEVvrkzPltO4EUc+KHhyB4XCcLoS4HBw5/mZW3EKUF3naoP9ARjQbckSzIUc4L6JGZPzujBkRCzMiFmZELNwxETMir+CYSPAQj4Lve8/X4A8iM/8+kpDHLSOxSB63jLiiZq0rzzIw1rgMsAJohQLdItflIuK0E0MUm+1drMycajLBzgWf7h00Ymt9cqac1p0g6lmJTxyB+XAVgPxvf+g72x+Iirce5UWeNsx5aLZoHuSI5kGOcEZEvYgZEXqRhx4T6T9N5L3f6JzBM+OZj4ngDyIz/z6SkMctI7FIHreMuKJmrSvPMjDWuAywAmiFAt0i1+Ui4rQTQxSb7V2szJxqMsHOBZ/uHTRia31yppzWnSDqtZJ9xBfmgwQuhKgnjtxIlBd5/KDz0Nzch0TzIEd0jchxQ+TMedX47oztXq7siMsxkfd8rTMHz4nLMZH7H+J9uqeJfOjuvKpm/n3UP5SqcSQWyeOWEVfUrHXlWQbGGpcBVgCtUKBb5LpcRJx2Yohis72LlZlTTSbYueDTvYNGbK1PzpTTuhNEvavg4Ig5DDUfBJawICT1VTU3EuVFHj+iF2nuQ6J5kCO6RiR6ETMi0Yt0jYh7d8YfE7m2p4k85TER/Cl0mX8fScjjlpFYJI9bRlxRs9aVZxkYa1wGWAG0QoFuketyEXHaiSGKzfYuVmZONZlg54JP9w4asbU+OVNO604Q9VHgnjgCwHyQwIWQf6yeOHIDUV7kMSO6EMsWzYBINBuyZ0QG787AiLyOp4kED/Eo4NNEYgZhRXncMhKL5HHLiCtq1rryLANjjcsAK4BWKNAtcl0uIk47MUSx2d7FysypJhPsXPDp3kEjttYnZ8pp3QmiPgp4cIRWA0sFi9TUE0fefJQXecyg/9Dc3IeEuhBE14tcDon8zu/wrZmuETEXYmEuxIJ3RCz6x0Ru8mkiMYOwojxuGYlF8rhlxBU1a115loGxxmWAFUArFOgWuS4XEaedGKLYbO9iZeZUkwl2Lvh076ARW+uTM+W07gRR3xVMD46QMxvqiSNvO8qLPGaseJFFIwIv0j2vajG+I2LRPyYSzMFz4qWeJhIzCCvK45aRWCSPW0ZcUbPWlWcZGGtcBlgBtEKBbpHrchFx2okhis32LlZmTjWZYOeCT/cOGrG1PjlTTutOEPWZwB0ciYD/UFwOjhx/VCveZJQXecw44UXGRgReBDdFzIjwpogZEdwU6Z5XxTERK9r8y2Xd9tNEYgZhRXncMhKL5HHLiCtq1rryLANjjcsAK4BWKNAtcl0uIk47MUSx2d7FysypJhPsXPDp3kEjttYnZ8pp3QmifiBwD0Azt8EcK5YN9cSRNxzlRR4zxl4ELgSxYkTMhcSbInpMJDuveo3HRD7+Q+1SjnjOp4nEDMKK8rhlJBbJ45YRV9SsdeVZBsYalwFWAK1QoFvkulxEnHZiiGKzvYuVmVNNJti54NO9g0ZsrU/OlNO6E0T9QDB94gj8B4FKPXHkrUZ5kceJrguxaDbkiGZDjqAX6RoRepFz51XfcV8689JPE/m19/0p+8/RruaIJ/oQb/dpIjGDsKI8bhmJRfK4ZcQVNWtdeZaBscZlgBVAKxToFrkuFxGnnRii2GzvYmXmVJMJdi74dO+gEVvrkzPltO4EUT8W8OAIrEYELYjmOjjyJqO8yOME/Yfm5kGOaB7kCBqR8U0RMyIWUyMS353xx0Re9Gkiv/L1f/zZniYCI4K/d4MMworyuGUkFsnjlhFX1Kx15VkGxhqXAVYArVCgW+S6XEScdmKIYrO9i5WZU00m2Lng072DRmytT86U07oTRP1YYMvsm/NIyJnriSNvMsqLPE44F4JoNuTsuzPHKZH60plV4GkiAP/qdTMIK8rjlpFYJI9bRlxRs9aVZxkYa1wGWAG0QoFuketyEXHaiSGKzfYuVmZONZlg54JP9w4asbU+OVNO604Q9WMBlnjiSDQfCqsoLgdHKt5WlBfZDfMcmhnNhhzRbMgRzotEI8KbInx35vNHmBGxMCNiYUbEIt4RqaeJAPwz180grCiPW0ZikTxuGXFFzVpXnmVgrHEZYAXQCgW6Ra7LRcRpJ4YoNtu7WJk51WSCnQs+3TtoxNb65Ew5rTtB1I8FWMaDI4TZDiUwIiD1xJE3FuVFzocZjpib+5Cg/0DQhUQjwpsiakQG785c+dNELsdE7sfTPU2Ez3oH+Geum0FYUR63jMQiedwy4oqata48y8BY4zLACqAVCnSLXJeLiNNODFFstnexMnOqyQQ7F3y6d9CIrfXJmXJad4KoHwu4dJ+pgdtwS7oQog6OvKUoL3I+VryI3gtBOC9y2ojgpoieV7Xdy2Ud8eJPE7kcE3mJp4kA/DPXzSCsKI9bRmKRPG4ZcUXNWleeZWCscRlgBdAKBbpFrstFxGknhig227tYmTnVZIKdCz7dO2jE1vrkTDmtO0HUjwW6pB2B5yC4BIELAa8njrylKC9yPqZeZGpE1IvAiKgXOU6JpMdE9EO8r+CYyLd+uzMQj4Xvujsmgj9tyrMMworyuGUkFsnjlhFX1Kx15VkGxhqXAVYArVCgW+S6XEScdmKIYrO9i5WZU00m2Lng072DRmytT86U07oTRP1YoEvj7qtqogvRDFIHR95MlBc5Hw/1ImMj8qCbIu5DvP6YyEt/+13naSJf/XXOQzwK9JgICXmWQVhRHreMxCJ53DLiipq1rjzLwFjjMsAKoBUKdItcl4uI004MUWy2d7Eyc6rJBDsXfLp30Iit9cmZclp3gqgfC3RpfOWragxqRwx1cORtRHmRM9F1IRbNgxwBI2IBI2LR9SIrRsRciIW5EAveEUmPidzY00TwVwx/1EDIswzCivK4ZSQWyeOWEVfUrHXlWQbGGpcBVgCtUKBb5LpcRJx2Yohis72LlZlTTSbYueDTvYNGbK1PzpTTuhNE/VigS/Dsq2oAuhBkEEMdHHkDUV7kTNB/aG4e5IhmQ44YGBF6kYfeEcG7MzAitnu5piOu4mkiz3hMhH/F8IcMhDzLIKwoj1tGYpE8bhlxRc1aV55lYKxxGWAF0AoFukWuy0XEaSeGKDbbu1iZOdVkgp0LPt07aMTW+uRMOa07QdSPBbokVztCtwHOJQgqhu+uJ468/igv8rDouhCL5kGOaB7kiMc1IvFDvNd+TOSJnybCv2LgIORZBmFFedwyEovkccuIK2rWuvIsA2ONywArgFYo0C1yXS4iTjsxRLHZ3sXKzKkmE+xc8OneQSO21idnymndCaJ+LNClcndwROFcCFEHR157lBd5WNB/aLZoNuSUEcm8iBkRi+y8aueYyO09TQR/uYyAg5BnGYQV5XHLSCySxy0jrqhZ68qzDIw1LgOsAFqhQLfIdbmIOO3EEMVmexcrM6eaTLBzwad7B43YWp+cKad1J4j6sUCXyj942As1H0RcEnVw5FVHeZGHBf2H5mZDjmg25Ah6ka4ReehNEffuzDvuS2du8mki+MtlBByEPMsgrCiPW0ZikTxuGXFFzVpXnmVgrHEZYAXQCgW6Ra7LRcRpJ4YoNtu7WJk51WSCnQs+3TtoxNb65Ew5rTtB1I8FunRb8atqIiG3DPLJ7/94++tT8dqivMhqdF2IRfMgRzQPcgSNyPimiBkRixPvzvhjIsEcPCde6mki+LNlhBXlWQZhRXncMhKL5HHLiCtq1rryLANjjcsAK4BWKNAtcl0uIk47MUSx2d7FysypJhPsXPDp3kEjttYnZ8pp3QmifizQZeyNdkTBIowIcDk4cvxxrnh1UV5kHnQemi2aAbkLtSCIqRGx+MIR60YEd0T8MZGX/hCv+/a7p3uayJ//8q+yP1L4s8U/XkZYUZ5lEFaUxy0jsUget4y4omatK88yMNa4DLACaIUC3SLX5SLitBNDFJvtXazMnGoywc4Fn+4dNGJrfXKmnNadIOrHAl3GXsPg4AgBUwIvYqQOjrzSKC8yD/oPzc2ASAy8SDQivCnCd2fMiFiYEbEwI2KR3RG58aeJGPBni3+8jLCiPMsgrCiPW0ZikTxuGXFFzVpXnmVgrHEZYAXQCgW6Ra7LRcRpJ4YoNtu7WJk51WSCnQs+3TtoxNb65Ew5rTtB1I8Fuoy9hpWP+JLAjhjq4MhrjPIi81jxIjAiFs6FDO6IqBHp3hQxI2IRz6vanMtlHXEVx0SO/yaMpzsmoh/iZQZhRXmWQVhRHreMxCJ53DLiipq1rjzLwFjjMsAKoBUKdItcl4uI004MUWy2d7Eyc6rJBDsXfLp30Iit9cmZclp3gqgfC3QZew1W1K+qoflwS7oQVCzXE0deXZQXmcfUizQbckTXi9CI0ItMjUj27oztXq7piFs7JqJ/oZhBWFGeZRBWlMctI7FIHreMuKJmrSvPMjDWuAywAmiFAt0i1+Ui4rQTQxSb7V2szJxqMsHOBZ/uHTRia31yppzWnSDqxwJdxl4DivHuiNoOLXLr8lU1Fa8qyovMw7kQi+ZBjmge5IiuERnfFDEjYpEZEb0p0jkmcpNPE+FfKFaMsKI8yyCsKI9bRmKRPG4ZcUXNWleeZWCscRlgBdAKBbpFrstFxGknhig227tYmTnVZIKdCz7dO2jE1vrkTDmtO0HUjwW6jL0GFt/fMx8OcCHE5eDI8Ue74lVEeZFR0H9otmg25IhmQx713Rl4EXyIV9+doRGxuNmniZCzYoQV5VkGYUV53DISi+Rxy4grata68iwDY43LACuAVijQLXJdLiJOOzFEsdnexcrMqSYT7Fzw6d5BI7bWJ2fKad0Jon4s0GXsNbD4HYe9iOajW4EXMfK3P/Sd7c9TxdVHeZFR0H9obh7kiGZDjhh4kePNmcm7M+ZCLPSOCN6dud5jIhK/++nPPPUxkfhnixUjrCjPMggryuOWkVgkj1tGXFGz1pVnGRhrXAZYAbRCgW6R63IRcdqJIYrN9i5WZk41mWDngk/3DhqxtT45U07rThD1Y4EuY69Bi/oANNoOB7gQbCF//p132x+piuuO8iKjcC7EonmQI5oHOWJgRCzMhYyNSPeOCI+JmBGx3eOKLnGNx0Se5tvvDO68qnJWjLCiPMsgrCiPW0ZikTxuGXFFzVpXnmVgrHEZYAXQCgW6Ra7LRcRpJ4YoNtu7WJk51WSCnQs+3TtoxNb65Ew5rTtB1I8Fuoy9BlfUc6yAOhJaEPUi9VU1ryXKi/ig84i5eZAjmgc5YmxEpndEBudV+8dEruxpIj/1Dd/kDMRj4bvuf+kM/ySB6xYryrMMworyuGUkFsnjlhFX1Kx15VkGxhqXAVYArVCgW+S6XEScdmKIYrO9i5WZU00m2Lng072DRmytT86U07oTRP1YoMvYa4h6feIIjYiaD1cx1BNHXkWUF/GReZHmQY5oHuSIRSOSeREzIhbZedXXcUzkyZ4mYn96+MdI/yqB6xYryrMMworyuGUkFsnjlhFX1Kx15VkGxhqXAVYArVCgW+S6XEScdmKIYrO9i5WZU00m2Lng072DRmytT86U07oTRP1YoMvYa4j67wi2Q8G6ehHDj3/ko+0PVsW1RnmRL0bXhVg0AyKhLgRxzohM351557q/dOapj4nYnx7+MdK/SuC6xYryLIOwojxuGYlF8rhlxBU1a115loGxxmWAFUArFOgWuS4XEaedGKLYbO9iZeZUkwl2Lvh076ARW+uTM+W07gRRPxboMvYaunr9iK8zHwq4EJLPv3vvbm7FtUV5kS8G/Yfm5j4kukZk7EXMiFiceHfm2o+JPPHTROxPD/8Y6V8lcN1iRXmWQVhRHreMxCJ53DLiipq1rjzLwFjjMsAKoBUKdItcl4uI004MUWy2d7Eyc6rJBDsXfLp30Iit9cmZclp3gqgfC3QZew2Z/gM982HQIiwIUU8cufIoL/LFWPEiMCIWzYYsnFe1+MIRD70j4o+JXNnTRH7qP/yPnYF4LHzX8aUz+NPDvz76Vwlct1hRnmUQVpTHLSOxSB63jLiiZq0rzzIw1rgMsAJohQLdItflIuK0E0MUm+1drMycajLBzgWf7h00Ymt9cqac1p0g6scCXcZew0A//qoaMx9KYEfqiSPXHOVFvhibXkSNSPbujBkRCzMiFmZELMyIWMQ7Ijf7NJGPfeXv418cI8pByKMMhDzLIKwoj1tGYpE8bhlxRc1aV55lYKxxGWAF0AoFukWuy0XEaSeGKDbbu1iZOdVkgp0LPt07aMTW+uRMOa07QdSPBbqMvYaBHgdHIuhCuKQdsfzjH/5I+xNWcWVRXuSLMfYizYMc4VxI14jAi6gR6d4U+dwR8byqzblc0xGffe83OmfwzHi2YyLf956vwTER/ulRDkIeZSDkWQZhRXncMhKL5HHLiCtq1rryLANjjcsAK4BWKNAtcl0uIk47MUSx2d7FysypJhPsXPDp3kEjttYnZ8pp3QmifizQZew1jNu7B0dihV4EqCeOXGeUF7lE14VYNBtyRLMhR3S9iBqReEdk8ZgI3p2x3ctlHXE5JvKer3Xm4DlxOSZy/0O8T/00Ef7FMaIchDzKQMizDMKK8rhlJBbJ45YRV9SsdeVZBsYalwFWAK1QoFvkulxEnHZiiGKzvYuVmVNNJti54NO9g0ZsrU/OlNO6E0T9WKDL2GsYtxsedI4VqCeOXGeUF7kE/Yfm5kGOaB7kiK4RGXsRMyIWmRHBSRHeFLGizb9c1nU+TeTJjon8eTkmQqIchDzKQMizDMKK8rhlJBbJ45YRV9SsdeVZBsYalwFWAK1QoFvkulxEnHZiiGKzvYuVmVNNJti54NO9g0ZsrU/OlNO6E0T9WKDL2GsYtwP8qpoxYERAPlZPHLm+KC9yiXUvsmJE4EVW3p2hEfmlu2e9v/POOzQiFjd7TIQkFsmjDIQ8yyCsKI9bRmKRPG4ZcUXNWleeZWCscRlgBdAKBbpFrstFxGknhig227tYmTnVZIKdCz7dO2jE1vrkTDmtO0HUjwW6jL2GcTsweOKIK8KOAPXEkWuL2/UiXf9h0dyHhLoQRNeLrLw7Yy7E4jiuejmvimMiakRszuXijridp4nEYyIksUgeZSDkWQZhRXncMhKL5HHLiCtq1rryLANjjcsAK4BWKNAtcl0uIk47MUSx2d7FysypJhPsXPDp3kEjttYnZ8pp3QmifizQZew1jNsJfaeGoBEhIUeuJ45cVZQXuZeb+5BYNCIWUyMSz6virZn0mEgwB8+JF3maCP6yKIlF8igDIc8yCCvK45aRWCSPW0ZcUbPWlWcZGGtcBlgBtEKBbpHrchFx2okhis32LlZmTjWZYOeCT/cOGrG1PjlTTutOEPVjgS5jr2HcrtCvqonmQ5fE5Ykjx1/+imuI8iIjL7JuRH7nd36HLmRsRHhMxH2I1yo2/3JlN/w0kUhikTzKQMizDMKK8rhlJBbJ45YRV9SsdeVZBsYalwFWAK1QoFvkulxEnHZiiGKzvYuVmVNNJti54NO9g0ZsrU/OlNO6E0T9WKDL2GsYtzvgiSPRfHSJZUM9ceR6orxI6kUeZET0jEj0ImZELNx5VRqRd+OXzrz0edXf/fgPtUs54kmPifBPCf/QKIlF8igDIc8yCCvK45aRWCSPW0ZcUbPWlWcZGGtcBlgBtEKBbpHrchFx2okhis32LlZmTjWZYOeCT/cOGrG1PjlTTutOEPVjgS5jr2Hc7uDeqclcCAi45XriyJXEjXoRsx30H5qbDTnCeZGBEXFeZHpTxH1wxh8TuYaniRz/QRCXYyJP8yFeHBPhnxL+oVESi+RRBkKeZRBWlMctI7FIHreMuKJmrSvPMjDWuAywAmiFAt0i1+Ui4rQTQxSb7V2szJxqMsHOBZ/uHTRia31yppzWnSDqxwJdxl7DuD0C79RE89EF7UgdHLmGuEUvcrEhR4Cz0jzIETAiFs2J5OdVH2pE4rsz/pjIjT1NhOAfGiWxSB5lIORZBmFFedwyEovkccuIK2rWuvIsA2ONywArgFYo0C1yXS4iTjsxRLHZ3sXKzKkmE+xc8OneQSO21idnymndCaJ+LNBl7DWM2yNM0D3H2gW9SH1VzTVEeZGOF2k25IiBEYEX4ZHVxTsifHcGd0Ru9pgInyaif0ciiUXyKAMhzzIIK8rjlpFYJI9bRlxRs9aVZxkYa1wGWAG0QoFuketyEXHaiSGKzfYuVmZONZlg54JP9w4asbU+OVNO604Q9WOBLmOvYdweAcH4q2oMvF9CO3I5OFLxolFepEWzIUc0G3IEvUhmRPSmiBkRCzMiFmZELMyIWJgRscAxEb47Y0bklr90Rv+CAPxDoyQWyaMMhDzLIKwoj1tGYpE8bhlxRc1aV55lYKxxGWAF0AoFukWuy0XEaSeGKDbbu1iZOdVkgp0LPt07aMTW+uRMOa07QdSPBbqMvYZxewQE3yFuo4voRQyfqCeOvGjclhcxz4GMIG8e5OF3RNSIDG6KfO4IGJF6msj3vedrPnT/3RmAf2iUxCJ5lIGQZxmEFeVxy0gsksctI66oWevKswyMNS4DrABaoUC3yHW5iDjtxBDFZnsXKzOnmkywc8GneweN2FqfnCmndSeI+rFAl7HXMG6PoEA/4gvQdrglAF4HR14wbsiLwHaQWIA3G3JEsyFHOC/ijAi8yIoRwR0RCx4TqaeJjP/uKIlF8igDIc8yCCvK45aRWCSPW0ZcUbPWlWcZGGtcBlgBtEKBbpHrchFx2okhis32LlZmTjWZYOeCT/cOGrG1PjlTTutOEPVjgS5jr2HcHqGC7GM13Qp4PXHkBeNWvAjMhwV5cx8SakEQNCLdmyKXQyLiRcbnVXlMBDdFrGjzcW3XeEzkG77JGYjHAo6JjP/uKIlF8igDIc8yCCvK45aRWCSPW0ZcUbPWlWcZGGtcBlgBtEKBbpHrchFx2okhis32LlZmTjWZYOeCT/cOGrG1PjlTTutOEPVjgS5jr2HcHuEGuoMj0Y4YUORWHRx5qXj7XkT9hwV5MyASJ4yIuRCL45TI5ZjIygdncFPE5h9Xd4lrfJrIV3+d8xCPAn7pTPdvCotKYpE8ykDIswzCivK4ZSQWyeOWEVfUrHXlWQbGGpcBVgCtUKBb5LpcRJx2Yohis72LlZlTTSbYueDTvYNGbK1PzpTTuhNE/Vigy9hrGLdHuIH4qhqHeDsEhKivqnmRKC/SYnpTRI0IvEh8d8aMiIUZEYvLaVX50hmeV7WwOcelXeIqjokc/1kQT/00Efyx6P5NYVFJLJJHGQh5lkFYUR63jMQiedwy4oqata48y8BY4zLACqAVCnSLXJeLiNNODFFstnexMnOqyQQ7F3y6d9CIrfXJmXJad4KoHwt0GXsN4/aIOHDwTg05CIwISB0cef4oL3IJGBGLZkMWboo4I2KRfYhXj4l86lOfst3jui5xU8dEcF4VfyC6f1NYVBKL5FEGQp5lEFaUxy0jsUget4y4omatK88yMNa4DLACaIUC3SLX5SLitBNDFJvtXazMnGoywc4Fn+4dNGJrfXKmnNadIOrHAl3GXsO4PaI7MD5xhC7ELWFHDPXEkeePN+5FYDtILMCbBzmi2ZAjBkbEXEg0Iu6mSPbuzKePeOe2nyaCPw2aHVhUEovkUQZCnmUQVpTHLSOxSB63jLiiZq0rzzIw1rgMsAJohQLdItflIuK0E0MUm+1drMycajLBzgWf7h00Ymt9cqac1p0g6scCXcZew7g9ojvQSPbEEXUhJOB1cOSZ4xa9SPMgRzQPcsTAiOgdkXhTBCdFpudVb/xpIvjToNlB/3aQxCJ5lIGQZxmEFeVxy0gsksctI66oWevKswyMNS4DrABaoUC3yHW5iDjtxBDFZnsXKzOnmkywc8GneweN2FqfnCmndSeI+rFAl7HXMG6P6A40wlsj0XxE0I7UwZHnjLfsRZr7uO9FLJoNOaLZkCOmRsTdFKERmXoRnFe1Obgwi5t6mgie9Y4/DZod9G8HSSySRxkIeZZBWFEet4zEInncMuKKmrWuPMvAWOMywAqgFQp0i1yXi4jTTgxRbLZ3sTJzqskEOxd8unfQiK31yZlyWneCqB8LdBl7DeP2iO5AkPVnwxtoRz7/zrvtT2TFE8fNeZHmQY5oHuSI455I+u7M2Ijw3RlzIRbmQiz0sWbumMivve/bnDN4ZrzI00RidmBRSSySRxkIeZZBWFEet4zEInncMuKKmrWuPMvAWOMywAqgFQp0i1yXi4jTTgxRbLZ3sTJzqskEOxd8unfQiK31yZlyWneCqB8LdBl7DeP2iO5AkvgANAXMBzKI4bvriSPPFbfrRZoHOWJgROhFjjdnOl86YwEvMnh3xio2H1d1OSby0h/idd9+9zxPE4nZgUUlsUgeZSDkWQZhRXncMhKL5HHLiCtq1rryLANjjcsAK4BWKNAtcl0uIk47MUSx2d7FysypJhPsXPDp3kEjttYnZ8pp3QmifizQZew1jNsjugO1OP2qGgJexEgdHHmeeJtexDwHMoK82ZAjmg05gl4kMyJ6U8SMiAXuiNCI4KYIjcgv333pDN6doRGxuJ2niXzv/aeJxOzAopJYJI8yEPIsg7CiPG4ZiUXyuGXEFTVrXXmWgbHGZYAVQCsU6Ba5LhcRp50Yoths72Jl5lSTCXYu+HTvoBFb65Mz5bTuBFE/Fugy9hrG7RHdgVrkE0d4/0OBIrdgRwx1cOQZ4k15EdgOksN+XKK5j7tQ/4FYuSPSPa+qn51RI8J3Z17B00Se8pgI/gpk2YFFJbFIHmUg5FkGYUV53DISi+Rxy4grata68iwDY43LACuAVijQLXJdLiJOOzFEsdnexcrMqSYT7Fzw6d5BI7bWJ2fKad0Jon4s0GXsNYzbI7oDXZe+U+PMRwTtyG/WE0eeON6OF4HtIGelGRCJgRdxRoReZGpEcFOERoQ3Re4dE/mWP+WcwTPj+Y+J4K9Alh1YVBKL5FEGQp5lEFaUxy0jsUget4y4omatK88yMNa4DLACaIUC3SLX5SLitBNDFJvtXazMnGoywc4Fn+4dNGJrfXKmnNadIOrHAl3GXsO4PaI7MHYNnjiivgQcXqSeOPLUcXNeBEbEotmQ5ZsiZkQsBkaE51VpRKxo83FJN/g0EcB+87PswKKSWCSPMhDyLIOwojxuGYlF8rhlxBU1a115loGxxmWAFUArFOgWuS4XEaedGKLYbO9iZeZUkwl2Lvh076ARW+uTM+W07gRRPxboMvYaxu0R3YHdLt4dUfNBuCLsyMe++X32otL+elY8dty6F1kxIl844jglcrkpkhkR9wneepoIAN7NDiwqiUXyKAMhzzIIK8rjlpFYJI9bRlxRs9aVZxkYa1wGWAG0QoFuketyEXHaiSGKzfYuVmZONZlg54JP9w4asbU+OVNO604Q9WOBLmOvYdwe0R3Y7ep+VU0ETAm8iJEf//BH2h/QiseO2/IizYYc0fUiakTgRbJ3Z8yIWJgRsXDnVWFEbA4uxuKmnibCZ70D4N3swKKSWCSPMhDyLIOwojxuGYlF8rhlxBU1a115loGxxmWAFUArFOgWuS4XEaedGKLYbO9iZeZUkwl2Lvh076ARW+uTM+W07gRRPxboMvYaxu0R3YFZV/eJI/AcSgg4knriyBPFG/cizYMc0TzIEV0jQi/SNSL0It1jIrgpgrdmzIhYF67E4hqfJvI0335n0POqAHg3O7CoJBbJowyEPMsgrCiPW0ZikTxuGXFFzVpXnmVgrHEZYAXQCgW6Ra7LRcRpJ4YoNtu7WJk51WSCnQs+3TtoxNb65Ew5rTtB1I8Fuoy9hnF7RHfgoEvtiDMf0ZSAXJ44UvEE8Wa9iEXzIEc0D3LEwIhcTqvm51V5U8S8iHt3BjdF8O6MVWw+ruTWniZiv/b4zQch72YHFpXEInmUgZBnGYQV5XHLSCySxy0jrqhZ68qzDIw1LgOsAFqhQLfIdbmIOO3EEMVmexcrM6eaTLBzwad7B43YWp+cKad1J4j6sUCXsdcwbo/oDhx3xSeORBdCWMVQTxx5inizXqR5kCOaBzliYETgRWBEul5ET4o4I4KbIq/jmMjTPE3kY8fTRAD7DXe8mx1YVBKL5FEGQp5lEFaUxy0jsUget4y4omatK88yMNa4DLACaIUC3SLX5SLitBNDFJvtXazMnGoywc4Fn+4dNGJrfXKmnNadIOrHAl3GXsO4PaI7cNylB0ei+SB0y3g9ceTR43V7Eec/lDcbckSzIUc8ihHpfogX787YHFyDxa196Yz9zgP2G+54NzuwqCQWyaMMhDzLIKwoj1tGYpE8bhlxRc1aV55lYKxxGWAF0AoFukWuy0XEaSeGKDbbu1iZOdVkgp0LPt07aMTW+uRMOa07QdSPBbqMvYZxe0R34LRrfHAkAlufryeOPGq8QS9iuXmQI5oHOeK4J3Lm3ZnpHRG8O2ONuBiLW3uaiP1K2+88EHk3O7CoJBbJowyEPMsgrCiPW0ZikTxuGXFFzVpXnmVgrHEZYAXQCgW6Ra7LRcRpJ4YoNtu7WJk51WSCnQs+3TtoxNb65Ew5rTtB1I8Fuoy9hnF7RHfgtMvwgQXzoQLj9cSRx4235kUQzYacOq9qMb4jYkYk3hExI2JFm4+LucGnidjvs2Ug8m52YFFJLJJHGQh5lkFYUR63jMQiedwy4oqata48y8BY4zLACqAVCnSLXJeLiNNODFFstnexMnOqyQQ7F3y6d9CIrfXJmXJad4KoHwt0GXsN4/aI7sBpFzA4OKKcvsRwOThy9wJUsRmv0ouY2yABB2kGREJdCKJrROK7M2ZELMyIWJgRsTAjojdFaERezTGR4CEeBXyaCDIQeTc7sKgkFsmjDIQ8yyCsKI9bRmKRPG4ZcUXNWleeZWCscRlgBdAKBbpFrstFxGknhig227tYmTnVZIKdCz7dO2jE1vrkTDmtO0HUjwW6jL2GcXtEd+C0C/jgzHxgSaBSTxx5rHg7XqS5j7uAC7GABbHI7ojAiMCLDN6d+dUjYEQ+e/9reP0xkfd+o3MGz4wXeZoIMhB5NzuwqCQWyaMMhDzLIKwoj1tGYpE8bhlxRc1aV55lYKxxGWAF0AoFukWuy0XEaSeGKDbbu1iZOdVkgp0LPt07aMTW+uRMOa07QdSPBbqMvYZxe0R34LQLMJl+VU2EcycghnriyKPELXqRaET0jgiNiMXgvCqNyDvvvGNduB6Lq3iayP0P8T7P00SQgci72YFFJbFIHmUg5FkGYUV53DISi+Rxy4grata68iwDY43LACuAVijQLXJdLiJOOzFEsdnexcrMqSYT7Fzw6d5BI7bWJ2fKad0Jon4s0GXsNYzbI7oDp10AZN0njpAoULRcB0ceJd6mF2k25AhnRMZexIxIvCmiRoRHVvnujFVsPq7nGp8m8pTHRPgLzAxE3s0OLCqJRfIoAyHPMggryuOWkVgkj1tGXFGz1pVnGRhrXAZYAbRCgW6R63IRcdqJIYrN9i5WZk41mWDngk/3DhqxtT45U07rThD1Y4EuY69h3B7RHTjtAih7f2I+HNSpXL6qpmIv3oIXQTQbckSzIQ88r4qbIhZjI1LHRAzfexwT4S8wMxB5NzuwqCQWyaMMhDzLIKwoj1tGYpE8bhlxRc1aV55lYKxxGWAF0AoFukWuy0XEaSeGKDbbu1iZOdVkgp0LPt07aMTW+uRMOa07QdSPBbqMvYZxe0R34LQLoGz6VTXqQpANn6gnjuzFK/Mi5jmYQRDNgxzRbMgRXS8CI9J9d8YCN0XMiFjwQ7wWZkQs3LszNgdXYnGDXzrDX2BmIPJudmBRSSySRxkIeZZBWFEet4zEInncMuKKmrWuPMvAWOMywAqgFQp0i1yXi4jTTgxRbLZ3sTJzqskEOxd8unfQiK31yZlyWneCqB8LdBl7DeP2iO7AaRegsuzgCF1IhG3VE0d24i14keZBjmge5IiuEYlexIwIvQjfnfmNI9wxEdwU6R8TubGnibjfc2Yg8m52YFFJLJJHGQh5lkFYUR63jMQiedwy4oqata48y8BY4zLACqAVCnSLXJeLiNNODFFstnexMnOqyQQ7F3y6d9CIrfXJmXJad4KoHwt0GXsN4/aI7sBpF+BkODiSmQ/WlVy+qubutaniofEKvAich8sWzX1IqAVBdI2IuRCL7I4I3p1x51VxRwQ3ReppIvZL637PmbnleDc7sKgkFsmjDIQ8yyCsKI9bRmKRPG4ZcUXNWleeZWCscRlgBdAKBbpFrstFxGknhig227tYmTnVZIKdCz7dO2jE1vrkTDmtO0HUjwW6jL2GcXtEd+C0C4gyfeKIMx9cElYx1BNHTsdr9SLNfUgsGpHBHRELMyK4KdI9r6o3RWz+5eKOePHzqr/78R9ql3LE5773v3UG4rHAp4m433NmbjnezQ4sKolF8igDIc8yCCvK45aRWCSPW0ZcUbPWlWcZGGtcBlgBtEKBbpHrchFx2okhis32LlZmTjWZYOeCT/cOGrG1PjlTTutOEPVjgS5jr2HcHtEdOO0Comx8a8SgW+CW64kj5+LNepGxEaEXUSPijonouzMwIrwpYnMuV3bEVTxN5PjPgvitv/sjT/QhXnzpjP2K2i+t+z1n5pbj3ezAopJYJI8yEPIsg7CiPG4ZiUXyuGXEFTVrXXmWgbHGZYAVQCsU6Ba5LhcRp50Yoths72Jl5lSTCXYu+HTvoBFb65Mz5bTuBFE/Fugy9hrG7RHdgdMuoCsb2BFX5NJIHRw5EW/EizgjYtH1Irwj4oyIuRC8O/Mb8qUzFsdx1faI1U8fYUbEGi+XdcRVHBN5xqeJ4PfTfmnd7zkztxzvZgcWlcQieZSBkGcZhBXlcctILJLHLSOuqFnryrMMjDUuA6wAWqFAt8h1uYg47cQQxWZ7Fyszp5pMsHPBp3sHjdhan5wpp3UniPqxQJex1zBuj+gOnHYBmWz8ADQF7IjleuLIiXgLXmTRiKgXoRGhFzEj0r0jYsE7IhY3e0zku+6+dMZgxP2eM3PL8W52YFFJLJJHGQh5lkFYUR63jMQiedwy4oqata48y8BY4zLACqAVCnSLXJeLiNNODFFstnexMnOqyQQ7F3y6d9CIrfXJmXJad4KoHwt0GXsN4/aI7sBpF5DJrN49OKJci8Dl4EjFQ+LavYjZDvoPLi2aDTmi60UyI6Je5Hhnpt0UMSOCYyK4KaLHRPRDvDb8uK5LXNvTRJ7hmAh/OZVr5pbj3ezAopJYJI8yEPIsg7CiPG4ZiUXyuGXEFTVrXXmWgbHGZYAVQCsU6Ba5LhcRp50Yoths72Jl5lSTCXYu+HTvoBFb65Mz5bTuBFE/Fugy9hrG7RHdgdMuIJNZnU8ciZ7DAQLLhh+vJ448JK7aizTfEbxI8yB3LgRBFzK+I6I3RWhEcFOER1az86o257iuS1zb00Qux0Se7GkiPCbCX07lmrnleDc7sKgkFsmjDIQ8yyCsKI9bRmKRPG4ZcUXNWleeZWCscRlgBdAKBbpFrstFxGknhig227tYmTnVZIKdCz7dO2jE1vrkTDmtO0HUjwW6jL2GcXtEd+C0C8hkqOuz4ek5uoTcch0cWY/X50WaDTmi2ZAjnBdxRoRexIyI8yI0Ir9+fAEe351x51Wt5bioS9za00T0dxJEuWZuOd7NDiwqiUXyKAMhzzIIK8rjlpFYJI9bRlxRs9aVZxkYa1wGWAG0QoFuketyEXHaiSGKzfYuVmZONZlg54JP9w4asbU+OVNO604Q9WOBLmOvYdwe0R047QIyGes4ONI1H12Y4HJw5HjlqpjGa/IiFs2DHNE8yBHOiExvilhEIzJ4d+baj4l8wzc5A/FYcMdESFyRmVuOd7MDi0pikTzKQMizDMKK8rhlJBbJ45YRV9SsdeVZBsYalwFWAK1QoFvkulxEnHZiiGKzvYuVmVNNJti54NO9g0ZsrU/OlNO6E0T9WKDL2GsYt0d0B067gEym9an/IKisgyOLcaVeRP2HBXmzIaeMiN4RscjuiEQj4r905gqfJvLVX+c8xKPgY1/5++z3MP5KxyIztxzvZgcWlcQieZSBkGcZhBXlcctILJLHLSOuqFnryrMMjDUuA6wAWqFAt8h1uYg47cQQxWZ7Fyszp5pMsHPBp3sHjdhan5wpp3UniPqxQJex1zBuj+gOnHYBmUzrg6+qGdwvqYMjK/E6vAii2ZAjmg05outF1IjQi+COCN+dcXdELLrnVW0OrsriKo6JyE2/p36aiP0exl/pWGTmluPd7MCiklgkjzIQ8iyDsKI8bhmJRfK4ZcQVNWtdeZaBscZlgBVAKxToFrkuFxGnnRii2GzvYmXmVJMJdi74dO+gEVvrkzPltO4EUT8W6DL2GsbtEd2B0y4gk7m6OzhigPnIbplY3fCbdXBkFlfnRcxzaLZo7kNCLQjCGRF6EbgQGhHcEeG7MzQi7qaIPk3Euo7rusQNHhOx38P4Kx2LzNxyvJsdWFQSi+RRBkKeZRBWlMctI7FIHreMuKJmrSvPMjDWuAywAmiFAt0i1+Ui4rQTQxSb7V2szJxqMsHOBZ/uHTRia31yppzWnSDqxwJdxl7DuD2iO3DaBWSyWI9PHOkaES3WE0emcUVehP5Ds0UzIHexaEQup1Xl3ZloRH6zvnQmx5//8q/Cb539HsZf6Vhk5pbj3ezAopJYJI8yEPIsg7CiPG4ZiUXyuGXEFTVrXXmWgbHGZYAVQCsU6Ba5LhcRp50Yoths72Jl5lSTCXYu+HTvoBFb65Mz5bTuBFE/Fugy9hrG7RHdgdMuIJN16/rEEUP0IqyAWK6DI+N4ZV4ERsQCLsSia0TgReJNERoR3BSJd0TMiOiHeG3+5cqOuKmnieivsfKsyMwtx7vZgUUlsUgeZSDkWQZhRXncMhKL5HHLiCtq1rryLANjjcsAK4BWKNAtcl0uIk47MUSx2d7FysypJhPsXPDp3kEjttYnZ8pp3QmifizQZew1jNsjugOnXUAm69bjwZFoRwyuWAdHBvG6vcjUiJgLcUZkcFME787wpojNuVzWEbf2NBH9NVaeFZm55Xg3O7CoJBbJowyEPMsgrCiPW0ZikTxuGXFFzVpXnmVgrHEZYAXQCgW6Ra7LRcRpJ4YoNtu7WJk51WSCnQs+3TtoxNb65Ew5rTtB1I8Fuoy9hnF7RHfgtAvIZFm9+2x4Zz7i8vPvvNv+iFfcj2v3Is2DHNFsyBEDLwIjQi9CI8KbItl5Vb0jYo2Xazri1973bc4ZPDOe+ZiI/e7pr7HyrMjMLce72YFFJbFIHmUg5FkGYUV53DISi+Rxy4grata68iwDY43LACuAVijQLXJdLiJOOzFEsdnexcrMqSYT7Fzw6d5BI7bWJ2fKad0Jon4s0GXsNYzbI7oDp11AJhvUB19VQxfiyHfXE0eSuF4vYtE8yBHNgxwxMCIWNCLwIpdDIvePiXQ/xIs7IvAi/pjIS3+I13373dM9TQTHROx3jL9+jmdFZm453s0OLCqJRfIoAyHPMggryuOWkVgkj1tGXFGz1pVnGRhrXAZYAbRCgW6R63IRcdqJIYrN9i5WZk41mWDngk/3DhqxtT45U07rThD1Y4EuY69h3B7RHTjtAjLZuO7ufBhiRWG7dXCkG1fhReg/NFs0G3JEsyFHDIzI4JiIhfsQrx4T0Q/x0ohY3NrTRPA7xl8/x7MiM7cc72YHFpXEInmUgZBnGYQV5XHLSCySxy0jrqhZ68qzDIw1LgOsAFqhQLfIdbmIOO3EEMVmexcrM6eaTLBzwad7B43YWp+cKad1J4j6sUCXsdcwbo/oDpx2AZlsXP/gzHxEmL4OjsR4YS9C5xFz8yAPuSPijIjzIvruzK++oi+dOf6DIJ7nmIhl/vo5nhWZueV4NzuwqCQWyaMMhDzLIKwoj1tGYpE8bhlxRc1aV55lYKxxGWAF0AoFukWuy0XEaSeGKDbbu1iZOdVkgp0LPt07aMTW+uRMOa07QdSPBbqMvYZxe0R34LQLyGTjumU+cYSmJBIFivVVNS5ezIsMXIhFsyFHNBtyBL3I1IiYC3FGZOXdGWuxa0Dc1NNEPiTHREgiz4rM3HK8mx1YVBKL5FEGQp5lEFaUxy0jsUget4y4omatK88yMNa4DLACaIUC3SLX5SLitBNDFJvtXazMnGoywc4Fn+4dNGJrfXKmnNadIOrHAl3GXsO4PaI7cNoFZLJxHXlwcCRDPXHExTV6keZBjmge5AgakUUv0jUig3dn/DGRW3qaiP1GAfjtAok8KzJzy/FudmBRSSySRxkIeZZBWFEet4zEInncMuKKmrWuPMvAWOMywAqgFQp0i1yXi4jTTgxRbLZ3sTJzqskEOxd8unfQiK31yZlyWneCqB8LdBl7DeP2iO7AaReQycZ17nZvgRDY1fslhsvBkeNVr8LiWrwIohmQu1ALgsiMiLkQGpHjhsjFiFjQiPCtmeyOiP/SmVt6mgh+owBy/II5nhWZueV4NzuwqCQWyaMMhDzLIKwoj1tGYpE8bhlxRc1aV55lYKxxGWAF0AoFukWuy0XEaSeGKDbbu1iZOdVkgp0LPt07aMTW+uRMOa07QdSPBbqMvYZxe0R34LQLyGTjOnfdE0ecNXFLVn78wx9pf+JvPl7Ai5jniNmiGRCJgRdRI5LdEbHgHREzIrgjYtE9r2pzLhd3xK09TQS/UQA5fsEcz4rM3HK8mx1YVBKL5FEGQp5lEFaUxy0jsUget4y4omatK88yMNa4DLACaIUC3SLX5SLitBNDFJvtXazMnGoywc4Fn+4dNGJrfXKmnNadIOrHAl3GXsO4PaI7cNoFZLJxXXfH79REO2KwYj1xBHG9XgRGxKLZkOSmCIwIvIgzIvG8Km6KmBHBTREaEeu6XNkRV/E0kfsf4n2ib78zuPOqyvHb5XhWZOaW493swKKSWCSPMhDyLIOwojxuGYlF8rhlxBU1a115loGxxmWAFUArFOgWuS4XEaedGKLYbO9iZeZUkwl2Lvh076ARW+uTM+W07gRRPxboMvYaxu0R3YHTLiCTjetuV+1IZj5c5fLEkYqr9SLNhhzRNSLHDZGLEeFNEXdGZPzuzOiYyO09TQQZIMevluNZkZlbjnezA4tKYpE8ykDIswzCivK4ZSQWyeOWEVfUrHXlWQbGGpcBVgCtUKBb5LpcRJx2Yohis72LlZlTTSbYueDTvYNGbK1PzpTTuhNE/Vigy9hrGLdHdAdOu4BMNq67XVt2LQjALSPKP1ZPHLkeL9I8yBHNgxzRNSLqRWBEohcxI4KbIl0jojdFaEQsrvGYyNM/TQQZIOevlvKsyMwtx7vZgUUlsUgeZSDkWQZhRXncMhKL5HHLiCtq1rryLANjjcsAK4BWKNAtcl0uIk47MUSx2d7FysypJhPsXPDp3kEjttYnZ8pp3QmifizQZew1jNsjugOnXUAmG9fdri31iSMkili0Sj1x5Kq9yNSIPPSmCI3IZ67yS2c+/53/VbuUI57taSLIADl/tZRnRWZuOd7NDiwqiUXyKAMhzzIIK8rjlpFYJI9bRlxRs9aVZxkYa1wGWAG0QoFuketyEXHaiSGKzfYuVmZONZlg54JP9w4asbU+OVNO604Q9WOBLmOvYdwe0R047QIy2bjudm1p4BNHxnCW5cafOPKsXqTrQiyaBzmi2ZAjBl4kGhGLyyEROSaiN0W6d0Ss8XJZR9zU00T0S2eYtQISeVZk5pbj3ezAopJYJI8yEPIsg7CiPG4ZiUXyuGXEFTVrXXmWgbHGZYAVQCsU6Ba5LhcRp50Yoths72Jl5lSTCXYu+HTvoBFb65Mz5bTuBFE/Fugy9hrG7RHdgdMuIJON627XlqiMvzkvEsONHxx5eS/SPMgRzYMcMTAi9CLHmzOdd2f4NJF4XhV3RCz8MZFbepqI/s4wawUk8qzIzC3Hu9mBRSWxSB5lIORZBmFFedwyEovkccuIK2rWuvIsA2ONywArgFYo0C1yXS4iTjsxRLHZ3sXKzKkmE+xc8OneQSO21idnymndCaJ+LNBl7DWM2yO6A6ddQCYb192uLVlRn6F8gFt+4sgzeZGuC7FoHuSI5kGOWDEivCliYUbE4nhz5vKlM3x3Jjuv+gqOiQQP8SiIXzqjS+VGIs+KzNxyvJsdWFQSi+RRBkKeZRBWlMctI7FIHreMuKJmrSvPMjDWuAywAmiFAt0i1+Ui4rQTQxSb7V2szJxqMsHOBZ/uHTRia31yppzWnSDqxwJdxl7DuD2iO3DaBWSycd3t2pKVxXdqAJgVy5+41SeOXIsXaR7kiAcZEdwRsfhteZoIj4lk51VtzuWyjvjse7/ROYNnxhc++rF2KUdcjok8zYd4u186o0vlRiLPiszccrybHVhUEovkUQZCnmUQVpTHLSOxSB63jLiiZq0rzzIw1rgMsAJohQLdItflIuK0E0MUm+1drMycajLBzgWf7h00Ymt9cqac1p0g6scCXcZew7g9ojtw2gVksnHd7dpSK7Aj3Zsirsilkdt84shLepFmQ45oNuQIepEHGRG+OzM9r2pdl2s64gafJsJfIRIulRuJPCsyc8vxbnZgUUkskkcZCHmWQVhRHreMxCJ53DLiipq1rjzLwFjjMsAKoBUKdItcl4uI004MUWy2d7Eyc6rJBDsXfLp30Iit9cmZclp3gqgfC3QZew3j9ojuwGkXkMnGdbdrS60YHx8cUbB4m19V8zJexKJ5kCOaBzmCRiTzImZELI53ZtpbM+6YiBqRV/A0kZf+0hldKjcSeVZk5pbj3ezAopJYJI8yEPIsg7CiPG4ZiUXyuGXEFTVrXXmWgbHGZYAVQCsU6Ba5LhcRp50Yoths72Jl5lSTCXYu+HTvoBFb65Mz5bTuBFE/Fugy9hrG7RHdgdMuIJON627XlloBN5MxMB/drRt84siTexH6D80WzYacPa/6hSPGd0TMiOgdEYub/dKZ782/dEaXyo1EnhWZueV4NzuwqCQWyaMMhDzLIKwoj1tGYpE8bhlxRc1aV55lYKxxGWAF0AoFukWuy0XEaSeGKDbbu1iZOdVkgp0LPt07aMTW+uRMOa07QdSPBbqMvYZxe0R34LQLyGTjutu1pVbA3VfVENGFsGLk1p448rReBLYDhEuLZkOOaDbkzohY0ItEIxLfnbmcVg3nVS3MiMCL6HlVm3Nc1yVe/GkiX/grf7VdyhEv9aUzulRuJPKsyMwtx7vZgUUlsUgeZSDkWQZhRXncMhKL5HHLiCtq1rryLANjjcsAK4BWKNAtcl0uIk47MUSx2d7FysypJhPsXPDp3kEjttYnZ8pp3QmifizQZew1jNsjugOnXUAmG9fdri21Qu7OsarnYJFg8aaeOPKEXqT5jvyOiEWzIffviFjwpkg0IvAiMCKDd2c+e4SeVzX7clzXJW7waSL4xeCvipJsK/KsyMwtx7vZgUUlsUgeZSDkWQZhRXncMhKL5HHLiCtq1rryLANjjcsAK4BWKNAtcl0uIk47MUSx2d7FysypJhPsXPDp3kEjttYnZ8pp3QmifizQZew1jNsjugOnXUAmG9fdri21Qm4EB0e65iPD5eDI8dJ5C/HcXqR5kLtQI2LRnMjdTZFoRI5TIvOnifyKHBOBEbGKzT+u67aeJvJdd8dE8PvgOH9bsFRuJPKsyMwtx7vZgUUlsUgeZSDkWQZhRXncMhKL5HHLiCtq1rryLANjjcsAK4BWKNAtcl0uIk47MUSx2d7FysypJhPsXPDp3kEjttYnZ8pp3QmifizQZew1jNsjugOnXUAmG9fdri21Qg6ybkSovJ0njjyfF7FoBkRCvUizIUc4L3I5rSrvzliYEbFQI8KbIjQi+tkZGhGLFz+v+rsf/6F2KUc8zzEREuX8JcFSuZHIsyIztxzvZgcWlcQieZSBkGcZhBXlcctILJLHLSOuqFnryrMMjDUuA6wAWqFAt8h1uYg47cQQxWZ7Fyszp5pMsHPBp3sHjdhan5wpp3UniPqxQJex1zBuj+gOnHYBmWxcd7u21Ao5CA6OjN+XibiRJ448iRdR/2FB3gyIRHZThF5Eb4rQi0zfnaER+fSnP+2PidzS00Q+JMdESJTzlwRL5UYiz4rM3HK8mx1YVBKL5FEGQp5lEFaUxy0jsUget4y4omatK88yMNa4DLACaIUC3SLX5SLitBNDFJvtXazMnGoywc4Fn+4dNGJrfXKmnNadIOrHAl3GXsO4PaI7cNoFZLJx3e3aUivkJN2P+E7xmzdwcOTxvQhsB4kFeHMfEnpTxIJGxFxINCLHmzMdI/LrR/COiAWMiLkQGBHrOq7rEldxTMQ9TeS5jomQxGK2FXlWZOaW493swKKSWCSPMhDyLIOwojxuGYlF8rhlxBU1a115loGxxmWAFUArFOgWuS4XEaedGKLYbO9iZeZUkwl2Lvh076ARW+uTM+W07gRRPxboMvYaxu0R3YHTLiCTjetu15ZaIddiZkd4awRE75TcwhNHnsOLWDT3IeGMiIV6kct7M713Z7rHRPDZGR4T0Q/xWtEm48Ju7Utn+FvhSCxmW5FnRWZuOd7NDiwqiUXyKAMhzzIIK8rjlpFYJI9bRlxRs9aVZxkYa1wGWAG0QoFuketyEXHaiSGKzfYuVmZONZlg54JP9w4asbU+OVNO604Q9WOBLmOvYdwe0R047QIy2bjudm2pFXIni27DIW69+SeOPIcXae5DwhkRuBCLrhE5boiMjMiv3n/WO9+asbDhuCqLm/rSGfzrxy+AI7GYbUWeFZm55Xg3O7CoJBbJowyEPMsgrCiPW0ZikTxuGXFFzVpXnmVgrHEZYAXQCgW6Ra7LRcRpJ4YoNtu7WJk51WSCnQs+3TtoxNb65Ew5rTtB1I8Fuoy9hnF7RHfgtAvIZOO627WlVsidLH5VTdeXOMvytp848gJexBkRCzUi8CLHmzNffHfGjIjzImZELPSYCN+d6R8TudWniUQSi9lW5FmRmVuOd7MDi0pikTzKQMizDMKK8rhlJBbJ45YRV9SsdeVZBsYalwFWAK1QoFvkulxEnHZiiGKzvYuVmVNNJti54NO9g0ZsrU/OlNO6E0T9WKDL2GsYt0d0B067gEw2rrtdW2qFPMpWvjmPLoTkDT9x5JG9SHMfD/EiNCK8KUIjol5k/d0ZMyLvvvuuteCSLG7taSL8545fAEdiMduKPCsyc8vxbnZgUUkskkcZCHmWQVhRHreMxCJ53DLiipq1rjzLwFjjMsAKoBUKdItcl4uI004MUWy2d7Eyc6rJBDsXfLp30Iit9cmZclp3gqgfC3QZew3j9ojuwGkXkMnGdbdrS62QR5lld3BEb41EFwJ899t94shjepFmPY7QZfMgR8CIWKgRseh6ETMiFgMj4j47QyNy7cdEvuGbnIF4LOBpIvznDu5ILGZbkWdFZm453s0OLCqJRfIoAyHPMggryuOWkVgkj1tGXFGz1pVnGRhrXAZYAbRCgW6R63IRcdqJIYrN9i5WZk41mWDngk/3DhqxtT45U07rThD1Y4EuY69h3B7RHTjtAjLZuO52bakV8igDiZ7DmY+IyxNH3mI8qxdpNuQI9SKZETkOivibIpkRwWdnzIj4L525wqeJfPXXOQ/xKPjYV/4+/U0gdyQWs63IsyIztxzvZgcWlcQieZSBkGcZhBXlcctILJLHLSOuqFnryrMMjDUuA6wAWqFAt8h1uYg47cQQxWZ7Fyszp5pMsHPBp3sHjdhan5wpp3UniPqxQJex1zBuj+gOnHYBmWxcd7u21Ap5lIEM3qkZuJNPvMWDI0/uRZoNOaLZkCPoRWhE6EWON2f8uzMWuCliRsTCjIiFGhF8duYVHBN5sqeJ4EO8+q8f3JFYzLYiz4rM3HK8mx1YVBKL5FEGQp5lEFaUxy0jsUget4y4omatK88yMNa4DLACaIUC3SLX5SLitBNDFJvtXazMnGoywc4Fn+4dNGJrfXKmnNadIOrHAl3GXsO4PaI7cNoFZLJx3e3aUivkUUZOOzK+NeKKb+/gyNN6keZBFu6I0IjoTRG9I8I3aHBT5J8d4T47Y17EunAxFjd4TER/E8gdicVsK/KsyMwtx7vZgUUlsUgeZSDkWQZhRXncMhKL5HHLiCtq1rryLANjjcsAK4BWKNAtcl0uIk47MUSx2d7FysypJhPsXPDp3kEjttYnZ8pp3QmifizQZew1jNsjugOnXUAmG9fdri21Qh5lulw5x+rw9p448vJehEYEXgRGJHoRnhQZvDtz7cdEnvhpIvgnrv/6XREkFrOtyLMiM7cc72YHFpXEInmUgZBnGYQV5XHLSCySxy0jrqhZ68qzDIw1LgOsAFqhQLfIdbmIOO3EEMVmexcrM6eaTLBzwad7B43YWp+cKad1J4j6sUCXsdcwbo/oDpx2AZlsXHe7ttQKeZTp0tC9F0Jg1904eWMHR57Vi8CFWNCIjL2IGRELNSJ4dwZGRD/Ei3dn7EfgSixu6mki/AUgUe5ILGZbkWdFZm453s0OLCqJRfIoAyHPMggryuOWkVgkj1tGXFGz1pVnGRhrXAZYAbRCgW6R63IRcdqJIYrN9i5WZk41mWDngk/3DhqxtT45U07rThD1Y4EuY69h3B7RHTjtAjLZuO52bakV8ijTpQFfVeMwMCjYektPHHkBLzI1IuZCspsi9CJmROBF+O6MTcBlWNzU00Q+JMdESJQ7EovZVuRZkZlbjnezA4tKYpE8ykDIswzCivK4ZSQWyeOWEVfUrHXlWQbGGpcBVgCtUKBb5LpcRJx2Yohis72LlZlTTSbYueDTvYNGbK1PzpTTuhNE/Vigy9hrGLdHdAdOu4BMNq67XVtqhTzKdAnwI75dC5IVf/Odd9vLzCuPR/MisCAMVJoTWfAil3Mi90+KWNCImAux+LUj9N2Z/jGR932bcwbPjGc+JoJ//fjHTaLckVjMtiLPiszccrybHVhUEovkUQZCnmUQVpTHLSOxSB63jLiiZq0rzzIw1rgMsAJohQLdItflIuK0E0MUm+1drMycajLBzgWf7h00Ymt9cqac1p0g6scCXcZew7g9ojtw2gVksnHd7dpSK+RRpkti+s15zpHY8nJw5HjBfe3xOF4E/kMDRTUiFl0vctwTaTdFLI57Iu3dGXgR3hGJJ0Xw7oxVbDiu5HJM5KU/xOu+/e5JnyZi/3zxrx//uEmUOxKL2VbkWZGZW453swOLSmKRPMpAyLMMworyuGUkFsnjlhFX1Kx15VkGxhqXAVYArVCgW+S6XEScdmKIYrO9i5WZU00m2Lng072DRmytT86U07oTRP1YoMvYaxi3R3QHTruATDauu11baoU8ynRJWL17/wPQLXIjb+Orap7Ki1jAiFjAiFhMvQhvirh3Z5wR4UmRTx/PereZ7Tpu72ki+OcLkPOftSuCxGK2FXlWZOaW493swKKSWCSPMhDyLIOwojxuGYlF8rhlxBU1a115loGxxmWAFUArFOgWuS4XEaedGKLYbO9iZeZUkwl2Lvh076ARW+uTM+W07gRRPxboMvYaxu0R3YHTLiCTjetu15ZaIY8yXRJW/477PgNE0S2+gYMjT+VFmg05gi4EoUYEXoQ3RZwXMSOCN2icEfmsfBmvtbeLuL0vncE/aMsAOf9ZuyJILGZbkWdFZm453s0OLCqJRfIoAyHPMggryuOWkVgkj1tGXFGz1pVnGRhrXAZYAbRCgW6R63IRcdqJIYrN9i5WZk41mWDngk/3DhqxtT45U07rThD1Y4EuY69h3B7RHTjtAjLZuO52bakV8ijTJYH6+CO+0amA/OYrf+LIi3kRGhF6keymiPMifHfGwvTtCm7vaSL2rxb/cEGU85+1K4LEYrYVeVZk5pbj3ezAopJYJI8yEPIsg7CiPG4ZiUXyuGXEFTVrXXmWgbHGZYAVQCsU6Ba5LhcRp50Yoths72Jl5lSTCXYu+HTvoBFb65Mz5bTuBFE/Fugy9hrG7RHdgdMuIJON627XllohjzJdEqhb7h4ciS5EcfmqmtccL+9FzIiMvQjfoOFNEXgRq9hkXMANPk0EwD9cx/nP2hVBYjHbijwrMnPL8W52YFFJLJJHGQh5lkFYUR63jMQiedwy4oqata48y8BY4zLACqAVCnSLXJeLiNNODFFstnexMnOqyQQ7F3y6d9CIrfXJmXJad4KoHwt0GXsN4/aI7sBpF5DJxnW3a0utkEeZLgnUkdVwdM1HxOXgyKs9x/qsXuRyTqT3Bg28iBkRCzMiFmZELNxNERoRnBShEbG4waeJAPiH67gR5Y7EYrYVeVZk5pbj3ezAopJYJI8yEPIsg7CiPG4ZiUXyuGXEFTVrXXmWgbHGZYAVQCsU6Ba5LhcRp50Yoths72Jl5lSTCXYu+HTvoBFb65Mz5bTuBFE/Fugy9hrG7RHdgdMuIJON627XllohjzJdEqgjd584kgFmxfInPvyR9iL02uIlvcjx/szSGzTxpIg1tp/9r/7VZ9/7jc4ZPDO+8NGPtUs54hmOiRD4h+u4EeWOxGK2FXlWZOaW493swKKSWCSPMhDyLIOwojxuGYlF8rhlxBU1a115loGxxmWAFUArFOgWuS4XEaedGKLYbO9iZeZUkwl2Lvh076ARW+uTM+W07gRRPxboMvYaxu0R3YHTLiCTjetu15ZaIY8yXRKoc/eDckdk8daI4Tdf5xNHHt+LNANyhLkQZ0Qs3E0RMyKZF8FHeeO7MyZuP/hKniZy/0O8T/TtdwY+1ozAP1zH8e84FkFiMduKPCsyc8vxbnZgUUkskkcZCHmWQVhRHreMxCJ53DLiipq1rjzLwFjjMsAKoBUKdItcl4uI004MUWy2d7Eyc6rJBDsXfLp30Iit9cmZclp3gqgfC3QZew3j9ojuwGkXkMnGdbdrS62QR5kuCdR1d3xwRMHiK/2qml0vYuYDmdFsyBH0Is2GHPGgmyLRi/hjIjfzNBE9JkLgH67j+EcciyCxmG1FnhWZueV4NzuwqCQWyaMMhDzLIKwoj1tGYpE8bhlxRc1aV55lYKxxGWAF0AoFukWuy0XEaSeGKDbbu1iZOdVkgp0LPt07aMTW+uRMOa07QdSPBbqMvYZxe0R34LQLyGTjutu1pVbIo0yXBOpud3xHxO1i+RqfOHLVXsSdWsVJERoRi2s8JvI0TxP53q/8ffg36qBFcvwLjkWQWMy2Is+KzNxyvJsdWFQSi+RRBkKeZRBWlMctI7FIHreMuKJmrSvPMjDWuAywAmiFAt0i1+Ui4rQTQxSb7V2szJxqMsHOBZ/uHTRia31yppzWnSDqxwJdxl7DuD2iO3DaBWSycd3t2lIr5FGmSwJ1t7v+Lb70JUZe3RNHntWLXM6JhDdozIhEL8KTIjgswpMi1oWfa3FrTxPBv1EHLZLjX3AsgsRithV5VmTmluPd7MCiklgkjzIQ8iyDsKI8bhmJRfK4ZcQVNWtdeZaBscZlgBVAKxToFrkuFxGnnRii2GzvYmXmVJMJdi74dO+gEVvrkzPltO4EUT8W6DL2GsbtEd2B0y4gk43rbteWWiGPMl0SqEfxB+7f/1DPwSLB4ut64si1eJHuSRHeFMG7MybGD7W4waeJ4B+lgxbJ+S/YFUFiMduKPCsyc8vxbnZgUUkskkcZCHmWQVhRHreMxCJ53DLiipq1rjzLwFjjMsAKoBUKdItcl4uI004MUWy2d7Eyc6rJBDsXfLp30Iit9cmZclp3gqgfC3QZew3j9ojuwGkXkMnGdbdrS62QR5kuCdSj2DD9qpqI1/XEkS0vAvNBgmg25M6IWEQvcnl7JnmDxp0UwU0RMyLmS2wUfu6tPU2E/zrxj1KhRXIjyh2JxWwr8qzIzC3Hu9mBRSWxSB5lIORZBmFFedwyEovkccuIK2rWuvIsA2ONywArgFYo0C1yXS4iTjsxRLHZ3sXKzKkmE+xc8OneQSO21idnymndCaJ+LNBl7DWM2yO6A6ddQCYb192uLbVCHmW6JFCPYlS6d0EU8X7JX309Txw570Wa9Ui8CFwIoutFzIjAi5gRschOitCL2Bz8XIvbeZrI98qXzvAfpUKL+q9WuSOxmG1FnhWZueV4NzuwqCQWyaMMhDzLIKwoj1tGYpE8bhlxRc1aV55lYKxxGWAF0AoFukWuy0XEaSeGKDbbu1iZOdVkgp0LPt07aMTW+uRMOa07QdSPBbqMvYZxe0R34LQLyGTjutu1pVbIo0yXBOpRjAqeODJ+XybitTxx5JG9CIyIBVyIhRmRzIvwpsjUi1gXfqjFNT5N5Gk+xOu+dIb/KBVa1H+1yh2JxWwr8qzIzC3Hu9mBRSWxSB5lIORZBmFFedwyEovkccuIK2rWuvIsA2ONywArgFYo0C1yXS4iTjsxRLHZ3sXKzKkmE+xc8OneQSO21idnymndCaJ+LNBl7DWM2yO6A6ddQCYb192uLbVCHmW6JFCPYlZOvFNjeBUHRx7TizQbcsTYiDgvEk+twovgEWemxE+0uKmnibgvneE/SoUWyY0odyQWs63IsyIztxzvZgcWlcQieZSBkGcZhBXlcctILJLHLSOuqFnryrMMjDUuA6wAWqFAt8h1uYg47cQQxWZ7Fyszp5pMsHPBp3sHjdhan5wpp3UniPqxQJex1zBuj+gOnHYBmWxcd7u21Ap5lOmSQD2KteLsSHxfJuJVPHHkmbwIjcjAi/CmCD5Bg5sitrQ5+In/8t3P/Or7/tSv/LE//oJ4wS+d4T9KhRbJjSh3JBazrcizIjO3HO9mBxaVxCJ5lIGQZxmEFeVxy0gsksctI66oWevKswyMNS4DrABaoUC3yHW5iDjtxBDFZnsXKzOnmkywc8GneweN2FqfnCmndSeI+rFAl7HXMG6P6A6cdgGZbFx3u7bUCnmU6ZJAPYq1Yhy2Y2A+4tb1P3HkZbyIGZHMi5gRoRf53Oc+RyNyhfHMXzrDf5QKLZIbUe5ILGZbkWdFZm453s0OLCqJRfIoAyHPMggryuOWkVgkj1tGXFGz1pVnGRhrXAZYAbRCgW6R63IRcdqJIYrN9i5WZk41mWDngk/3DhqxtT45U07rThD1Y4EuY69h3B7RHTjtAjLZuO52bakV8ijTJYF6FGvF+OITR5wjufInjryYFzEjAi9iRsSi+2leW+JnXWE86dNE3LPe8e+P/ygVWiQ3otyRWMy2Is+KzNxyvJsdWFQSi+RRBkKeZRBWlMctI7FIHreMuKJmrSvPMjDWuAywAmiFAt0i1+Ui4rQTQxSb7V2szJxqMsHOBZ/uHTRia31yppzWnSDqxwJdxl7DuD2iO3DaBWSycd3t2lIr5FGmSwL1KNYK+PoD0Aw0JZ+/4oMjL+lF4mER50WM42ddYfzCD/zgf/6l/wbwp+/IgLvlQPb+L/0K/pvjP0ElrLPoOKEyywC3WO9mwDiXXQKeZSDyrlIJt+IuuWatZ3xFnykzUBPF3a1s5o4GXLPWlUcNwWIkbql1cKd8KAY/aHOyYmXUVJMJdq7zdO+gEVvrkzPltO4EUT8W6DL2GsbtEd2B0y4gk43rbteWWiGPMl0SqEexVsD/xJf86//2//hfeyg+e8Vfm3dFXoSHRcyL8BM0NgQ/7grjEx/+CNyDmQn6CeWDrYxjCTui/wSVsM6i44TKLAPcYr2bAeNcdgl4loHIu0ol3Iq75Jq1nvEVfabMQE0Ud7eymTsacM1aVx41BIuRuKXWwZ3yoRj8oM3JipVRU00m2LnO072DRmytT86U07oTRP1YoMvYaxi3R3QHTruATDauu11baoU8ynRJoB7FWjH+n3zJl//7/5MvdT5jik98/w+0l66rjJf3ImZELHhw1X2aV2+NfP7dd//yH3nvX/5ff/0OvidUHgR3j+t7/+R/QjMBP0FCY0H+IHzg/j9BJayz6DihMssAt1jvZsA4l10CnmUg8q5SCbfiLrlmrWd8RZ8pM1ATxd2tbOaOBlyz1pVHDcFiJG6pdXCnfCgGP2hzsmJl1FSTCXau83TvoBFb65Mz5bTuBFE/Fugy9hrG7RHdgdMuIJON627XllohjzJdEqhHsVaMnzAif+O/+XB70brWeBIvAiNise9FPvvZz1oRP9HiJz780Q9+2Xu+43jqi+KDQgAWWdEiwKJDVjd8zx/5evtf267miD/3B//Qo5iPCPtx/CeoBNCi44TKLAPcYr2bAeNcdgl4loHIu0ol3Iq75Jq1nvEVfabMQE0Ud7eymTsacM1aVx41BIuRuKXWwZ3yoRj8oM3JipVRU00m2LnO072DRmytT86U07oTRP1YoMvYaxi3R3QHTruATDauu11baoU8ynRJoB7FWvlf/Gtf5nzGFP/b/+X/6prfnUE8vhdpNuQI9SJqRLpehG/QmBfBk0XwNTSf+cxnrBE/1OJ7/uh7YQvoGEB0qTkWAW4tguK/fv/DUb/wAz/4p7/sK2hBjGTWJOMZ/syXfgX/CSrhP00WHSdUZhngFuvdDBjnskvAswxE3lUq4VbcJdes9Yyv6DNlBmqiuLuVzdzRgGvWuvKoIViMxC21Du6UD8XgB21OVqyMmmoywc51nu4dNGJrfXKmnNadIOrHAl3GXsO4PaI7cNoFZLJx3e3aUivkUaZLAvUoZuV/8yVv7ZgI41m9iBmRc17kl37pl2wOfu7n3333//oH/hDNASwFoEVucUm4ZQbXq8ufuP/hqE98+CNqQR7KsSRXmB3hP0cS/tNk0XFCZZYBbrHezYBxLrsEPMtA5F2lEm7FXXLNWs/4ij5TZqAmirtb2cwdDbhmrSuPGoLFSNxS6+BO+VAMftDmZMXKqKkmE+xc5+neQSO21idnymndCaJ+LNBl7DWM2yO6A6ddQCYb192uLbVCHmW6JFCPYlTOHRP5sb/z/e2F6rrjZbwIjEjXi/ANGvUi7777ri3xcy1+8Qd+kM6AoFEAusW4dBV0Aa4IwuwOjnzsODjyFPjA3T9H/XeJJYuOEyqzDHCL9W4GjHPZJeBZBiLvKpVwK+6Sa9Z6xlf0mTIDNVHc3cpm7mjANWtdedQQLEbilloHd8qHYvCDNicrVkZNNZlg5zpP9w4asbU+OVNO604Q9WOBLmOvYdwe0R047QIy2bjudm2pFfIo0yWBehSj8iaPiTBejRd55513bAs/2uJycKRnEeIygwkA5VxS4zJxOThyP/7cH/i3zDrgDgduewy4W445/y3y3yWWLDpOqMwywC3WuxkwzmWXgGcZiLyrVMKtuEuuWesZX9FnygzURHF3K5u5owHXrHXlUUOwGIlbah3cKR+KwQ/anKxYGTXVZIKd6zzdO2jE1vrkTDmtO0HUjwW6jL2GcXtEd+C0C8hk47rbtaVWyKNMlwTqUWx4q8dEGC/pRcyI4AO9K17kU5/61Cc/+UnrxU+3MDcQLUL0Dca5BNdKVkTdZQLLzsERsRGPBbMj7uAIAI6i44TKLAPcYr2bAeNcdgl4loHIu0ol3Iq75Jq1nvEVfabMQE0Ud7eymTsacM1aVx41BIuRuKXWwZ3yoRj8oM3JipVRU00m2LnO072DRmytT86U07oTRP1YoMvYaxi3R3QHTruATDauu11baoU8ynRJoB7Fb/iYCOPJvYg7uNr1IvqtePAiZkTwIZpf+qVf+vSnP/3OO+/AixixgbgAHhxxFkGXrIATrgiOIrdiEdBi5+DIl31F9yaHEcexnHJAD44A4Cg6TqjMMsAt1rsZMM5ll4BnGYi8q1TCrbhLrlnrGV/RZ8oM1ERxdyubuaMB16x15VFDsBiJW2od3CkfisEP2pysWBk11WSCnes83TtoxNb65Ew5rTtB1I8Fuoy9hnF7RHfgtAvIZOO627WlVsijTJcE6m73W97i00RiXLUX+eVf/mXnRX7hF37BKrgAi1/8gR/8jruP+NIiGAHckhVX1yKA4mBLl5+/7z2/95u/xawDPAcshXIu1zmWlnlwBADnv1f3zxdQmWWAW6x3M2Ccyy4BzzIQeVephFtxl1yz1jO+os+UGaiJ4u5WNnNHA65Z68qjhmAxErfUOrhTPhSDH7Q5WbEyaqrJBDvXebp30Iit9cmZclp3gqgfC3QZew3j9ojuwGkXkMnGdbdrS62QR5kuCdTd7ts+JsJ4fV7k537u52wL12DxEx/+KOyI2QKCRiEWucXsMC4aAbgVnzjyZ48njnRBn7HOuTRi/0YJ909WOaEyywC3WO9mwDiXXQKeZSDyrlIJt+IuuWatZ3xFnykzUBPF3a1s5o4GXLPWlUcNwWIkbql1cKd8KAY/aHOyYmXUVJMJdq7zdO+gEVvrkzPltO4EUT8W6DL2GsbtEd2B0y4gk43rbteWWiGPMl0SqOvumz8mwnh5L2JGxIIPgF/xIv/0n/5Tm4DLsPieP/peWoRFqKsgUOSWW2rR4a8tHxwZeI7IjQDkODgCuH+yygmVWQa4xXo3A8a57BLwLAORd5VKuBV3yTVrPeMr+kyZgZoo7m5lM3c04Jq1rjxqCBYjcUutgzvlQzH4QZuTFSujpppMsHOdp3sHjdhan5wpp3UniPqxQJex1zBuj+gOnHYBmWxcd7u21Ap5lOmSQJ27546J/PKn3mkvRa8qXqsXMeIOjjh/MEDXXljWetdzDBAPjkQnMUbXfES8/86O6D9ZxwmVWQa4xXo3A8a57BLwLAORd5VKuBV3yTVrPeMr+kyZgZoo7m5lM3c04Jq1rjxqCBYjcUutgzvlQzH4QZuTFSujpppMsHOdp3sHjdhan5wpp3UniPqxQJex1zBuj+gOnHYBmWxcd7u21Ap5lOmSQB35bT9NJMZr9SL/+B//YyviSizwxJEx6DliMVsCi76k+1U1BjMWzmdwmXEsM46vquE/WaD7j1tllgFusd7NgHEuuwQ8y0DkXaUSbsVdcs1az/iKPlNmoCaKu1vZzB0NuGatK48agsVI3FLr4E75UAx+0OZkxcqoqSYT7Fzn6d5BI7bWJ2fKad0Jon4s0GXsNYzbI7oDp11AJhvX3a4ttUIeZbokUEe+kWMijNdxXgSf6f3FX/xF9SI/8zM/Y7u4GAs+caQL8xMAl9w6gW77Xw5PHPmzd08cIXQ54Fxm3C6A/2SB7j9u/ZdtGeAW690MGOeyS8CzDETeVSrhVtwl16z1jK/oM2UGaqK4u5XN3NGAa9a68qghWIzELbUO7pQPxeAHbU5WrIyaajLBznWe7h00Ymt9cqac1p0g6scCXcZew7g9ojtw2gVksnHd7dpSK+RRpksCdcu3c0yE8eReRO3IuhfpPutMvcjP/uzPmh35R//oH9kQXI8FnzhCYGlZ612NQ7cIxC2rAJcnjhz/QRC/8AM/SAMB4vhp4CO++g+6+4+b/7KRAW6x3s2AcS67BDzLQORdpRJuxV1yzVrP+Io+U2agJoq7W9nMHQ24Zq0rjxqCxUjcUuvgTvlQDH7Q5mTFyqipJhPsXOfp3kEjttYnZ8pp3QmifizQZew1jNsjugOnXUAmG9fdri21Qh5luiRQ/xNf8vafJhLjKryIxaIX+eQnP+m8iHEbjku6HBz5g39YLQJ5XA7QVaIYt6yixZ/48EdwMYjLwRH55jzDCl8BDo64f8QOKDID3GK9mwHjXHYJeJaByLtKJdyKu+SatZ7xFX2mzEBNFHe3spk7GnDNWlceNQSLkbil1sGd8qEY/KDNyYqVUVNNJti5ztO9g0ZsrU/OlNO6E0T9WKDL2GsYt0d0B067gEw2rrtdW2qFPMp0SVj93DGRV/c0kRgv6UVgR5wX6X43nnqRn//5nzc78k/+yT+BF/mpn/opK+KSLPDEETqDE8iMiPMcbqlwTxz52Dd/i/kMWo0VjqXyrgxPHOE/YnICRWaAW6x3M2Ccyy4BzzIQeVephFtxl1yz1jO+os+UGaiJ4u5WNnNHA65Z68qjhmAxErfUOrhTPhSDH7Q5WbEyaqrJBDvXebp30Iit9cmZclp3gqgfC3QZew3j9ojuwGkXkMnGdbdrS62QR5kuCaufMCL/3f/jv2kvNq85XsaL6K2R017kZ3/2Z+FF/uE//Ief/vQXz42OD44Yuh4CRbfVLU4Rv6rmz/6Bf4seAiRyLEEG3CH7tw6gyAxwi/VuBoxz2SXgWQYi7yqVcCvukmvWesZX9JkyAzVR3N3KZu5owDVrXXnUECxG4pZaB3fKh2LwgzYnK1ZGTTWZYOc6T/cOGrG1PjlTTutOEPVjgS5jr2HcHtEdOO0CMtm47nZtqRXyKNMlce6YyCv9EK+LN+JF/sE/+AfWiwuz+Gt/8n1qDhQPNSIPBbriV9U4D/FY0GfD8x80gSIzwC3WuxkwzmWXgGcZiLyrVMKtuEuuWesZX9FnygzURHF3K5u5owHXrHXlUUOwGIlbah3cKR+KwQ/anKxYGTXVZIKd6zzdO2jE1vrkTDmtO0HUjwW6jL2GcXtEd+C0C8hk47rbtaVWyKNMl8BNPU0kxvN5EdqRzIvgY73qRX5FvpLG7Ih+lAZe5Gd+5md++qd/2uzIT/7kT5odsR+Ba7PoPnGk6zYsa91pMnRlWsyeODK44eG2Muiu8XiOlUCRGeAW690MGOeyS8CzDETeVSrhVtwl16z1jK/oM2UGaqK4u5XN3NGAa9a68qghWIzELbUO7pQPxeAHbU5WrIyaajLBznWe7h00Ymt9cqac1p0g6scCXcZew7g9ojtw2gVksnHd7dpSK+RRpkvDzR4TYbxKL/LzP//zXS9iHgXXZqFPHIFFcO5h0XN00R0Vi/GJI/QQjws+ccQBRWaAW6x3M2Ccyy4BzzIQeVephFtxl1yz1jO+os+UGaiJ4u5WNnNHA65Z68qjhmAxErfUOrhTPhSDH7Q5WbEyaqrJBDvXebp30Iit9cmZclp3gqgfC3QZew3j9ojuwGkXkMnGdbdrS62QR5kuDbf2NJEYL+9F8FEaehH9KA29SHybBh+lMS+ib9P8/b//902Dy7PAwZEdz+HQHUUjQsLcPTji7mpwOeZYDrj9RPeP24B/8cwAt1jvZsA4l10CnmUg8q5SCbfiLrlmrWd8RZ8pM1ATxd2tbOaOBlyz1pVHDcFiJG6pdXCnfCgGP2hzsmJl1FSTCXau83TvoBFb65Mz5bTuBFE/Fugy9hrG7RHdgdMuIJON627XllohjzJd3uDTRGI8vhdBZF6EdkS9iIU+evXXf/3X+bFePPHMvIh7+qp5EX6U5qd/+qfNi/zkT/6keZGf+ImfsHZcocVf/5Pvgy14ELotVtQ6uGYlRHziyJ8+PuJLwExMOZcZ58ERBf7FMwPcYr2bAeNcdgl4loHIu0ol3Iq75Jq1nvEVfabMQE0Ud7eymTsacM1aVx41BIuRuKXWwZ3yoRj8oM3JipVRU00m2LnO072DRmytT86U07oTRP1YoMvYaxi3R3QHTruATDauu11baoU8ysjPHRN5Y0bE4oq8CG6N8PiqPn31QV7kE5/4hP0UXKSFPnHkBOg21GewyMoA7okjP/bhjzg7sgJ6DscV0Y7gXzwzwC3WuxkwzmWXgGcZiLyrVMKtuEuuWesZX9FnygzURHF3K5u5owHXrHXlUUOwGIlbah3cKR+KwQ/anKxYGTXVZIKd6zzdO2jE1vrkTDmtO0HUjwW6jL2GcXtEd+C0C8hk47rbtaVWyKMMpI6JMF7Si8COOC/i3qbBp2nc2zT69NX4Ns2P//iPWx0XaaEHRwboGgvnORbNh8Ep/cGRuyeODODMB5ddDmLQJ44Y8C+eGeAW690MGOeyS8CzDETeVSrhVtwl16z1jK/oM2UGaqK4u5XN3NGAa9a68qghWIzELbUO7pQPxeAHbU5WrIyaajLBznWe7h00Ymt9cqac1p0g6scCXcZew7g9ojtw2gVksnHd7dpSK+RRBnKzTxOJ8TJeRG+N0ItYLHoR/WTvPz6+mAa3RuhFPvGJT5gM12mx8sQRdQ/g3eIKojJ74gjNxIAPtiI3xN8EZoBbrHczYJzLLgHPMhB5V6mEW3GXXLPWM76iz5QZqIni7lY2c0cDrlnryqOGYDESt9Q6uFM+FIMftDlZsTJqqskEO9d5unfQiK31yZlyWneCqB8LdBl7DeP2iO7AaReQycZ1t2tLrZBHmeVbfppIjGfyImpHnBfh8VXeGuHbNPQi+jaN8yL8NI3zIj/6oz9qE3CpFt0njtBzxGK2BNaLBqsb4hNH6CFAHHfLRW7Qd2rwL54Z4Bbr3QwY57JLwLMMRN5VKuFW3CXXrPWMr+gzZQZqori7lc3c0YBr1rryqCFYjMQttQ7ulA/F4AdtTlasjJpqMsHOdZ7uHTRia31yppzWnSDqxwJdxl7DuD2iO3DaBWSycd3t2lIr5FF2m186M4in9SIWmR0ZeBF+spefpjEv0v1kL96m4cPg1Y782I/9mNkR+1m4Wgv3xBFYBxqIzElEdJVZEcAyPnGENmIH0Zq4B6AxA9xivZsB41x2CXiWgci7SiXcirvkmrWe8RV9psxATRR3t7KZOxpwzVpXHjUEi5G4pdbBnfKhGPygzcmKlVFTTSbYuc7TvYNGbK1PzpTTuhNE/Vigy9hrGLdHdAdOu4BMNq67XVtqhdzJ6phIjCf3IhZTL6J2hG/T8NM0i14knmA1O2JbuFoLHByBM3DWYbwEukXAtuKErj4+cYROAnc1lGM55V3g4Ah+AZgB/DKQZxkwzmWXgGcZiLyrVMKtuEuuWesZX9FnygzURHF3K5u5owHXrHXlUUOwGIlbah3cKR+KwQ/anKxYGTXVZIKd6zzdO2jE1vrkTDmtO0HUjwW6jL2GcXtEd+C0C8hk47rbtaVWyJ2sniYS4zG9iEVzIkc0J5J7kcGtEfdpGvc2DT9No2/TxFsjeKfGHxz5svfQJXTtwkOLbqurJC4HR47/Ygx+VQ3shXIuxxxL5Vjyt4KZFS5112XAOJddAp5lIPKuUgm34i65Zq1nfEWfKTNQE8XdrWzmjgZcs9aVRw3BYiRuqXVwp3woBj9oc7JiZdRUkwl2rvN076ARW+uTM+W07gRRPxboMvYaxu0R3YHTLiCTjetu15ZaIddiPU2kG4/sRSyaEzki8yLx1siKF8keeqYnWPkM1p/4iZ/AOzV/7+/9vXsHR775P3X+YIrMiIxtRxfWMn3iCEFjMebZ1p/50q/ALwAzgN8H8iwDxrnsEvAsA5F3lUq4FXfJNWs94yv6TJmBmijubmUzdzTgmrWuPGoIFiNxS62DO+VDMfhBm5MVK6Ommkywc52neweN2FqfnCmndSeI+rFAl7HXMG6P6A6cdgGZbFx3u7bUCjlJPU0ki6vwIs6O8G0aehG8TYNbI91P0/AEa/QiP/qjP2p2xH4iLtti8YkjsBrOcJzwHwQHuieO8OCIGosuB3F8ABwcwa8Bfkn0d4P1bgaMc9kl4FkGIu8qlXAr7pJr1nrGV/SZMgM1UdzdymbuaMA1a1151BAsRuKWWgd3yodi8IM2JytWRk01mWDnOk/3DhqxtT45U07rThD1Y4EuY69h3B7RHTjtAjLZuO52bakVcpBvOXVM5Mf+zve3l4o3Hc/qRRCwIwMv8lv5d/Zmp0ZwayQ7NWJeJB4ccRbBgb4hFh+K7ih3cORvfug7aSAyz+H8x6KMX1WDXxL93WC9mwHjXHYJeJaByLtKJdyKu+SatZ7xFX2mzEBNFHe3spk7GnDNWlceNQSLkbil1sGd8qEY/KDNyYqVUVNNJti5ztO9g0ZsrU/OlNO6E0T9WKDL2GsYt0d0B067gEw2rrtdW2qFHOSEEfk//+/+9/aq2l4n3nS8pBdRO2JexMK8iAU/TcMTrLw1grdp9NSIuzWSnRoxO2JiXLkFnzjStRdWPGE7slHMuvzL4Ykjf/GP/AdwD2Ym6CfAsVTelUWOpf04/DLo7wl5lgHjXHYJeJaByLtKJdyKu+SatZ7xFX2mzEBNFHe3spk7GnDNWlceNQSLkbil1sGd8qEY/KDNyYqVUVNNJti5ztO9g0ZsrU/OlNO6E0T9WKDL2GsYt0d0B067gEw2rrtdW2qF3Eg9TWQc572IBcwHCaLZkCPgRSzMjtCRHG/U3Ls1QjviTo3wnRp3a0TfqXG3Rrrv1NCOmK3BlVv8teSrarrFKVwXlpYBV8Sy+8QRmokxVNblRgDjfKdGf0/IswwY57JLwLMMRN5VKuFW3CXXrPWMr+gzZQZqori7lc3c0YBr1rryqCFYjMQttQ7ulA/F4AdtTlasjJpqMsHOdZ7uHTRia31yppzWnSDqxwJdxl7DuD2iO3DaBWSycd3t2lIr5HVMZBpbXsTCzAcyo9mQI5oTGXoRvTWSeRHzEPhwr9kRehG8U8MP1Aw+38uDIz/yIz9y7+CIPHGEFuFBcPbCFXXXaYD4xBG4B3USXf5QvP84x6q/J+RZBoxz2SXgWQYi7yqVcCvukmvWesZX9JkyAzVR3N3KZu5owDVrXXnUECxG4pZaB3fKh2LwgzYnK1ZGTTWZYOc6T/cOGrG1PjlTTutOEPVjgS5jr2HcHtEdOO0CMtm47nZtqRXwc8dE3vbTRGK8sBfhrZHLmZHk1EjXi/DUyNiLxEOsP/MzP4Mrt7gcHPmy9zh/0EXXSbhi13N0GwFsuYMjf+tD32meg7Yj41hOuQIHR/h7Qp5lwDiXXQKeZSDyrlIJt+IuuWatZ3xFnykzUBPF3a1s5o4GXLPWlUcNwWIkbql1cKd8KAY/aHOyYmXUVJMJdq7zdO+gEVvrkzPltO4EUT8W6DL2GsbtEd2B0y4gk43rbteWWgE/d0ykvSTcTDy+F7FoTuQI9SII2BHzIrAj01sj/HCvPvfMnRoZPGsEdoSHWH/kR37EHxyZ2ZHMc2i9q1nB5eDI8d+Q8Rf/6B+j7QChvVjhWCrn0q6Kvyf8nckyYJzLLgHPMhB5V6mEW3GXXLPWM76iz5QZqIni7lY2c0cDrlnryqOGYDESt9Q6uFM+FIMftDlZsTJqqskEO9d5unfQiK31yZlyWneCqB8LdBl7DeP2iO7AaReQycZ1t2tLrRivp4ksxpN4EYvmRI54kBexGLxNw1Mj5kUscGtkemrEHWI1O3Lv4EjyxJGun0CRW+ueI5tm6Bwc+bKvoJMAeRTwiSP6O5NlwDiXXQKeZSDyrlIJt+IuuWatZ3xFnykzUBPF3a1s5o4GXLPWlUcNwWIkbql1cKd8KAY/aHOyYmXUVJMJdq7zdO+gEVvrkzPltO4EUT8W6DL2GsbtEd2B0y4gk43rbteWWjn3pTN6XtVeTBt767HrRRCH/bgXzYYc0fUizo6YF4m3RsyLWPDTNBbuAzXmRbJnjXQ/3ws7Yl7kh3/4h+1Ht6sPX1UDlxCXXT+xgm6jFQl3cOTHjoMjhkUvsm5Z3i9fVaO/SzEDxrnsEvAsA5F3lUq4FXfJNWs94yv6TJmBmijubmUzdzTgmrWuPGoIFiNxS62DO+VDMfhBm5MVK6Ommkywc52neweN2FqfnCmndSeI+rFAl7HXMG6P6A6cdgGZbFx3u7Zk5dyXzrinidiLaWNvPZ7JiyDoRdSOXM6MyKkR9SK4O4JbI/oYVtgR3B3J7AjvjrhDrLw74g+O3PkDZsItu+hqsmmE1rtPHNF3WLBUzuVYRgLOr6rR36WYAeNcdgl4loHIu0ol3Iq75Jq1nvEVfabMQE0Ud7eymTsacM1aVx41BIuRuKXWwZ3yoRj8oM3JipVRU00m2LnO072DRmytT86U07oTRP1YoMvYaxi3R3QHTruATDauu11bsvIoTxNxyzccV+RFunYk8yJ8pwZeZPxODQ6O8J0afqbG9O1/wHFwBObAWQS37KKryabFCsjlq2rux1/4I/8BDMQjAqYEvzD4nckyYJzLLgHPMhB5V6mEW3GXXLPWM76iz5QZqIni7lY2c0cDrlnryqOGYDESt9Q6uFM+FIMftDlZsTJqqskEO9d5unfQiK31yZlyWneCqB8LdBl7DeP2iO7AaReQycZ1t2tLVB7rmIi9mDb21uOpvIhFcyJHqBdBwI5c3qRJTo3oOzVqR3BqhJ+p0cewZp+piY8bwTnWH/7hHzZz0/433H/iiHMMA3SVVnT1lYHx4AjvZ6iT6HIuxxxLHBzR36WYAeNcdgl4loHIu0ol3Iq75Jq1nvEVfabMQE0Ud7eymTsacM1aVx41BIuRuKXWwZ3yoRj8oM3JipVRU00m2LnO072DRmytT86U07oTRP1YoMvYaxi3R3QHTruATDauu11bGs4dE1EjgtdQEFTefDyVF0GxOZEFLwI7cjkz8i/+hfMieogVB0fwgRoL3BpxdmR6cETfqZkeHBmjazhOuBADZPHgSPbNeQ70HGPOZfzmPJcB41x2CXiWgci7SiXcirvkmrWe8RV9psxATRR3t7KZOxpwzVpXHjUEi5G4pdbBnfKhGPygzcmKlVFTTSbYuc7TvYNGbK1PzpTTuhNE/Vigy9hrGLdHdAdOu4BMNq67XVueOybiniaiL6OovPl4YS/StSP//RFmR8yLWJgXwTs1FvQieojVvIgFT4089J0af3Bk4YkjXXthxUXboWAL2g2fv3+b7m/ePXHk0fF++V2KGTDOZZeAZxmIvKtUwq24S65Z6xlf0WfKDNREcXcrm7mjAdesdeVRQ7AYiVtqHdwpH4rBD9qcrFgZNdVkgp3rPN07aMTW+uRMOa07QdSPBbqMvYZxe0R34LQLyGTjutu15aM8TYQvo7cTj+NFLPDfjoFKcyJyZMSCXiS7NUIvMr41YnbEfb7XHWKN79TAjrh3auLBEZiDDHAMrjhFt8UVsbwcHLn/r/AvJE8cIeENj4xnW/abo79RmgEKtK4EPMtA5F2lEm7FXXLNWs/4ij5TZqAmirtb2cwdDbhmrSuPGoLFSNxS6+BO+VAMftDmZMXKqKkmE+xc5+neQSO21idnymndCaJ+LNBl7DWM2yO6A6ddQCYb193u/jERvIAiWuk24tG8iEX773cEls2JHNGciNwdoR1RR8J3asyOmBexiF5EH31GO4J3atSO4O6I2hG8U8O7I7g10nniyJ98n1oExTkj4oAJbpQWu19VAw8BQj8ROZbKuzLwwTs1gHEuuwQ8y0DkXaUSbsVdcs1az/iKPlNmoCaKu1vZzB0NuGatK48agsVI3FLr4E75UAx+0OZkxcqoqSYT7Fzn6d5BI7bWJ2fKad0Jon4s0GXsNYzbI7oDp11AJhvXdffcl864b787Xj9btNJtxNN6EYvmRI5oZuQI2pGBFxncGnGfqdHHjehnatzBEdwa4TlWvlOzcnCkax3G6GpQ5JZbshi/qgYeQkFjMYbKIuc357kMGOeyS8CzDETeVSrhVtwl16z1jK/oM2UGaqK4u5XN3NGAa9a68qghWIzELbUO7pQPxeAHbU5WrIyaajLBznWe7h00Ymt9cqac1p0g6scCXcZew7g9ojtw2gVksnGdu4/yNBELvG4iWuk24sm9iEVzIsN3amBHjjdqlt6pMS9iobdG+Jka2JHxwRGcY3UHR8ys4H+IBZ84AmfgvMIKor1wWYmCxfjEEdqIB6HrRYyQ46tq4m8XOJddAp5lIPKuUgm34i65Zq1nfEWfKTNQE8XdrWzmjgZcs9aVRw3BYiRuqXVwp3woBj9oc7JiZdRUkwl2rvN076ARW+uTM+W07gRRPxboMvYaxu0R3YHTLiCTjevcfZSniVjgRRPRSrcRz+pFLJoTue9FLNSOmBdRO3K8UXN5p8bC3RrhIVbeGonv1OjTz7rv1PAzNd0njnTtwgDQs0uXrugQi5evqrkf+sQRNRNjjmWXE/bT428XOJddAp5lIPKuUgm34i65Zq1nfEWfKTNQE8XdrWzmjgZcs9aVRw3BYiRuqXVwp3woBj9oc7JiZdRUkwl2rvN076ARW+uTM+W07gRRPxboMvYaxu0R3YHTLiCTjevIj3VMhASBrRuJx/QiFu0/Yfhv2pzIEepFLAZeBHZk5RArP1PTfacGt0ayd2r04Eh84ojzB8TAT3DLLbXokBUvB0fkXyQPjgDmIVY4l5FjaTm+UwMY57JLwLMMRN5VKuFW3CXXrPWMr+gzZQZqori7lc3c0YBr1rryqCFYjMQttQ7ulA/F4AdtTlasjJpqMsHOdZ7uHTRia31yppzWnSDqxwJdxl7DuD2iO3DaBWSycd3yuWMiakQs8EJJgsDWjcQjexEL/kcEsTDebMgRzotY0I6YF4m3RuBFnB0xL2Lxa3enRiz4To3aEbxTg8/U0I64j/jqwZEfiV9V8wf/sPoDoGsvNCs5B2sHfuLDH2mXcsTiE0foOQbcLd9//xwrf9+47BLwLAORd5VKuBV3yTVrPeMr+kyZgZoo7m5lM3c04Jq1rjxqCBYjcUutgzvlQzH4QZuTFSujpppMsHOdp3sHjdhan5wpp3UniPqxQJex1zBuj+gOnHYBmWxc/5bHe5qIheM3FS/mRRDNjNy3I5czI+GdGnd35DeP0M/UPMiO4O4I36mhHfl7R5jg+J9yCX3iCOyFMxmDYrYEsqICRffEkb91HBwxGwEnAeL4AAMZv6pGf9+47BLwLAORd5VKuBV3yTVrPeMr+kyZgZoo7m5lM3c04Jq1rjxqCBYjcUutgzvlQzH4QZuTFSujpppMsHOdp3sHjdhan5wpp3UniPqxQJex1zBuj+gOnHYBmWxcf8SniVg4flNxjV5E7cjxRk36To3zItODI+4ca/fgCO6OuIMjcAnMhCu63QFMGcUoah3L7KtqzD1YprdQjqXyRZn9gunvni67BDzLQORdpRJuxV1yzVrP+Io+U2agJoq7W9nMHQ24Zq0rjxqCxUjcUuvgTvlQDH7Q5mTFyqipJhPsXOfp3kEjttYnZ8pp3QmifizQZew1jNsjugOnXUAmG9TPHRMZf4iX5NbimbyI5eZEjmhOJD81Ajuit0YGp0acHeGtkexhrDzH6t6pGRwc+eu9gyNqGh6E2AjPMRiYPXGEgJPoLgecS3I+cYS/b1x2CXiWgci7SiXcirvkmrWe8RV9psxATRR3t7KZOxpwzVpXHjUEi5G4pdbBnfKhGPygzcmKlVFTTSbYuc7TvYNGbK1PzpTTuhNE/Vigy9hrGLdHdAdOu4BMltUf5WkiFseLZAssUb+1eHwvYsH/pgjy5kSOaGbkvh1xXuShdoS3RsyOmBex0Fsj2Ts18eAI3qnJnjiyY0Gi4YgVB+xaXnniCOE8Bwk9x4DjHCtgv4fxV1oJeJaByLtKJdyKu+SatZ7xFX2mzEBNFHe3spk7GnDNWlceNQSLkbil1sGd8qEY/KDNyYqVUVNNJti5ztO9g0ZsrU/OlNO6E0T9WKDL2GsYt0d0B067gEzWrT/Wl84gM1i8wXgSL4LAf1wLcMvNhhzRnMgR9CKZHaEXoR0xL2JxOTNyvFNjMXinBp+pyd6p0YMj7iO+/uDIzDcAXY0VAa2QZ4CGje6JIzg4sm4y1oGDIwb7PYy/0krAswxE3lUq4VbcJdes9Yyv6DNlBmqiuLuVzdzRgGvWuvKoIViMxC21Du6UD8XgB21OVqyMmmoywc51nu4dNGJrfXKmnNadIOrHAl3GXsO4PaI7cNoFZLJu/bGOiSAzUL/NeFYvYrk5kSOaE8nfqaEXsTAvQjty4p0aHGKFHVEvok8cce/U4DM18eDIGNFhwEnE+gAQM5PEJ478xbsnjsBDrHAspxy/gZb5q9gl4FkGIu8qlXAr7pJr1nrGV/SZMgM1UdzdymbuaMA1a1151BAsRuKWWgd3yodi8IM2JytWRk01mWDnOk/3DhqxtT45U07rThD1Y4EuY69h3B7RHTjtAjJZrO8/TQTBl0UG6rcZz+1FLJoTOaKZkSOiHbGAI4Ed0bsjZkdwd2RgR/hmDe2I3h3RgyNqR3B3RO2IHhwZPHHEANPgKrE4Bp1HXFr+a/GJI3cf8YWZmHIuI9clnzgSf6WVgGcZiLyrVMKtuEuuWesZX9FnygzURHF3K5u5owHXrHXlUUOwGIlbah3cKR+KwQ/anKxYGTXVZIKd6zzdO2jE1vrkTDmtO0HUjwW6jL2GcXtEd+C0C8hkrv4nvuQRniaCsFdDZASKNxvP7UWQmxM5ojmRhbsj8CKwI+vnWPlOTTzHCi8yPjhy+okjrhIRW8ZFbrknjnziwx/5z7/sK2gmHhE4xxp/pZWAZxmIvKtUwq24S65Z6xlf0WfKDNREcXcrm7mjAdesdeVRQ7AYiVtqHdwpH4rBD9qcrFgZNdVkgp3rPN07aMTW+uRMOa07QdSPBbqMvYZxe0R34LQLyGRa//Yv+YrHOiZCYpmVW46X8SIWzYks3xqhHeHdkek5Vovs4AjOsfLWiDs4gndq9OCImZXL/6QjcHBE0TUQY3Rb1ovx4Ajcg7vDQe6wKDPwq2r0d1IJeJaByLtKJdyKu+SatZ7xFX2mzEBNFHe3spk7GnDNWlceNQSLkbil1sGd8qEY/KDNyYqVUVNNJti5ztO9g0ZsrU/OlNO6E0T9WKDL2GsYt0d0B067gEym9Uc8JkJyvB62yi3HE3oRC/5XdtmiOZEjmhM5ItoR8yKwI8cbNf13aiwG79S4gyPr79SoHYkHR5xXcKahi66Gc0iYCVfsflWNWQczFvQWygdbyrF03H6o+51UAp5lIPKuUgm34i65Zq1nfEWfKTNQE8XdrWzmjgZcs9aVRw3BYiRuqXVwp3woBj9oc7JiZdRUkwl2rvN076ARW+uTM+W07gRRPxboMvYaxu0R3YHTLiCTsf4oTxOxwOsgCZc3Hi/jRZCbEzmiOZEjaEecF+GtkeONmqV3asyLTN+p0XOsD3riiNqFrnVw6Go0K5nicnBE4hd+4AfhHmgmlHPZhe5Gzo/4xt9tI+BZBiLvKpVwK+6Sa9Z6xlf0mTIDNVHc3cpm7mjANWtdedQQLEbilloHd8qHYvCDNicrVkZNNZlg5zpP9w4asbU+OVNO604Q9WOBLmOvYdwe0R047QIyGerf8iVf7nzGCvSYiL3M6SsgCZc3Hk/rRSz0P7fLFjAiFs2GHEEvsmNHzDdY8NaI2hH3To0eHHHv1FiMDo78gT+0Yh2c2xgU12GNhuyJI13nMTAcXGb8/fLNeY6AZxmIvKtUwq24S65Z6xlf0WfKDNREcXcrm7mjAdesdeVRQ7AYiVtqHdwpH4rBD9qcrFgZNdVkgp3rPN07aMTW+uRMOa07QdSPBbqMvYZxe0R34LQLyGRW3z8mghc7y+AsglRYPLkXQej/DVyGF0E0M3LEvh3hwZFoR/TuiLMjuDsCO4K7I7QjFiawy0bEgyMRXc/RLTp0d62osIo7OPI375448iDQcwx4dnAEPMtA5F2lEm7FXXLNWs/4ij5TZqAmirtb2cwdDbhmrSuPGoLFSNxS6+BO+VAMftDmZMXKqKkmE+xc5+neQSO21idnymndCaJ+LNBl7DWM2yO6A6ddQCaz+uYxEbzMWbbAknWQCour9iIDO2JeZGxHzIvg7kj34IjeHdGDI2Y1LOITR0YHR45vzoMzcEDRbXWVDtk0BSqXgyP3/0H/hT/6x2ggHhf24/jLSQKeZSDyrlIJt+IuuWatZ3xFnykzUBPF3a1s5o4GXLPWlUcNwWIkbql1cKd8KAY/aHOyYmXUVJMJdq7zdO+gEVvrkzPltO4EUT8W6DL2GsbtEd2B0y4gk+0/TcRe2uJrn5IKi5f3IhYwIojmRI4Y2JGHHhyBHfnl8AA0syPu4IjFgw6O/LVv/k/hDBxoF3R5DtYLuCLI5atq5N9094kjRgYcS+Xdre7BEfAsA5F3lUq4FXfJNWs94yv6TJmBmijubmUzdzTgmrWuPGoIFiNxS62DO+VDMfhBm5MVK6Ommkywc52neweN2FqfnCmndSeI+rFAl7HXMG6P6A6cdgFd2aMcE7Hg6x2zkgqLZ/IiiPh/D2b8HwzRnMiCF1m3I/pODezIyjs1p5844qyDsxEZogxzpqPiE0fgJxRwFeRumXEuwfkANPyiGgHPMhB5V6mEW3GXXLPWM76iz5QZqIni7lY2c0cDrlnryqOGYDESt9Q6uFM+FIMftDlZsTJqqskEO9d5unfQiK31yZlyWneCqB8LdBl7DeP2iO7AaRcQZeeOifzY3/n+/397f/Or3ZJcCeED6L6gkv8IhFxSl8cMEULIl2oPmDD5DVuyZbtHqN120WN/oO65a9Ce2Lda+iG5JTMEyZarq6V7xS2Z5kMCGlQFBaLFpzxgABITiCdXnnXXicjInXvnft/3fMRSKBURuTL3Pu97zt5LmfHk0x/E7dUGMGSrTsHworWI4RY54nZqIEdWdmpQOBJ3akyLGMHuHHCFI0O5MDcnOJiZT4VetNlX1WyakybWusIR+FkLi/6QqQ67Yi99bTWf+Sv8jJkZOZE87Mrm3OHA11bz6kcOjcnouFDz8B3zrE0utDmz2spUh5yMsHOfl8dOBqJrfeaMeZh3hMifEzSMY83mw6MNJzwcBYu0a2UieKkZ8F6zVjNsCw4vRYtYCyECdCXSMJQjj5qRJkcM1CIG0yIGaBHKkXjiCOtY3YkjbqcmFo5gpwZLI65w5FA6DG04aj4PerU1+4PRiSOUEdGiyBj6DNW3i+Jv1f568QectbDoD5nqsCv20tdW85m/ws+YmZETycOubM4dDnxtNa9+5NCYjI4LNQ/fMc/a5EKbM6utTHXIyQg793l57GQgutZnzpiHeUeI/DlBwzjWbD482nDCw1EwR9s/TcReZPqCo8OwoPioWgTQ/w/XQogAXYk8aRGDkyOqSCarI8PCEa1jdXIEqyPcqcnkCDZrnhWOTL+qZmj2UqeYQEg/M8dBiPZROCLQE0cgJtRnGH2EE18LR/AHnLWw6A+Z6rAr9tLXVvOZv8LPmJmRE8nDrmzOHQ58bTWvfuTQmIyOCzUP3zHP2uRCmzOrrUx1yMkIO/d5eexkILrWZ86Yh3lHiPw5QcM41mw+PNpwwsNRMKX96gcoE6HDsKB4WVrEgP9CwGkRA+XIuhY5rGNF4YirYz0sHOFmjd2G3Tzwd3/+O5AIc6OAUGGhfjQOyZLWmrkTR74eFY7AICyGPsOJzxNH8AectbDoD5nqsCv20tdW85m/ws+YmZETycOubM4dDnxtNa9+5NCYjI4LNQ/fMc/a5EKbM6utTHXIyQg793l57GQgutZnzpiHeUeI/DlBwzjWbD482nDCw1Ew0m48TcSAkHk4hYhPoEUA/U9ia4AKASZaZEeOxKURLRxBHSsKRyBH3AFo7iO+JlYeP0/Do3CkfcR3Yiog1JmYG+KSmjf/L59/IeSFE0eoOZzvDIUj+APOWlj0h0x12BV76Wur+cxf4WfMzMiJ5GFXNucOB762mlc/cmhMRseFmofvmGdtcqHNmdVWpjrkZISd+7w8djIQXeszZ8zDvCNE/pygYRxrNh8ebTjh4SgYaTeeJmJAhl1wChEvWosY1uXIo4pV5MijbOT8V9WYFtGdGtSxDndqzp44MpQOzoZdHBhDl4Q9Ckee/8bjxBEubMCZ+M4mNLsu/oCzFhb9IVMddsVe+tpqPvNX+BkzM3IiediVzbnDga+t5tWPHBqT0XGh5uE75lmbXGhzZrWVqQ45GWHnPi+PnQxE1/rMGfMw7wiRPydoGMeazYdHG054OAoG2r2nidBpPd84hYiXrkUMQzkStcgtOzU/beBOjRaO7Jw4MpEOtPmQw6RaLBwxDQEZQWfiH3bR/82/+i38AWctLPpDpjrsir30tdV85q/wM2Zm5ETysCubc4cDX1vNqx85NCaj40LNw3fMsza50ObMaitTHXIyws59Xh47GYiu9Zkz5mHeESJ/TtAwjjWbD482nPBwFMxo18pEYr2qwXx1Wmdhhk+mRQD9r2ILQIgYhlokyhFokRU5YrphKEd0dWQoR7A6MpQjX331ld3G40dq0MKRqBWiXdMcmRkz+6oaGlTFMJz4DOnriSOxhUV/yFSHXbGXvraaz/wVfsbMjJxIHnZlc+5w4GurefUjh8ZkdFyoefiOedYmF9qcWW1lqkNORti5z8tjJwPRtT5zxjzMO0LkzwkaxrFm8+HRhhMejoL9O3ecJmIvLDho6Ty6C1O8RC2C1gAtAjhFMpQjujpiWmRxdYQnjujqCOTI8AA0FI7EOlYj2J0DPHFkLiCGvUhaq73zeWAYwoHxxBEnLDKfYfQROv97+eoILPpDpjrsir30tdV85q/wM2Zm5ETysCubc4cDX1vNqx85NCaj40LNw3fMsza50ObMaitTHXIyws59Xh47GYiu9Zkz5mHeESJ/TtAwjjWbD482nPBwFOyu00Tgo9WwMMcn1iKA/odpCxUCOC1iOJQj2eqIaRGsjgwLRw4PQMsKR+KJIyoUog3lBZLsGnKGZkwaMvHEke/LiSNQEnBUWMz9zL7X/pjxN68tLPpDpjrsir30tdV85q/wM2Zm5ETysCubc4cDX1vNqx85NCaj40LNw3fMsza50ObMaitTHXIyws59Xh47GYiu9Zkz5mHeESJ/TtAwjjWbD482nPBwlNldZSL6/nJhYY4XrUWshRABIEeARTmyuDTCnRrTItip4dLIeuEIDkCzOe3OgcmJI0ORoUpi3ThKxyKZFY44g55Y8RFGnx/xdS0s+kOmOuyKvfS11Xzmr/AzZmbkRPKwK5tzhwNfW82rHzk0JqPjQs3Dd8yzNrnQ5sxqK1MdcjLCzn1eHjsZiK71mTPmYd4RIn9O0DCONZsPjzac8HDULaeJ2NsKsJAtnMIKXroWMUCIAF2JnNEii3IEOzX/Y4OrYx3u1KgcwU4NqkZWThxR0UAbJucGwaEDY2ZQOPL0zXlqEBZDn2HmIzQ5gr95bWHRHzLVYVfspa+t5jN/hZ8xMyMnkodd2Zw7HPjaal79yKExGR0Xah6+Y561yYU2Z1ZbmeqQkxF27vPy2MlAdK3PnDEP844Q+XOChnGs2Xx4tOGE81H3niZiQAYtnMIKXoQWAfj/p60BKgToSuRM4UhcHTEtYmgbNb2O9cJODQpH4k6NyREjPH6ehnjiiAoFhC6zYhgVpxqG8cQRKAmICfr7FldHYNGPrXPYFXvpa6v5zF/hZ8zMyInkYVc25w4HvraaVz9yaExGx4Wah++YZ21yoc2Z1VamOuRkhJ37vDx2MhBd6zNnzMO8I0T+nKBhHGs2Hx5tOOF81F2nicCno2FhBa9MiwCqRQyHcoRaZH11xMmRuDqiB6C5OtbBiSNP4mCuHqLFIUwy7wgINfn341fVfP5dkw66qoEQjvNd6Lqc2eXwlz98KNCPrXPYFXvpa6v5zF/hZ8zMyInkYVc25w4HvraaVz9yaExGx4Wah++YZ21yoc2Z1VamOuRkhJ37vDx2MhBd6zNnzMO8I0T+nKBhHGs2Hx5tOOFk1O1lInTYFhbxgrQI4P4vDdAfCrc0YliUI1AkpkWwOjIsHNHVEXzE162OuI/4Uo64j/janO0HeuCPf/nXh4phbpnI0HzGceEfjwpHTDpYC6MPSaH5YRd8hOq7nRpY9GPrHHbFXvraaj7zV/gZMzNyInnYlc25w4GvrebVjxwak9FxoebhO+ZZm1xoc2a1lakOORlh5z4vj50MRNf6zBnzMO8IkT8naBjHms2HRxtOmI36tZtOEzGHrYaFU3gFWsQACaI4lCNOi+jqyGRpxLSIQZdGYh3rYeEIP1Zjt9F+pgcWv6rGzOmJYXLeG5PWxsIRqAeKicxH6HwQhqYnjsCiH1vnsCv20tdW85m/ws+YmZETycOubM4dDnxtNa9+5NCYjI4LNQ/fMc/a5EKbM6utTHXIyQg793l57GQgutZnzpiHeUeI/DlBwzjWbD482nDC4ahrZSLxNBFr4aPVsHAKr0OLGCBBiEMtAjliWkSXRg7lyP/ckBWOYKcGhSPDnRoUjnCnxsRK+5ke+Ok/+sdOKwxNBYSGk7HDLg5ECyeeOGLSQUWGmmYmPkP1uToCi35sncOu2EtfW81n/go/Y2ZGTiQPu7I5dzjwtdW8+pFDYzI6LtQ8fMc8a5MLbc6stjLVIScj7Nzn5bGTgehanzljHuYdIfLnBA3jWLP58GjDCYejbjlNxIAMWw0Lp/DitAjA/1EAPv7viXU5YlpEV0ceZSOyU2O4sFODOlbdqTEtQjkCLTI5ccQJCJUOLpmFsEnSWjpoB4UjcuLIujk5MvRx4ggsPiBi6xx2xV762mo+81f4GTMzciJ52JXNucOBr63m1Y8cGpPRcaHm4TvmWZtcaHNmtZWpDjkZYec+L4+dDETX+swZ8zDvCJE/J2gYx5rNh0cbThhH3VgmYrCQLZzCBbwmLYIWQgSAHAGcHKEWcXLkcGlEd2pw4shwpyYWjnCn5uyJI6oYXHJuwyFuNsd5nDgify3ZiSP7hp0aWHxAxNY57Iq99LXVfOav8DNmZuRE8rArm3OHA19bzasfOTQmo+NCzcN3zLM2udDmzGorUx1yMsLOfV4eOxmIrvWZM+Zh3hEif07QMI41mw+PNpzQjbrlNBFDezU9YBm2cAoX8EK1CID/WgN8ZvCrAHQlIgsklCNDRQI5gtWR+WdqKEfc6sgpOYI6VruH9gM98He//QsqDigdnIaY2JDJ5OEMf/HFD/qtNAxPHNENl+gjVH9Iw0d8zeIDIrbOYVfspa+t5jN/hZ8xMyMnkodd2Zw7HPjaal79yKExGR0Xah6+Y561yYU2Z1ZbmeqQkxF27vPy2MlAdK3PnDEP844Q+XOChnGs2Xx4tOGEmrz9NBEDkmwL1/D6tAhaCBHAaRFDpkVUjhwWjpgWcR/x1dUR9xFf1LEOP+JrcsQIj5+nQU8ccariUEaYuSGanJtxYObHE0egIdQoLJzvQuczhP+9pI41ts5hV+ylr63mM3+FnzEzIyeSh13ZnDsc+NpqXv3IoTEZHRdqHr5jnrXJhTZnVluZ6pCTEXbu8/LYyUB0rc+cMQ/zjhD5c4KGcazZfHi04YSavOs0EQXybAvX8Ga1yMrSSJQjpkUMWeGI1rFq4QjrWN1HfOcnjlzTE2xdcm7GgSG8q3AkmpMm1trl4gMits5hV+ylr63mM3+FnzEzIyeSh13ZnDsc+NpqXv3IoTEZHRdqHr5jnrXJhTZnVluZ6pCTEXbu8/LYyUB0rc+cMQ/zjhD5c4KGcazZfHi04YR0rpWJZB/iJRC2/sJ1vAUtYjglR0yLrCyNuJ0a0yKG+U6N+4iv26nRwpF/GE4cOTQVE+uGUW6s+YtfVXPWohb5zdFnamLrHHbFXvraaj7zV/gZMzNyInnYlc25w4GvrebVjxwak9FxoebhO+ZZm1xoc2a1lakOORlh5z4vj50MRNf6zBnzMO8IkT8naBjHms2HRxtOCOeW00QMfAcRCBulcB0vWosY3H82W/xaKJwcmWiRRxXrmTrWszs1KkewNGJaxLB44oiKBloUE/QnBhrJmARmoTtx5Gs5ccSZ5dk19xE6n4UjfC7E1jnsir30tdV85q/wM2Zm5ETysCubc4cDX1vNqx85NCaj40LNw3fMsza50ObMaitTHXIyws59Xh47GYiu9Zkz5mHeESJ/TtAwjjWbD482nNCcW8pEiGHYWIXreOlaxKD/2Wy7ABE4LWKYyxHVIpQjpkUMbaPmm6+qMcxPHFE54k4cgRz5jxu+il9V86QSJqbqYdEcHz6SzMNxJ44MC0dgEBaHPkPnuzrW2DqHXbGXvraaz/wVfsbMjJxIHnZlc+5w4GurefUjh8ZkdFyoefiOedYmF9qcWW1lqkNORti5z8tjJwPRtT5zxjzMO0LkzwkaxrFm8+HRhhOac1eZCHy0RKMUdvEKtAiA/3LXQoUonCJZkSOHqyPYqXGrI2flCFZHhoUjKg6cqXqItjIEPjMu/IM7CkeoOZzvzC7HB0RsncOu2EtfW81n/go/Y2ZGTiQPu7I5dzjwtdW8+pFDYzI6LtQ8fMc8a5MLbc6stjLVIScj7Nzn5bGTgehanzljHuYdIfLnBA3jWLP58GjDCe86TQQ+3z4E8oVNvGItYoD+UDgtYhjKEbdTQzliWgSrI8PCEV0dYeFIrGPlR3xdHeuwcAQnjqh6YOiSc+MQHeVmIEfDwYkj7SO+TmEghON8Z1mXng0fW+ewK/bS11bzmb/Cz5iZkRPJw65szh0OfG01r37k0JiMjgs1D98xz9rkQpszq61MdcjJCDv3eXnsZCC61mfOmId5R4j8OUHDONZsPjxanPBamcjwNBGEfAcBSBb28bq1iDn4RVEcyhEsjVCLQI6sFI4YeOIICkdcHeukcAR1rNAivnAknDjiNITasAtJds3DmHQnjnydnDhCx/mHXfRZxxpb57Ar9tLXVvOZv8LPmJmRE8nDrmzOHQ58bTWvfuTQmIyOCzUP3zHP2uRCmzOrrUx1yMkIO/d5eexkILrWZ86Yh3lHiPw5QcM41mw+PJqb8N7TRJhBy0zhFrwaLQLw94AhMxAiAOSIYahFIEf+rwYqkkM5ojs1+FhN3KlxH/HlTo1pEezUcGnExAp+BAMKR4aKwdlET7BryHEWB64XjkSD4Bj6DOmjcASPDG2dw67YS19bzWf+Cj9jZkZOJA+7sjl3OPC11bz6kUNjMjou1Dx8xzxrkwttzqy2MtUhJyPs3OflsZOB6FqfOWMe5h0h8ucEDeNYs/nwaG7CW8pEDPCZRMtM4Ra8ES1iwC8N0JVIw4oc4eqIaRFD26iZfVUNC0cWd2r+kwbdqRl+VQ11w0RAuHCYzEIYB9Is3CkccfpD/WGXXQ6PDG2dw67YS19bzWf+Cj9jZkZOJA+7sjl3OPC11bz6kUNjMjou1Dx8xzxrkwttzqy2MtUhJyPs3OflsZOB6FqfOWMe5h0h8ucEDeNYs/nwaEq46zQRvGL4onFh4S68HS1iDoQI0JXIqI6VWoRyhFrkcKcGcoRLIypHuFOjJ45AjridGnymxhALRzKDYnAhk64XliWdIWltPHGE6kFVBXyEh/7Qhjs1zmFX7KWvreYzf4WfMTMjJ5KHXdmcOxz42mpe/cihMRkdF2oevmOetcmFNmdWW5nqkJMRdu7z8tjJQHStz5wxD/OOEPlzgoZxrNl8eDQSbvnSGbxctFWncC9emRYB9NfC+RAigNMiBsqRqEi4U4PVkUU54lZHVI4MV0dUjmCzxu4B92+IJ46oVnDJLBwa54FpUs2dOPL4qponCaIGSbHiI4x+3KlxDrtiL31tNZ/5K/yMmRk5kTzsyubc4cDXVvPqRw6Nyei4UPPwHfOsTS60ObPaylSHnIywc5+Xx04Gomt95ox5mHeEyJ8TNIxjzebDo4FwV5kIfbbqFO7FW9YihqEcmWiRldWRuFNz7QA0yBEj4P4N7sSRqBXMhsm5YYgbOAytdYUj/1FSOAJhMfQZZj5CkyN4cPD5og67Yi99bTWf+Sv8jJkZOZE87Mrm3OHA11bz6kcOjcnouFDz8B3zrE0utDmz2spUh5yMsHOfl8dOBqJrfeaMeZh3hMifEzSMY83mw6OBcONpIgjZqlO4F69SixD2a6G/IgZIEGKoRa7JEdMiBlc4wqURrWN1hSNax8qlEa1j9YUj7ZvznFaADZO0bAhMM/SZYfLxVTXP/9i+//l3o6q4xexyfHw4Bz4d7aWvreYzf4WfMTMjJ5KHXdmcOxz42mpe/cihMRkdF2oevmOetcmFNmdWW5nqkJMRdu7z8tjJQHStz5wxD/OOEPlzgoZxrNl8eDQj3HWaiAEhHIaFD4Q3rkUMF+TI4dLI5Z2aWDgCOfKscORX/qZTDys25Lt5IgcElx+eOGLSQVc1EMJxvgtdl5qeOOIc+HS0l762ms/8FX7GzIycSB52ZXPucOBrq3n1I4fGZHRcqHn4jnnWJhfanFltZapDTkbYuc/LYycD0bU+c8Y8zDtC5M8JGsaxZvPh0e4qEwGQgcOw8IHw1rQIABVCODlyqEXW5chwpwZy5NROzfzEkUPLRIZLOnMchLDBiSNNPVgLow9VoflhF3yE6nOnxkwd+HS0l762ms/8FX7GzIycSB52ZXPucOBrq3n1I4fGZHRcqHn4jnnWJhfanFltZapDTkbYuc/LYycD0bU+c8Y8zDtC5M8JGsaxZvPhzq6ViXz95z/sj7n2ErH3hbXwmdSw8IHw1rSI+hAiBqdFDBfkiGkRQ9uo+earamLhCHdqVI6YFtGdmuGJI0bAzRtc4cjEIB1i0mXU2Ks0zANDGAtHoB6oLYa+C53PUP3vPf+qGjjw6WgvfW01n/kr/IyZGTmRPOzK5tzhwNdW8+pHDo3J6LhQ8/Ad86xNLrQ5s9rKVIecjLBzn5fHTgaia33mjHmYd4TInxM0jGPN5sOdXSsT0beGvSzaq+OZ+KBT+KB43VrEoL8x6qOFFgGcIrkgRxZXR4ZyxBWOuNWRceGIaIWhQTdo6DLR4hC0OhZOPHHk++3EEcgIVRXOmfvKp2+Xs0cJHzTmwKejvfS11Xzmr/AzZmbkRPKwK5tzhwNfW82rHzk0JqPjQs3Dd8yzNrnQ5sxqK1MdcjLCzn1eHjsZiK71mTPmYd4RIn9O0DCONZsPV7vrNBFztFWn8EHx6rUIYb8x7rfHWqgQAFoEuCBHTItgdWRYOKJ1rCwccXWspkWGH/HF6ohpkS+//NLmxI9gyE4coYCIycwmQ6wd9prFE0cgHc6akyPRj4Uj8OloL31tNZ/5K/yMmRk5kTzsyubc4cDXVvPqRw6Nyei4UPPwHfOsTS60ObPaylSHnIywc5+Xx04Gomt95ox5mHeEyJ8TNIxjzebDaXd96Qx8vj40LHxovHEtYsAvGdCVSMNQjlCLUI5cqGNF4UisY80KR1DHiqURXzhydOKIExBRT5gNOdqqo6G1f/o7/16/lQYUjnwI4wFoZubApwMfDn1tNZ/5K/yMmRk5kTzsyubc4cDXVvPqRw6Nyei4UPPwHfOsTS60ObPaylSHnIywc5+Xx04Gomt95ox5mHeEyJ8TNIxjzebDabecJmItQ7aFj4b3pUUMXYlcWho53KkZfsQ3q2PNdmqsFz+F4VE40j7iqxJhMYQNOSvzsP3JD3/U76bhrhNHYpcWjuChQwc+HPraaj7zV/gZMzNyInnYlc25w4GvrebVjxwak9FxoebhO+ZZm1xoc2a1lakOORlh5z4vj50MRNf6zBnzMO8IkT8naBjHms2Hw+46TcTADNvCR8N71yKGRTliWsTQNmpmX1WzslNjyHZqxoUjoxNHXOhM9USWHM5ADnvjiSO///l3qSeGpoLDhc5nCN8uZw8Xe+LgoUMHPhz62mo+81f4GTMzciJ52JXNucOBr63m1Y8cGpPRcaHm4TvmWZtcaHNmtZWpDjkZYec+L4+dDETX+swZ8zDvCJE/J2gYx5rNh5v99ZtOEzEHLR2GhY+Dd6dFDE6LGChHnBahHLmwU6NyxO3UGFg44nZqbjlxhHoiJufGgTqDtXcVjkRz0oSFI3jo0IEPh762ms/8FX7GzIycSB52ZXPucOBrq3n1I4fGZHRcqHn4jnnWJhfanFltZapDTkbYuc/LYycD0bU+c8Y8zDtC5M8JGsaxZvPh18pE6tvvXibevhYxQIIoJnJEFQm0COUIVkcuyJGfNMTCkbg6onLE7gE/jiEWjmSmMsIl52YcGEMmzfnIhSN46NCBD4e+tprP/BV+xsyMnEgedmVz7nDga6t59SOHxmR0XKh5+I551iYX2pxZbWWqQ05G2LnPy2MnA9G1PnPGPMw7QuTPCRrGsWbz4XedJmJAyDycwsfEu9AiBkgQxVCOOC1COdI2ak4Ujrg61p82ZIUjujqCwhHIESPgxzEsnjgC6QD1sGjk60D4DGE/+Uf/uN9Nw3/4/MQRNWy4ZD7CoQ/7nnxVDZ8++hhi7zCf+Sv8jJkZOZE87Mrm3OHA11bz6kcOjcnouFDz8B3zrE0utDmz2spUh5yMsHOfl8dOBqJrfeaMeZh3hMifEzSMY80m/BtPEzEgwy44hY+Jt6NFDO6XyVoAPiQIMdQi86WRuRzJCke0jlULRyBH3IkjWjjy5Zdf+sKR5+LAmVMPTkkMLQoOZDRJP5448vvtxJGhmaTIfIbRR2jt954ePXz66GMIvraaz/wVfsbMjJxIHnZlc+5w4GurefUjh8ZkdFyoefiOedYmF9qcWW1lqkNORti5z8tjJwPRtT5zxjzMO0LkzwkaxrFmGf/eMhE6recbp/Ax8aa0CMHfLUB9CBEAcgRYlCNto+abOtZrOzWQI4c7NfiI77PCkfzEEScgDm04JIYuc0vhCPWH8zV0hSP6GKKvreYzf4WfMTMjJ5KHXdmcOxz42mpe/cihMRkdF2oevmOetcmFNmdWW5nqkJMRdu7z8tjJQHStz5wxD/OOEPlzgoZxrNmQf+OXzpivTussfBq8Oy1igBABuhJpyLRIlCObOzUoHDncqUHVyMqJIyoanHoYmvIR0qe5JEJrXeHIj7/4wd/67FsqI+AzVP9UlxaO8DGkvraaz/wVfsbMjJxIHnZlc+5w4GurefUjh8ZkdFyoefiOedYmF9qcWW1lqkNORti5z8tjJwPRtT5zxjzMO0LkzwkaxrFmQ/5dp4kYENJp/YVPg3enRcyHCgG6DGmYLI1QjrSNmrEcMS1iMC1iMC1CORJ3amLhiNupgRzhTo0vHJGP+FrrRIOa6xoOyTguqfbT5yeO/IdPJ444YUHH+Ydd9Fk4wseQ+tpqPvNX+BkzM3IiediVzbnDga+t5tWPHBqT0XGh5uE75lmbXGhzZrWVqQ45GWHnPi+PnQxE1/rMGfMw7wiRPydoGMeaRf5dp4nAR6th4VPhbWoRAL9khqEPLQJ0MbImRy6sjpgcwerIWTnC1RFXOGKCQBUDnYlxiBsbjV06BIbwceLIc8xPHKHIYJj5DOnbFfkY0keSazWf+Sv8jJkZOZE87Mrm3OHA11bz6kcOjcnouFDz8B3zrE0utDmz2spUh5yMsHOfl8dOBqJrfeaMeZh3hMifEzSMY81c8q4yEYP5bDUsfCq8ZS1i0N8zgD5UCNCViJSyzuXIcHUkKxzROlaeOKKFI5AjWjgS61j9iSO//OtQBlQMtGGorTrDEMYhNCbN/vjDnDjipIm1KBwxi48tbTWf+Sv8jJkZOZE87Mrm3OHA11bz6kcOjcnouFDz8B3zrE0utDmz2spUh5yMsHOfl8dOBqJrfeaMeZh3hMifEzSMY800eeNpIgYL2cIpfFqUFulwWsTg5Ai1COXI4tII61ixU4PCESyNxBNHXOGInjhyWDhiRq2goZMRQ44L2dKYpMXCkbiq4UI4zj801rHyqQRfW81n/go/Y2ZGTiQPu7I5dzjwtdW8+pFDYzI6LtQ8fMc8a5MLbc6stjLVIScj7Nzn5bGTgehanzljHuYdIfLnBA3jWDNN3niaiAEZtHAKnxZvXIsY9BfOQB8SRDHXIipH2kbN9Z0alSNupwZyJO7UQI5Yb/uZHognjjitMBQQziZDrNWQpkl34oh+VY1pCPoaQl6oj3Do035LCkfM4Gur+cxf4WfMzMiJ5GFXNucOB762mlc/cmhMRseFmofvmGdtcqHNmdVWpjrkZISd+7w8djIQXeszZ8zDvCNE/pygYRxrxuQFIfI3/vV/Aw98Ax747cHfgSRaOIVPi9Ii3+BwacTJkbZR840cMS1iMC1imO/UaOHI8MQRfsTXwJ0aQywccRLBhS7pLBui+YyDMBaOfD8/cYRm2kJ9htHX0C7nnlDaaj7zV/gZMzNyInnYlc25w4GvrebVjxwak9FxoebhO+ZZm1xoc2a1lakOORlh5z4vj50MRNf6zBnzMO8IkT8naBjHmiF5oUzk83/pXx6WiRCW1LbwyfF+tYgBEkQxkSMTLWKYL42YFtGdGgNPHBnu1ECODHdqYuGIigOYUwwrxiGTUcNpHyeOyB8zC0eckhj6p7pYOMInlLaaz/wVfsbMjJxIHnZlc+5w4GurefUjh8ZkdFyoefiOedYmF9qcWW1lqkNORti5z8tjJwPRtT5zxjzMO0LkzwkaxrFmlrzlNBGDOf2534Cw9RdeBN6+FgHw+2dQ34BfU8VEjqgi0Z0aKJL1whGsjrg6VsiRWMfq5MjgxJFv/4KKg7meGBqGcNRw+JCDzJ/+9u/1W2n4+osf/MZn33JKIvpwYui61Fwdq7aaz/wVfsbMjJxIHnZlc+5w4GurefUjh8ZkdFyoefiOedYmF9qcWW1lqkNORti5z8tjJwPRtT5zxjzMO0LkzwkaxrFmlrzrNBH4BMJGKbwIvBctYtBfQQA+WggRAHIEoBxxWsTJEdMih4UjpkVQOAI5slI4oqsj+hFfIzx+pAaeOEJxAH9osXdliOMww+RPnp84gsIRUw/WwpzPMPoIM/97UseqLWzur/AzZmbkRPKwK5tzhwNfW82rHzk0JqPjQs3Dd8yzNrnQ5sxqK1MdcjLCzn1eHjsZiK71mTPmYd4RIn9O0DCONbtWJtIfQ08P9sez/vmT34CwsQovAu9Iixj4Kwi4DISIocuQBmqR4dLIohwxLWJg4Yh+rGZeOKJ1rO4jvq5wRJXBojk9kZlyOMQlT31VjRmExdBnGH2EdkU8trSFzf0VfsbMjJxIHnZlc+5w4GurefUjh8ZkdFyoefiOedYmF9qcWW1lqkNORti5z8tjJwPRtT5zxjzMO0LkzwkaxrHXykTih3jNYUu0/sILwvvSIkD/Zcy1iKErEdmsGcoRro5AixhMixjmOzUXThwxLQI5ojs1Nmf7gR7IvqrGjKJBTcVEtMkQdjlO/KoaSAeVERo6Qy8J0WeIs+HtUaUtbO6v8DNmZuRE8rArm3OHA19bzasfOTQmo+NCzcN3zLM2udDmzGorUx1yMsLOfV4eOxmIrvWZM+Zh3hEif07Q0HVdKxMZniZiPluiUQovCKVFnrUQIsC6FlE5sn7iCD9Tozs1KBxZ3KnZPHEkM+tVAofEpAvdiSNff/GDiaRgGM2R1UeoJ45kj7Por/AzZmbkRPKwK5tzhwNfW82rHzk0JqPjQs3Dd8yzNrnQ5sxqK1MdcjLCzn1eHjsZiK71mTPmYd4RIn9O0NB17ZeJEAhjsvCiUFrkWdtlSIPTIoaJHIEWyeSIaRHDY5/mpq+qgRwZfFXNc3EwVAyZTYYwOZyBHDN34gi/quZ241fVZI+z6K/wM2Zm5ETysCubc4cDX1vNqx85NCaj40LNw3fMsza50ObMaitTHXIyws59Xh47GYiu9Zkz5mHeESJ/TtBQ/RvLRAzIoIVTeIF4j1rEwF9K10KFKJwimcuRxdURLI3cIkdi4ci/+9nPURxQLsTQmRuioUvShpyzhSM79r3wCJv72mpe/YyZGTmRPOzK5tzhwNdW8+pHDo3J6LhQ8/Ad86xNLrQ5s9rKVIecjLBzn5fHTgaia33mjHmYd4TInxM0pH/XaSLmWEtHw8ILxDvVIgb+dmoL/aFwWsQwlyPUIipHTItgdWS/cGRYx2pzPn6khn/4K39TxQHMhc6cnnDh0MihMTk4ceSzbzkZ4YybL86fdJmTnQ2f+dpqXv2MmRk5kTzsyubc4cDXVvPqRw6Nyei4UPPwHfOsTS60ObPaylSHnIywc5+Xx04Gomt95ox5mHeEyJ8TNIR/7Utnhseama8O28LLRGmRZ60BEkSxKEcmWmReOKIf8YUcYeGIHoDmCkdQxzosHPl74cQRDZ25XlUV6qiRQ9Okte7EkR9/8YNDOTIx6o/oD8+Gz3xtNa9+xsyMnEgedmVz7nDga6t59SOHxmR0XKh5+I551iYX2pxZbWWqQ05G2LnPy2MnA9G1PnPGPMw7QuTPCRrCv71MhE7rL7xcvF8tAuhvKtuuQQQXlkagSM7u1Pb2FLAAAHoiSURBVByeOJLt1Fjv4+dp0MKRuUE6uNAlnZGjZIYw8z9O4QjkiHucZb62mlc/Y2ZGTiQPu7I5dzjwtdW8+pFDYzI6LtQ8fMc8a5MLbc6stjLVIScj7Nzn5bGTgehanzljHuYdIfLnBA3Nv6tMBD5aDQsvGaVFnv3iojVAghCnlkaiHDEtYmgbNd/UsQ53arRwZHjiSLZT8+WXX/rCEREHQ4sCgn5mGMKB2jobFo64VQ0XZvnDLrvc8NHmfG01r37GzIycSB52ZXPucOBrq3n1I4fGZHRcqHn4jnnWJhfanFltZapDTkbYuc/LYycD0bU+c8Y8zDtC5M8JGt51mojBfLYaFl4ySos8+8XV1gAhAhzKESyNUItQjsSlEUO2U6OFI26nxqCFI7pTc/bEETMnIIZ6wlkcopk4QzxxhDJibqo55j5CdzZ85murefUzZmbkRPKwK5tzhwNfW82rHzk0JqPjQs3Dd8yzNrnQ5sxqK1MdcjLCzn1eHjsZiK71mTPmYd4RIn9OYHjLl87goW2wkC2cwsvHe9ciAH9xYwshAkCOAEM5wtURbtZAkZgc4eoIFUmsY+VmjatjhRyJdaxDOWL3YHcOZCeORN0wtyg73Awxg2R24sihUXNEn6H6K3Ws2mpe/YyZGTmRPOzK5tzhwNdW8+pHDo3J6LhQ8/Ad86xNLrQ5s9rKVIecjLBzn5fHTgaia33mjHmYd4TInxMY7peJ2PPZWgAZtHAKLx+lRR7gL25sDRAiQFciskBCOUItAjmiWkQLRwzQIiwcgRyBFtE6VtMiWB0ZFo5oHasWjhjB7hyIhSNONEQB4czxkdEwy9Bc4chmHevEDutYtdW8+hkzM3IiediVzbnDga+t5tWPHBqT0XGh5uE75lmbXGhzZrWVqQ45GWHnPi+PnQxE1/rMGfMw7wiRPycgvLdMhI6GhZeP0iLfgL++sYUQMXQlMtIiQzkCReLkiNaxmhYxXCgc0TpW9xFfXzhy9cQRmEu6cJihWeZROPL8cfD7n38X6sEteKiPEA67NBz6OHFEH3Pqa6t59TNmZuRE8rArm3OHA19bzasfOTQmo+NCzcN3zLM2udDmzGorUx1yMsLOfV4eOxmIrvWZM+Zh3hEif06w8K7TRPispsO28CpQWuQbxF9ithAigNMihrkcgRYxtI2ab+RIXBpxcsTt1GQnjpgWgRzJCkfciSN0hiEMSmI+RAkMaZo8e+IIRQZD9RlGn4UjeMw5X1vNq58xMyMnkodd2Zw7HPjaal79yKExGR0Xah6+Y561yYU2Z1ZbmeqQkxF27vPy2MlAdK3PnDEP844Q+XPChygTodP6C68GpUW+gf4SuxYqhBjKkYkWmS+NZHWsbqcGhSOLOzX+xJGnwhGqhEkIAeGS8xBD1NgFcyeOrNexRqP+iL7KEX3qwddW8+pnzMzIieRhVzbnDge+tppXP3JoTEbHhZqH75hnbXKhzZnVVqY65GSEnfu8PHYyEF3rM2fMw7wjRP6ccGF35us//2F/iDw9md2zWsPCK0JpkW+gv8SuhQQhhlrkmhwxLWJ47NPceja8aRETK3bzAApHVBxkobV02GamQ2BM0piMhSNUEpARLjzsciH97yV1rNpqXv2MmRk5kTzsyubc4cDXVvPqRw6Nyei4UPPwHfOsTS60ObPaylSHnIywc5+Xx04Gomt95ox5mHeEyJ8QrpWJ4JlswGPZWmTYwim8OpQW+Qb8bY6tASpE4RTJZTmS1bGaHMHqyDU5Migcea4S1KgY6LArhjAdAmNSe9n+/XDiyPflq2pUVSDUPMKhPzS7nD714GurefUzZmbkRPKwK5tzhwNfW82rHzk0JqPjQs3Dd8yzNrnQ5sxqK1MdcjLCzn1eHjsZiK71mTPmYd4RIj8j3HiaiMFCtnAKrw6lRTz4Oz1soUIAp0UMF+SIaRGsjlwoHMFODQtHYh3r4okjQxlBcyFsZUhM/vH0xBHTEBrSIC8yH6H6ZsPP1GirefUzZmbkRPKwK5tzhwNfW82rHzk0JqPjQs3Dd8yzNrnQ5sxqK1MdcjLCzn1eHjsZiK71mTPmYd4RIn9IuOVLZwzm2GNZn88MC68OpUU8+DudtfgzABbliGkRypHLhSOQIywcwQFow8KRUyeOON0QBYSGsJUhWdKdOLJYOEKREf2sK54Nr63m1c+YmZETycOubM4dDnxtNa9+5NCYjI4LNQ/fMc/a5EKbM6utTHXIyQg793l57GQgutZnzpiHeUeI/CFh/zQRgD4ctoXXiNIiHvE327WGrkQanBwZapH50sjiTg3qWIc7NZAjWBqBFtGdGl848tnPqUSAMaM2zDu+4yDMknB+8sMf9btpeBSOfPYtVRXRd5blnaFwhE9AbTWvfsbMjJxIHnZlc+5w4GurefUjh8ZkdFyoefiOedYmF9qcWW1lqkNORti5z8tjJwPRtT5zxjzMO0LkR8LmaSIGe+riOWy+OmwLrxGlRWaIv+VooUIAaBHgghwxLWJoGzUXv6rGtIhBP+KLqhHdqfGFI02OUBwMbdh1OEQJcGLyUTjy/JHx/c+/C/UA/UGpoaHmEQ59Z3ZFPhC1hUU/Y2ZGTiQPu7I5dzjwtdW8+pFDYzI6LtQ8fMc8a5MLbc6stjLVIScj7Nzn5bGTgehanzljHuYdIfJd5q7TRMxhq2Hh9aK0yAz6W+5aCBGgK5GGoRyhFqEcMS1iOLVTEwtHuFNj0MIRVo3oTo0WjvzDX/mbTh/AmZjyhwYCOQw1SVv5qhpTEi4Dg8jIfIT09Wx4bWHRz5iZkRPJw65szh0OfG01r37k0JiMjgs1D98xz9rkQpszq61MdcjJCDv3eXnsZCC61mfOmId5R4h8zVwrE6lvv3snKC1yDP1dZwsVQnQlcmazhksjWB3ZlCPYqYmrI1nhCE8ccRZ1g9lQT9BiF/iaj5xYOAIZocIi+sNw6NNMjuCBqC0s+hkzM3IiediVzbnDga+t5tWPHBqT0XGh5uE75lmbXGhzZrWVqQ45GWHnPi+PnQxE1/rMGfMw7wiRr5m7ThMxIEQLp/DaUVrkGPyl1xYSROG0iIFyxGmRKEdWCkeGdazDwhHWsbrCESM8fp4GnDjizCkGhFQVUU9EA5lDhkbC4KtqmnqA2qCwUJ+mGeczpI86VjwW9eEY/djOjZxIHnZlc+5w4GurefUjh8ZkdFyoefiOedYmF9qcWW1lqkNORti5z8tjJwPRtT5zxjzMO0LkM7N5mojBnrHDRzGcwmtHaZFj8JdeWwMkCDHRIvOlkUyOmBYxnCocwdJIrGNF4YjJkeGJI0PdgCS7HCcbAmPILppy4okjvy8njpwyJ0foM7TL4bGoj8vox3Zu5ETysCubc4cDX1vNqx85NCaj40LNw3fMsza50ObMaitTHXIyws59Xh47GYiu9Zkz5mHeESIfmVvKRAzw+RBGC6fw2lFa5Bj8pXct/jwU63LEtIhbGjGYFjFkOzWHJ45gaQRaZLJTYzPYzQN//Mu/7hQDQpd0lg3RsXMOk/MTR240t1OjD0r1Yzs3ciJ52JXNucOBr63m1Y8cGpPRcaHm4TvmWZtcaHNmtZWpDjkZYec+L4+dDETX+swZ8zDvCJFvmRu/dAYhHG0LbwClRY4Rf/XZQoIohnIkahFdGqEcOXviiGkRA08cwU4Nl0aynRqTI3Yhu38gO3EkM9eL0Fo67GI45CA0G5w4knxzXrb4YX7WpaHWsfJB6fzYzo2cSB52ZXPucOBrq3n1I4fGZHRcqHn4jnnWJhfanFltZapDTkbYuc/LYycD0bU+c8Y8zDtC5FvmltNE4DCjYeFtoLTIMfRXf9h2GdIw1CJRjkCLQI7o6ojKEdMihrZR89ipMbgTR7g04gpHsp0ayBHTIkawOweGJ44wdOa6EDI56bV2Ev40nDgy/yLfaJkWMZ+hOcPzWNWP7dzIieRhVzbnDge+tppXP3JoTEbHhZqH75hnbXKhzZnVVqY65GSEnfu8PHYyEF3rM2fMw7wjRP5dp4mYg5YOw8LbQGmRc9A/A9dCiwBQJEAmR5wiWVwdcXWs1+TIqcIRmutVMRFNe8kZhmaDr6r5/LvUE5vmpIldjg9KfXTCj+3cyInkYVc25w4HvraaVz9yaExGx4Wah++YZ21yoc2Z1VamOuRkhJ37vDx2MhBd6zNnzMO8I7jwrtNE+IxF0oWFt4HSIuegfwauhQoBugxpmKyOUI4MV0dMi2B15GzhiNaxauGI1rG6wpE/++3fozJYMSNP+OgCh0y0NBeunDhyi2GnBqaPTvixnRs5kTzsyubc4cDXVvPqRw6Nyei4UPPwHfOsTS60ObPaylSHnIywc5+Xx04Gomt95ox5mHcEDa+VibjTRAzm6JNWncJbQmmRc9C/Ctca8McDdCUi+zVDOWJahHLkbOEIPlOjH/F1J45khSOsY9XCkT/4xb+u4mBiTkY4Y69KEGt1lPoMh19V41Y16GtojvMRDn0zyhF9dMKP7dzIieRhVzbnDge+tppXP3JoTEbHhZqH75hnbXKhzZnVVqY65GSEnfu8PHYyEF3rM2fMw7wjaLhfJmJPUWvhs1Wn8JZQWuQK4l8IWwgRYEWLcGnklBxxhSOoY72wU+MLR55LBLMoGlzG2ZAfkzEEzZ048vXTiSOHBsFBn2H0EeKravTRCT+2cyMnkodd2Zw7HPjaal79yKExGR0Xah6+Y561yYU2Z1ZbmeqQkxF27vPy2MlAdK3PnDEP847A8MYyEYM+Y9UpvCWUFrkC/dtwLVQI4LSIYS5H2kbNN3LEtIihbdQsfVUNtMjhTo1pEQN3aoxvdw6wcGRokAsuqeZ6Iz8OB4fMu04cof6Ixi67nD5J4cd2buRE8rArm3OHA19bzasfOTQmo+NCzcN3zLM2udDmzGorUx1yMsLOfV4eOxmIrvWZM+Zh3hEQ3lsmYoDDsPAmUVrkCvRvw7VQIcShHKEWoRy5sFNjwE4N5chwpwZyJO7UmKCxmwf+NBSOIHRJZxQTGrohMXQ0+I/CEXnoaOGIKgyucDCkH8Oh8cQRfYzGdm7kRPKwK5tzhwNfW82rHzk0JqPjQs3Dd8yzNrnQ5sxqK1MdcjLCzn1eHjsZiK71mTPmYd4RLLz2pTNOiBjMwUOVDsPCm0RpkevQvxC2+ENSHMqRuDpCOYLVkZXP1EQ5gtURyJHh6khaOPL5L6liYKuOmktaqJlsCE1D9Joe6rfSoCeOTPQHzfLsgo8w+jgbno/RYTs3ciJ52JXNucOBr63m1Y8cGpPRcaHm4TvmWZtcaHNmtZWpDjkZYec+L4+dDETX+swZ8zDvCBbeXiZCh2HhTaK0yHXoXwhbAySIYiJHhlpkcXUEOzUoHDEtooUjpkWwOuIKR2IdKwpHTK88fqQGnjhCoQCJ4Mz1Msz4Zsohkw45Zj+JJ448yYsVg+CgzzD6lCN4qsZ2buRE8rArm3OHA19bzasfOTQmo+NCzcN3zLM2udDmzGorUx1yMsLOfV4eOxmIrvWZM+Zh3hHuKhMxmI+WDsPCm0RpkV3o3wlbSBBiokVUjrSNmm+WRg7lSFwa4YkjWeFIrGNF4YjJERvy+Hka/uKLf6D6IBp6yRmGzsihMVQOwsGJI1e/qsaM+iP6ZnY5PlVjOzdyInnYlc25w4GvrebVjxwak9FxoebhO+ZZm1xoc2a1lakOORlh5z4vj50MRNf6zBnzMK+Ea2Ui7kO88XGqTuENo7TILuIfj7UGqBBiXY6YFlE50jZqZl9VY3LEcHmnBnIkFo782W//HiWCM1UPDJmc9FpLY9JxaPHEEUgHlRFOVTgfTgxdl54NH9u5kRPJw65szh0OfG01r37k0JiMjgs1D98xz9rkQpszq61MdcjJCDv3eXnsZCC61mfOmId5OrecJoInp/naqlN4wygtsov4x8PWACECQI4AlCNOi0Q5srJTgzrW/Z2alRNHnGJwoTMVGdZqSHNJDeOJI1ASMPVdSN8cmPrOrItnw8d2buRE8rArm3OHA19bzasfOTQmo+NCzcN3zLM2udDmzGorUx1yMsLOfV4eOxmIrvWZM+Zhns6F3Zn/4I++6H/YT09LA0O2hXeC0iL3QP94XNuVSKJFhksjkCOPspGpHDEtYvifG9xmzfxjNVgdGR6A5gtHniQCzCQCRQNC+tGoKiZDyHEh7dqJIxQZQ3/YhcIRPFu1nVt8KNOGXdmcOxz42mpe/cihMRkdF2oevmOetcmFNmdWW5nqkJMRdu7z8tjJQHStz5wxD/Nw7i0TMcBhWHgPKC1yD/SPx7UGaBFAtYhhKEcurI5QjsTVEZMjpw5Ac4Uj/OY8CAUatIJm1NAVhxyG1tIs/IP8xBFVEgjpx1AtG2WXw7NV27m5h7LasCubc4cDX1vNqx85NCaj40LNw3fMsza50ObMaitTHXIyws59Xh47GYiu9Zkz5mHenAtlImb1Id6CQ2mRO6F/Qtrijw1wWsQwlyOT1RGnRfCxmljHis2a+QFoWsc6PHEEyoDmwmiHQxwBPpLsQjs4ceSzb5mGgFFSOB/h0M+MJ45oOzd9KDPpMtqVzbnDga+t5tWPHBqT0XGh5uE75lmbXGhzZrWVqQ45GWHnPi+PnQxE1/rMGfMwf61MxAkRe0jq05IOw8J7QGmRO6F/QtpChRCLcqTt1fxfQy0CORILR7hTw6WRyU7NsHBk8cSRuVFMMKSPcJhh3vWaZSeOmICA/nC+htAZ6iMc+nGnZm7kRPKwK5tzhwNfW82rHzk0JqPjQs3Dd8yzNrnQ5sxqK1MdcjLCzn1eHjsZiK71mTPmYf7C7syf/OEf9T/j9ngkEDIPp/B+UFrkTuhflLZdgwicHBlqES6NLO7UcGmEOzWmRbBTw8/UZHWscafGCHbnAAtHokpQy5SEMyWYr+Z6GVrrCkdOnThCzTH0EdJ3daxzIyeSh13ZnDsc+NpqXv3IoTEZHRdqHr5jnrXJhTZnVluZ6pCTEXbu8/LYyUB0rc+cMef5a2UiqjPsSRifluoU3g9Ki9yP+NcF/aFwWsQwlyPD1RHu1Bhc1Qh2auLSyPzEEdMiBu7UuMIRqgQnF2AUDRrOzTg0hkOC+cMTR5yMUF9Dc07Z9+SBOzdyInnYlc25w4GvrebVjxwak9FxoebhO+ZZm1xoc2a1lakOORlh5z4vj50MRNf6zBlzkr9WJlIf4i1kKC1yP+Jfl7UAhAhwoxyJqyMmR7g6wsIRtzoylCNaOPLVV19p4cjhiSNUEnQmobUwTao5glk8ccRpiLmpKHG+C/XEkbmRE8nDrmzOHQ58bTWvfuTQmIyOCzUP3zHP2uRCmzOrrUx1yMkIO/d5eexkILrWZ86YWf6uMhFzYlt4nygt8qEw/EszQIgAi3JEd2pUjjzKRkaFI251BJs1cXUEhSOxjtW0SFo4cv7EkWFoLY1Jmna5ZDxxhBriRoMcWXmUkxPJw65szh0OfG01r37k0JiMjgs1D98xz9rkQpszq61MdcjJCDv3eXnsZCC61mfOmFl+/zQRe/pZC9+1hfeJ0iIfCtlfmrUQIsBEjhxqkWxpxNWxcrOGH/FFHeuwcCQegGZ6xW4bGJ44MgmdoReqgiFNe9kVk4MTR56+Oe9e+97TV9VMjA/r+NQedmUP9x0OfG01r37k0JiMjgs1D98xz9rkQpszq61MdcjJCDv3eXnsZCC61mfOmMP8/mki9gzEwxC+awvvE6VFPhTi3xhbQ1ciT1oEcFrEyRFVJOt1rMOP+JocmReOuJ0aVziiJ45AHzCkHw295Dgye5U2TD5OHHn+zPr9z7/rZARNN1/UdF9GfRfa5dyD2Bkf1vGpPewaPtzNdjjwtdW8+pFDYzI6LtQ8fMc8a5MLbc6stjLVIScj7Nzn5bGTgehanzljxvwtp4ngGYgQjraF94nSIh8W8S8NLYQI0JVIw4oc4eqIaRFD26gZ79Q4OYKdmsUTR0yLQI5gp0YLR/60FY5AGSyaigl1NLRWacMkbHjiCMXEojn9oT5DFI5MjA/r+NQedkUabIcDX1vNqx85NCaj40LNw3fMsza50ObMaitTHXIyws59Xh47GYiu9Zkzpsv/2n2niRiQgcOw8G5RWuTDQv/SXAshAnQlIps1UYtAjqgWGS6NGIY7NVgaoRzhTs3kxBHDSuGIqoShQU+Q5vgISdCQSWeWHJw4Inpi01Sa4MSRzPiwjk/zYVekwXY48LXVvPqRQ2MyOi7UPHzHPGuTC23OrLYy1SEnI+zc5+Wxk4HoWp85Y7r8/mki9qzTxyAdhoV3i9IiHxb6l+ZaA4QI4LSIYbg6oorEyZHh6kgmR7RwROUIVkdc4QjkyLBwZKgV1DI9AUMvCXCYYV6NXde+quaCTQpH+LCOT/NhV6TBdjjwtdW8+pFDYzI6LtQ8fMc8a5MLbc6stjLVIScj7Nzn5bGTgehanzljav6u00SQYZ5O4Z2jtMjHgP75sTVAhRBOjixqkeHqSCwc0Y/4ah0rP+KrdayucIR1rK5wZKgVaNYLY8iuoZEP5pCvXfHEEX5VDU1XODTUjRj4CIe+mV2OD2U1Pqzj03zYFWmwHQ58bTWvfuTQmIyOCzUP3zHP2uRCmzOrrUx1yMkIO/d5eexkILrWZ86YzN91mog52qpTeOcoLfIxEP8IrTVAghBOixg25QgLR7g0onWsXBqZF45AjqCOdb1wxJIwhuyKITITPixy/njjxBEIDvouVN8sKxzhwzo+zYddkQbb4cDXVvPqRw6Nyei4UPPwHfOsTS60ObPaylSHnIywc5+Xx04Gomt95oyJ/C1lIgb4fABqWCiUFvkY0D8/tgb8iSoW5cikcARy5FE2khSOsI7VfcR3UjiiOzXzE0cgFKgYqBvUXBJkTcZRQw7sI5w4AmkylCN8iMen+bAr0mA7HPjaal79yKExGR0Xah6+Y561yYU2Z1ZbmeqQkxF27vPy2MlAdK3PnDGR3z9NBGDItlAgSot8DOifn2sNXYY8wcmRiRZZWRoZ7tQYVnZqIEfiTo0vHJGP+FIlMKS5EAYyuxY5Gpr95Ic/6nfT8PiqmqdvzosrHNFfCeHEwhE+xOPTfNgVabAdDnxtNa9+5NCYjI4LNQ/fMc/a5EKbM6utTHXIyQg793l57GQgutZnzpiW3z9NxJ5peNAhhMOwUABKi3wM6J/fsDVAiBicFjFsyhHTIpQjcaeGn6mZnzhiWsTAnRpXOGJyBOKAKkG1QhaCDGOSxqTmY2jt+okjqjDUVHzARxh9u5x7WDuHNuyKNNgOB762mlc/cmhMRseFmofvmGdtcqHNmdVWpjrkZISd+7w8djIQXeszZ8y7ThMxBy0dhoUCUFrk40H/CIcttAhwrxyZ1LHyxBFdHRnKES0c+er5V9W4whGVC1loLR12MRxyGMLU3/yqGjMIDvoMne92avgQj0/zYVf20N/hwNdW8+pHDo3J6LhQ8/Ad86xNLrQ5s9rKVIecjLBzn5fHTgaia33mIfPal87Mv/2ODsNCASgt8rGhf4quhQoBsDoCXJAjj7IRkSMsHKEc0cIRyhGujqBwJNaxmhY5LBxRiZCF1tJhF8MhB606apa8t3CE+iP6euIIH+LxaT7sGj70zXY48LXVvPqRQ2MyOi7UPHzHPGuTC23OrLYy1SEnI+zc5+Wxk4HoWp95yLzrNBEDQubhFAqK0iIfG/qX6VoDhAjQlUjDUI6YFqEcMS1COTJZGqEc4WYNCkd0syYrHNE61nHhyEgixNBaOuxi6LqGHBdaC7N76HfT8PUXPzDpQCWhvgvpw4nmuihH+BCPT/Nh1/Chb7bDga+t5tWPHBqT0XGh5uE75lmbXGhzZrWVqQ45GWHnPi+PnQxE1/rMkbl/mggeaHDYqlMoKEqLfBrEv1JrDV2GNHQZ0jDUIvOlkflOjdMikCPcqZkUjridGl848lwrOINicMlo5DjyMLSWNjxxBEqCmoO+C+mbA1Pfhebbpe2RzYd4fJoPuyINtsOBr63m1Y8cGpPRcaHm4TvmWZtcaHNmtZWpDjkZYec+L4+dDETX+syOee+XzmirTqGgKC3yaRD/Sq01QIUQXYlI7ciiHDEtYmgbNV6OxBNHuDTCj/hGOeJ2aiBHsFMTC0eGBrngkhNzfDcWITgwhDsnjqhBcNBnSB+FI3yIx+f+sCvSYDsc+NpqXv3IoTEZHRdqHr5jnrXJhTZnVluZ6pCTEXbu8/LYyUB0rc+szNu/dEbbQiFDaZFPg/hXihYSROG0iIFyhFqEcqRt1Ax2agymRQzcqWERq8kRFLGaHGHVCHZqPsSJI0NzXSBrMhLQ0mFrNigckY/4RlWRhfRdSN/kCB/i8bk/7Io02A4HvraaVz9yaExGx4Wah++YZ21yoc2Z1VamOuRkhJ37vDx2MhBd6zMrc/80EXtqwcEzTdtCIUNpkU+D+FfKFhJEMZEjh6sjkCO6OjKUI1rHytURJ0ewOjKUI75wZO3EkaGRzJA+MzSErtfan45OHIHaoJKIfuxiPjOeOBKf+8xoV/Z62OHA11bz6kcOjcnouFDz8B3zrE0utDmz2spUh5yMsHOfl8dOBqJrfWYy7zpNxBxr6bAtFDKUFvk0iH+lbA2QIIqhHHFaRFdHTIvE1ZFh4UjcrNETR2IdqyscYR1rLByhVpiIBheSrEkN1ZhRApxYOPL9pxNHTEDAcb6G0BnqI6SvZpfTpzmNGe3KXg87HPjaal79yKExGR0Xah6+Y561yYU2Z1ZbmeqQkxF27vPy2MlAdK3PDObtZSJ02BYKGUqLfErEv1W2kCDEUIusLI1M5EgsHOGJI4uFI1rHOiwcoThQxZCFGRlmSRrDSGAYC0d+5+f/GuTFikFnuOTQXOEIjRntyl4POxz42mpe/cihMRkdF2oevmOetcmFNmdWW5nqkJMRdu7z8tjJQHStz2zMa2UiepqIPbX4+IphoTBHaZFPD/2LdW1XIg2QI8ChHHmUjSQ7NY+ykbWdGkO2UwM5slg4EkVDDJnMemkMlaMhM4snjkBzUHzAoQ/O3LRwRJ/vznG+2g4HvraaVz9yaExGx4Wah++YZ21yoc2Z1VamOuRkhJ37vDx2MhBd6zMb85YyEff40rBQmKO0yKeH/sW61gAhAnQl0pBpEZUjbaPmYKdG5YhpEQN3arBZM9ypQeFI3KnxhSMjlRBDl6Sxl8YkjXkNafHEEScj5qZahAKFofqLX1WTvR52OPC11bz6kUNjMjou1Dx8xzxrkwttzqy2MtUhJyPs3OflsZOB6Fqf+a4yEYP5bDUsFOYoLfJSoH+32kKFAF2GNBwujVCOtI2apcIRrRr5756fDe92arITR76MX1XzXCjE0CVpzJsDc0l2IcNQbXjiCDXEjWZyxG5An+98E+grIXs97HDga6t59SOHxmR0XKh5+I551iYX2pxZbWWqQ05G2LnPy2MnA9G1OPPtXzrDFk6hsILSIi8F/AOOrQFaBFAtYsjkyNnVEdaOODnCwhGsjhzKka9GX1UTDVrBJWnaRSaTWUhjaM7jq2rkmfiXP/vZ73z7O05J3GIrX1WTvR52OPC11bz6kUNjMjou1Dx8xzxrkwttzqy2MtUhJyPs3OflsZOB6FqZ+dqXzqgQwdOJvrZwCoUVlBZ5WeCfsbYGqBDAaRFDJkeGqyOPspFEjrBwhCeOxDpWFI4M61jTwpHPfwmigUahMDTX65gImWRIYwiCmemhfisNPHFkaLr5omZ5dqmvocoRvgn0lZC9HnY48LXVvPqRQ2MyOi7UPHzHPGuTC23OrLYy1SEnI+zc5+Wxk4HoWpn5xjIRhK4tFBZRWuRlIf4xW2uACiEO5cijbEQKRyhH1gtHsgPQhoUjWsc6LhyRE0ecUHDmuhw59qKlMam91roTR84WjsCc/lCfYTxxRF8J2ethhwNfW82rHzk0JqPjQs3Dd8yzNrnQ5sxqK1MdcjLCzn1eHjsZiK7DmffLRPB0MjB0baGwiNIiLwvxj9laQ9cggsWlEcqRtlFzIEdQOGJaBHLEYHJkuFOzeeKItdEs77pcJoZMui7tRfihC0dUmtjl7EHPN4G+ErLXww4HvraaVz9yaExGx4Wah++YZ21yoc2Z1VamOuRkhJ37vDx2MhBd85mvlYnoh3jtKcRnFDIuLBTWUVrkZUH/mLWF/lAcLo1QjrSNmm92akyLGNpGjZcjWjUSP+KrOzVaODI8cQQ7NTaD3TzwZ89PHHHmxIQLmVTfGbvQSw6Tj8IRwaNw5MyJI+vmThzRV0L2etjhwNdW8+pHDo3J6LhQ8/Ad86xNLrQ5s9rKVIecjLBzn5fHTgaia0K46zQRA3wmNSwU1lFa5GVB/5hd2zXIE6BFDF2JNFCOUItQjrSNmsFOjcG0iCHu1KgccTs1euLIcKdmfuIIjaLBJV1GDb00ZpTAVpNm2Ykj2eaLC+mbA9NQfT1xRF8J2ethhwNfW82rHzk0JqPjQs3Dd8yzNrnQ5sxqK1MdcjLCzn1eHjsZiK4JYb9MhM8ltuoUCmdRWuQlIv6dW2voMqShK5GGrkQaKEey1RHTIipHdHXE5AhWR4ZyRFdHnBzB6gjkiKtj9YUjzyWCGUXDUEM4g6RwNiRkyZ/snTiiRv0RfcgRPPf1lZC9HnY48LXVvPqRQ2MyOi7UPHzHPGuTC23OrLYy1SEnI+zc5+Wxk4Hoygh3nSZijrbqFApnUVrk5SL+tVsLIaLoeqSBcsRpEV0daXUjS4UjKke0jtXkyFbhyFMdK1QCfQ2HebY0ElyvJl3mD37xr9u/Y7+bhrsKR6I0scvZo19fCdnrYYcDX1vNqx85NCaj40LNw3fMsza50ObMaitTHXIyws59Xh47GYiuIeGW00QM8emkTqFwFqVFXi7iX7u1BjwLiC5DGqhFhksjKkfc6ojKEezUuAPQ8LEa1LFis2axcAQHoGnhyOTEEZeBIc9eFw6TDGFI0uKJI7/7dOIIljTgu3DSxYyGZq5wxPlqOxz42mpe/cihMRkdF2oevmOetcmFNmdWW5nqkJMRdu7z8tjJQHRFwi2niRAI2RYKOygt8nIR/9qtNXQNIuhKRDZrMjkCLWKgFjG0jZqHHHmUjchOjdax8iO++rGa4U7NBzpx5DBkkqHLq81PHHGag76G5jgfofO1cMQse3/scOBrq3n1I4fGZHRcqHn4jnnWJhfanFltZapDTkbYuc/LYycD0RUJF3Zn/uQP/6j/kbTnjz1t8BQyIMO2UNhBaZGXDvc3D0CCKFa0iMqRlZ0aLRxh1Qh3arA0EndqUDgSd2omhSNDuUBzvcOQSYYur4Zeu4d+Nw0/Pl84AsFBnyF8hNb+1ugANGeaP8uBr63m1Y8cGpPRcaHm4TvmWZtcaHNmtZWpDjkZYec+L4+dDESXI/xr53dn/sa//m/Y06b/hTwvE6HDtlDYQWmRlw73N08HEoRwWsQwlCPQIpQjXB2ZF464qhF34ojbqYmFI9yp8YUjIhoyc70x1Ax8JrWLIXvjiSPf3yscoRaBr6FdDu+D7P2h+bMc+NpqXv3IoTEZHRdqHr5jnrXJhTZnVluZ6pCTEXbu8/LYyUB0KeGu00T4/KHDtlDYQWmRlw73Nw8HPlSIwimSTI6cWh2hHOHqSHYA2qEc+er5V9X82W//npMLahQNmnGhZhAyo10MSUA7PHFEZYSTFLHLmcuTOfxMjZrmz3Lga6t59SOHxmR0XKh5+I551iYX2pxZbWWqQ05G2LnPy2MnA9FFwq/9lX/xwu5MLBOBE8NCYR+lRV469G/+8QB4+uM3pwsQgdMihkyODFdHHmUjIke4U6OFI9ys0Y/4YnUEhSOxjhU7NePCkV/86040wFySGiIzEMhxZIQkaDg8cYQywvkuNJ9h9BHSj3Wsapo/y4GvrebVjxwak9FxoebhO+ZZm1xoc2a1lakOORlh5z4vj50MRBcJ+6eJ2LMFTx62GhYK+ygt8tKhf/OPB8DTHz98SBACWsTQlUiDkyOPspHnhSPUIiuFI8OP+KKOdVg4ogegLRaOoHXJzCApYK4Lhjx7GdIZnDjy/JvzoCoOTWnQH+qbuTpWNc2f5cDXVvPqRw6Nyei4UPPwHfOsTS60ObPaylSHnIywc5+Xx04GogvttTKR/sfQgEeNAT4zDAuFfZQWeR3gXz7/+OEbugxp6EpkbWlE5QgUyeFODetYIUeGOzWXTxyhOLA2C51ZkoZQe5FhL0K2dOKJI9///LtDVYGQfgzV3CiE35MXhpq+V7J3TMaBr63m1Y8cGpPRcaHm4TvmWZtcaHNmtZWpDjkZYec+L4+dDESXtbecJtIfNCI+GBYKd6G0yOtAfATQtxZCxNCVSENXIg2ZHGkbNd+sjpgWMbSNmnSnxjDfqdHCEbdTY+BOjc2AH8QQTxwZigYae2GapLnemNGuRx2rPFsfhSPtxBFoCKqK6Mdwbiwccabvlewdk3Hga6t59SOHxmR0XKh5+I551iYX2pxZbWWqQ05G2LnPy2MnA9F1S5mIPVXak+YBZNDCKRTuQmmR14H4CKBvLYQI0JVIQ1ciDZQj1CKUI6ZFDG2j5tnSiMG0iMoRt1MDOeJ2auKJI9ypMbBwxOAKR6gMoBKGooGhtUqLHBJiiAx9hH/8vI6VX1UDnaG+C9VHCMf5zAzliL5XsndMxoGvrebVjxwak9FxoebhO+ZZm1xoc2a1lakOORlh5z4vj50MRNf+aSIOSLItFG5EaZHXivZw6M8FQ1cigq5HGpwcOVwdgRzJVkf0U75cHeFmjcoRro64whHIkcPCkWjIW0uHXQzRy64YwqGR4E4cyb6qBpJiaJMutShH9L2SvWMyDnxtNa9+5NCYjI4LNQ/fMc/a5EKbM6utTHXIyQg793l57GSgdd11mojCkmgLhdtRWuS1Qp8OACSIoisRWSCJWkRXR6BF3OpIrGPlx2qoRSBHsDqyVTjyJAtUK9CQZ6+jsVdpCOEzSWMv8vHEkeyrahY1x8Tscu7lMfTVMg58bTWvfuTQmIyOCzUP3zHP2uRCmzOrrUx1yMkIO/d5eexk4F2niZiDZwuAsPUXCjejtMhrhT4dCEgQoiuR51pkuDSyLke4NMLCER6Atlg4AjmCE0dc4cj8xBEz9joaQmvpMGTSmeuF86hjFeDEEScjTpmqFvXd0oi+V1ZeeNHXVvPqRw6Nyei4UPPwHfOsTS60ObPaylSHnIywc5+Xx2YD7zpNxKC+AWGjFAo3o7TIa4U+HYiuQQROixgyOQItQjliWsTQNmoecuRRNrLwVTXzwhHIEbdTE08cUcVAo2hgOPQZkj/phWlovvvmPC0c2bdMjuh7ZeWFF31tNa9+5NCYjI4LNQ/fMc/a5EKbM6utTHXIyQg793l5bDZw/zQRIoaFwgdCaZHXCj4d4Bjgdw3yBGgRQ1ciiRZROWJahHJkslOjH/GlHGEdq9upMfDEkbhT4wtH2kd81aASslANXRQWw4HohWlIzk9++KN+Nw3xxJG7jHJE3ysrL7zoa6t59SOHxmR0XKh5+I551iYX2pxZbWWqQ05G2LnPy2OHA/dPE7GHBh8maInWXyh8EJQWea3g0wGOgT5UCNCVyPLSCOVI26gZyxHTIoZYxJqdOMKdmuxs+MFX1SycODI064XBd11oaUxqr7XxxJHf//y7kxoR18XQnKyLZpezV4i+V1ZeeNHXVvPqRw6Nyei4UPPwHfOsTS60ObPaylSHnIywc5+Xx8aBN54mYj5bolEKhQ+C0iKvFXw6wDGoDyECdDHS0MXIWuHI4eoIC0d0swZyxK2OTOQIV0e0cORPnwpHhlpBHTVLwlzeDEn2ZqG1cFwd6+XCERUfKk3gm2FpRN8rKy+86GurefUjh8ZkdFyoefiOedYmF9qcWW1lqkNORti5z8tj3cBfvVQmovWq/dnRgFCTjVIofCiUFnnFwAMCTwqD+l2GNHQZ0tCVSEMmR4arI4+yEZEj3KlB4YjBfcTX1bG6j/iyjtW0CFZH5oUjUSvA0dBaR1NDr3bFkD7CyYkjl41aBD5CkyP6Xll54UVfW82rHzk0JqPjQs3Dd8yzNrnQ5sxqK1MdcjLCzn1eHusG7p8mYs8KPD0MyKCFUyh8UJQWecXQh4VBfQOECNCVSENXIg1OjjzKRpI61pXCEf1YjTsAzX3EN544Mi4cEZXgtAKNvUOa9rJL/aGR704c+XFy4si+ZXWsapqPvraaVz9yaExGx4Wah++YZ21yoc2Z1VamOuRkhJ37vDxWB+6fJoInBhzk2cIpFD4oSou8euBhYYg+hAjQlcja0gjlSNuoObdTAzky3Km5cOIIREMmHVyvo7FXaQxh6jNDm5w44lY46LuQix9DX0O7dHzHqGk++tpqXv3IoTEZHRdqHr5jnrXJhTZnVluZ6pCTEXbu8/JYDry9TIQO20LhQ6O0yBsBHxwAfKgQxbocaRs13+zUmBYxtI2a8U4N5IjbqYEcOTxxpG3UjL+qZnLiCPLsdTT2Ki2G1tLQC2Pm3hNHKD7gqxYZfqZGTfPR11bz6kcOjcnouFDz8B3zrE0utDmz2spUh5yMsHOfl8di4F1fOgMHLZ1Hd6HwUVBa5I2Ajw+APiSIYiJHqEUoR9pGzWCnxmBaJMoRt1OjH6v5p9OvqsHSyPqJI1E0sIshCdqqo6G1NIYgDE4cuekjvk6axDpWNc1HX1vNqx85NCaj40LNw3fMsza50ObMaitTHXIyws59Xh6LgfunidgzwVr4aDUsFD4OSou8KeA5YlAfEkQxkSOHqyOQI251xOAKR3jiiNaxqhxxqyNOjvjCkemJI+pnIZNZL41JmoU/fX7iyI+/+MFvPMkRLG84VUH/lEGOrLzwoq+t5tWPHBqT0XGh5uE75lmbXGhzZrWVqQ45GWHnPi+PtYF3nSZiMJ8tnELhY6K0yJsCniMG9Q2QIIqhHHFaRFdHHmUjZwpHsFPDOlZokWHhCFZHYuGIKRj8UAZ8VQ1kAVvNZGa9MIbsYkgOw9gbC0e+//l3nYwY+i40HyEc58O+F946MH1pRV9bzasfOTQmo+NCzcN3zLM2udDmzGorUx1yMsLOfV4ee2OZiMFCtnAKhY+J0iJvCniOGKIPCUIMtchwaUTliGmRiRwZFo6gjpVLI7FwBHWsKByBHMEBaCZHtHAkO3FkYpARGR8hOQxdL8NTJ46YpHAZGrsoPpyvn6lR05dW9LXVvPqRQ2MyOi7UPHzHPGuTC23OrLYy1SEnI+zc57Wx18pE3Gki9hxoT4gHkEELp1D4mCgt8qaA54gh+pAgBLSIoSuRhkyOQItQjpgWMbSNmocceZSNhBNHWDgSTxwZFo4Md2oOTxyZhDRm2ItQCdpOwttPHKH+YAhnKEf0pRV9bTWvfuTQmIyOCzUP3zHP2uRCmzOrrUx1yMkIO/d5bex+mYgDkuxqrELh46G0yJsCniOGod9lSENXIg1diSRaROVI26g52KlxhSOsY9XP1Kzv1PjCkecqYWiUDnTYBUOXEuCwlz5DcMyGJ46opIDvwmGX60VIP8oRfWlFX1vNqx85NCaj40LNw3fMsza50ObMaitTHXIyws59Xhh7Y5kIYUm0hcInQWmRtwZ9sgDqQ4gYugxp6EqkYShHoEUoR9pGzWrhiMkR95kaA+WI26lROcKdGuO3n+wBnjiSGaWDhjQLaZpxBA2ZhA0KR9qJI3OFwTD6CIe+XVrfQPrSir62mlc/cmhMRseFmofvmGdtcqHNmdVWpjrkZISd+zw79q4yEXPwTAAQtv5C4ROgtMgbBJ8sgPoGaBFFlyRPoiSTI6dWR1wdq5Mj2eqIkyNcHdHCkT/77d+jVnBG6aAhDWICpqEjuFANeffNeY/CkW9/B/KCBlWRhTRoDvURwnFLI/rSir62mlc/cmhMRseFmofvmGdtcqHNmdVWpjrkZISd+zw19pbTRAD1DQgbpVD4BCgt8maBR4zB+V2ACLoSOdqsyVZHHmUjR3Wsw4/4xjpWFo7E1ZFnhSOf/xIVAw1agYqBjobWqgNf8zQSkKcDiyeO/MZn34KMOGs6ChJEfZUj+tKKvraaVz9yaExGx4Wah++YZ21yoc2Z1VamOuRkhJ37PDX2rtNE8CiAA4BQKHwqlBZ5y+BTBo4BPiSIwmkRg5Mjj7KRpI7VVIJhXjiCIlYtHIEcYR2rKxzROtZx4cjzE0ecVlCfIZMMncNetYwwOHFENAR8F9KPoZobRTmiL63oa6t59SOHxmR0XKh5+I551iYX2pxZbWWqQ05G2LnP9bH7ZSL6EGAItP5C4ZOhtMgbB54yeNwY6HcNIphrES6NUI60jZqlnRrTIpQjOzs1pmDaz/QATxyhONCQfjT0kuMctmogwJicfFUNxIT6Wei6mFTfzK5rryJ9aUVfW82rHzk0JqPjQs3Dd8yzNrnQ5sxqK1MdcjLCzn0ujr1WJqIf4rW/cfztm8+WaJRC4ZOhtMgbB54yeNwYNAMJQhwujVCOtI2ab3ZqTIsYJjs1/6xBP1Mz2anB0ki2U6OFI8MTR+gPDQTls4shObHXJU+dOLJjWBrRl1b0tdW8+pFDYzI6LtQ8fMc8a5MLbc6stjLVIScj7NznythfveM0Ef7haws8GIXCJ0VpkTcOPGjwxDFopmsQwUSOUItQjrSNmsFOjcG0iCHu1LjCEV0dGcqR4cdq7CqPH6xh/cQRZDQ55JPDXg1j8lE4Itg/cSQzkyP60oq+tppXP3JoTEbHhZqH75hnbXKhzZnVVqY65GSEnftcGXtLmQh9beEUCp8cpUXeBfDQMcBnBhKEgBYxdCXSQDmysjpiQmG4OpLJkVg4YnKEhSO6OoID0EyO+MKR5yphaNYLY8guZpTjCExqL0N34sjX7cSRHYt7NPDndazaal79yKExGR0Xah6+Y561yYU2Z1ZbmeqQkxF27vNw7F2nicCHo22h8BJQWuRdwB46AHxtoUKArkQauhJpiFpEV0ceZSNrhSOQI7GOdVg4EpdGWDhi8uXxUzU8ThwJ35ynBtEA3YCQXQgPCTEk39rHTs3zZ7oWjlwzJ0fo2xXxftIXGHxtNa9+5NCYjI4LNQ/fMc/a5EKbM6utTHXIyQg79zkfe+OXziCEo22h8BJQWuRd4PEoaoCvrQFCxNBlSEOXIQ3Z0ojKEdMimRzBTg0KR7A0QjmyslMTC0e+/PJLLRxZOXGEDruY1144jqChJtm1cuLILTb5TI22mlc/cmhMRseFmofvmGdtcqHNmdVWpjrkZISd+5yMvVYmokIEf+BwmNGwUHghKC3yXvB4JsljSNuuRBq6EmnoSqQhkyPQIpQjbaPGy5H/rWEoR67t1HwVv6pmeuKIkw6ahymNHA2ZYdL1DgpHwokj83DRsjpWbTWvfuTQmIyOCzUP3zHP2uRCmzOrrUx1yMkIO/c5GXtBiPzJH/5R/xV8+pM3wGdSw0LhhaC0yLuDPozYdiUi6HqkIdMiKkfaRs3BTo0WjlCL6E4NtMhwp4YnjrCI1QiPn6eBhSM01Q0I1UEvjCEIWahJ7WV4tnBkokXYZQ5M/WEdq7aaVz9yaExGx4Wah++YZ21yoc2Z1VamOuRkhJ37zMZeKxNRkWF/xRYiwzydQuFFobTIu4M+m9gaIEGILkMaDpdGohxRReLkCA8d0TpWVzgSV0ecHMHqiMqRCyeOIE+yC2EIXVKNvfMTRy4btQhDa78nLy28zLTVvPqRQ2MyOi7UPHzHPGuTC23OrLYy1SEnI+zc53DsXaeJmKOtOoXCi0JpkXeK+JyyFipEoVrEkMmRU6sjsY7VtIgWjrjVkfgRX36m5ssvvzT+4+dpwDfnwVQr0I9GsrYa0rSXxi7YxzlxBEsjfG/hZaat5tWPHBqT0XGh5uE75lmbXGhzZrWVqQ45GWHnPuPYu750hj5bdQqFF4XSIu8U+oRi2wWIwGkRQyZHdHXEtMhEjsTCEfcRXy6NoI41Fo7oZ2p84cjzE0eielAjQVsNadoL0y7NTE4cccsb85B+Zq6OVVvNqx85NCaj40LNw3fMsza50ObMaitTHXIyws59xrH7p4kADNkWCi8WpUXeKfQJxdbQNYjgUI48ykakcIRypG3UPOTIvHDkcKcGhSPDnRrIkezEERUKztA7JCBJAsNhL5Ma/uR54ciPv/jB3/rsWxAQE5GRdalMgY/QWq1j1RYW/cihMRkdF2oevmOetcmFNmdWW5nqkJMRdu7Tjb3xS2cA+JopFF4gSou8U+gTyrVdgwgWl0YoR9pGzdJOjWkRw8pOjdaxcqeGqyOujnXnxBFklEMCQ80jhI8wnjjy/c+/CzFxzahF4DM0x66Il5m2sOhHDo3J6LhQ8/Ad86xNLrQ5s9rKVIecjLBznzr2rtNEetCgf92FwotFaZF3Cn1CudYACUIcLo1QjrSNmuOdGtMikCPDnRrIEbdTo4Uj3Knh6kgsHIEyUBtKB2fsJcE57NKQSZqTI/eeOKLS5LeePlOjLSz6kUNjMjou1Dx8xzxrkwttzqy2MtUhJyPs3CfH3nWaiKHHDQhdslB4aSgt8k6hT6jYdg3yBGgRQ1ciDZkcubY6MpQj2KwZyhGsjpgW+VrqWLPCEVomHWCul44S1AEBhrz2xsIRXdIw03CxCz5DWNypgUU/cmhMRseFmofvmGdtcqHNmdVWpjrkZISd++TY/dNE7E8VDjKACwuFl4nSIu8aqj9cCxUCdCXS0JVIQyZH3OrIo2wkyBEWjujqCAtHWMfKzRr9iK9pEayOnD1xxDkaWgtjkr4L4SCj+dhr99DvpuHrL37gZISG8y6EcNjFkCeO6Esx+pFDYzI6LtQ8fMc8a5MLbc6stjLVIScj7Nwnxt51mog5mjS4sFB4mSgt8q6hDy/XGiBEgK5EGroSaYhahHLEtIjKkWxpJB6ApnWs3KxxhSOG+BHfiRyJogGmSXIceRgio3mGJDzOhn+Ou04cUR8hThzRl2L0tXXGZHRcqHn4jnnWJhfanFltZapDTkbYuU8be++XzqAlXFgovEyUFil06IOMLYQI0cVIA7XIcGmEcgRaJJMjj7KROwpHdKfGhjx+ngYUjkAZUDFkBg7J2tLQy6T2wmcvWidHeOIINMRQVayYG2it7tTwJed8bZ0xGR0Xah6+Y561yYU2Z1ZbmeqQkxF27vP2L51BWyi8LpQWKXTEx5m1XYMIuhJpmMuRtlFzvFNjONyp0Y/4xp0ayBEujcwLR1Q9qA2VBMna65I018vMo3BEXg88cUTFB3wXTrqcoYs7NbDoa+uMyei4UPPwHfOsTS60ObPaylSHnIywc5/7p4nYX2X84y0UXhdKixQ64uPMWgMkiKIrkakWoRyBFqEcMZVgMC1iyHZqVI5gp2Z44gh3ao4LR9pHfJ1QiEaCozFJY5KmXTH8yQ9/1O+mgSeOUEbAdyF9F5IJR/3fCuexqq+tMyaj40LNw3fMsza50ObMaitTHXIywuX7vFYmMt+dQVsovC6UFik8Q3yoWQsJolAtAgwVCeVItjpicgSrI1gaWZcjWB3BTs3KAWh/57OfozKI5qSDGpIkOI72atKFj52a52+IlRNHIDKGxi5IEIRw7Ip4z+kLEr62zpiMjgs1D98xz9rkQpszq61MdcjJCNfu88YyEYOF2hYKrwulRQrPEB9q1hogQQhoEUNXIudXR2LhiJMjrGN1H/HVOlb3EV9XxzosHKFEoEE6ZF1ohxztjSGMfvyqmt/9+b+mGgIWQ2bgM6OhGgpHzPQFCV9bZ0xGx4Wah++YZ21yoc2Z1VamOuRkhAv3ee1LZ77+8x/2X6D2h2l/ifjzNCDDtlB4XSgtUniG+FBDCwlCdCWyvDRCOWJaJMoR3anJ6lhd4QjqWFE4Ajni6lgXC0cgHVQ9qLE3chAyPwydTb6qZt2gS6IW0UxWx6qtMyaj40LNw3fMsza50ObMaitTHXIywoX73D9NxAFJtoXC60JpkcIzxIca2y5DGroSaehKpGEiR9pGjd+peZSNnC8cMS2iOzWoY9WdGsqR7CO+MEgHCgjNx160juBCl4dpr91Dv5uGR+GIaIgbjeexwuBr64zJ6LhQ8/Ad86xNLrQ5s9rKVIecjHD2Pq+VifxP/91/339v2t+jA5JsC4XXhdIihWeIDzW2hq5EGroSWdMilCNtoybdqYEcGe7UQI5gp+afNrgTR3SnZlbH+lwiqKMhpAOMSRKYZxczzMO01+wDnTgyNLsuX354WWrrjMnouFDz8B3zrE0utDmz2spUh5yMcOo+b/zSGfxVAghbf6Hw+lBapDCAPtq0hQoBuhIRzOVI26iZ7dSwcARyZLhTAzny3zRwp0YLR3SnxrSIYfBVNa2OFSrBmUsiZNKF8GmuiyEJCLMTR2iTWpBJVzQWjpjhZamtMyaj40LNw3fMsza50ObMaitTHXIywvp9XisT+fEP/1H/dWl/iYD6BoSNUii8PpQWKQygjzbXGroYaegy5AlzOXJtdQRyxNWxQpEM5QhWR7hTAznyrHDk81+CLFDFoI6GrjeGMO2CKUFDawcnjrSP+O6YFpHQd3Ws2jpjMjou1Dx8xzxrkwttzqy2MtUhJyOs3+ddp4kYEBIgFAqvFKVFCgfAY46tASpE0ZWI7NdkcsStjjzKRoIcoRbR1RHu1CwegLZ54ohKh0lIQ57murSF404c+frpxJEd01UT+lrHqq0zJqPjQs3Dd8yzNrnQ5sxqK1MdcjLC4n3eeJqIwcLuNYBQKLxSlBYpHACPObYAJIjCaRED5Qi1COWIaRGVI8Olkewjvq6OdV44oh/xdXKEQiEzEhyNSVrWy4wLrR0UjiycOHLN7HJ4WWrrjMnouFDz8B3zrE0utDmz2spUh5yMsDL5vaeJGCzTvQZwCoVXitIihQPgMceWDiQIMdEibmmEcgRaJJMj/+vaiSOtjPUhR4Y7NSpHhl9VMzRVD3TYpQTtcr10GGqXWTxxhF9Vo0rCrXYMFz/ga6j2t//qt+yi9jrEK3P44mQyOi7UPHzHPGuTC23OrLYy1SEnIxwOvOU0EQdNglMovF6UFikcAE86tnAMXYMI1uVI26hJd2q0asSdOHJ2pwaFI1wamZ84AoNcoGJQYxfN9ZIzDOHQLLzlxJGhqTQxJ+7UOGMyOi7UPHzHPGuTC23OrLYy1SEnIxwOvLFMhEAeAK1QeL0oLVI4AJ50bOHAhwRRDOWI0yKUI9AilCOmEgymRaIccSeOmBaJOzWQI26nJhaOmF7B/RviR3yhGGDsomkvTLvYZiHNQprdQ7+bhkfhiEiKHdNlEvN54sjwxclkdFyoefiOedYmF9qcWW1lqkNORpgPvKtMxJz299eBsPUXCq8epUUKS+Czj48/+JAgBLSIoSuRhsnqyKNsJF8dMcTCEV0dGcoRrI4M5YhhfuKIGRwmGaJXfSVoBo4LaeyF/b2f/4W//Nn/0O+m4fu/+G+qjLjLbE67rr0ahy9OJqPjQs3Dd8yzNrnQ5sxqK1MdcjLCZOCNZSLmwwEQNkqh8OpRWqSwBD77+PiDb4AKAboSaehKJNEik9WRxcIR0yJaOOLqWOeFI8bHT2FwJ46gpWk45DCpITPaxZAchI86VnmpPL6q5tvfUQ1B34Xmu1D9GP7ttjQyfHEyGR0Xah6+Y561yYU2Z1ZbmeqQkxGy/C2nidifFRy0ROsvFN4ISosUloBnnz4E6UOFAF2GNHQl0jCUI7FwZChHtHAEcgQnjmSFI6hjReEI5IgegIalkfmJIzSXRMikC+HDGLKLIQnaOz9xRFWFM9fl9AcdmPm/+fxseBqT0XGh5uE75lmbXGhzZrWVqQ45GSHL31UmAh8t0SiFwhtBaZHCCehDkL61ECKKrkcaDuVI26jxOzWPspG1r6qBHBnu1KCOdVg44ndq2okjE3MCIoY0JdAcIfYOThx5EhP7Ri1ipuex0vg2jY4LNQ/fMc/a5EKbM6utTHXIyQjD/H6ZCP7EDPA1Y2iUQuGNoLRI4Rz4ENQHojldgwi6EjnSIpQjbaMm3amBHMHSiGkR3akxZDs1Wjiyc+KIExCOxl7n0JBhng57rf27oXDk91vhiMoI9ZnRcNHscu7FybdpdFyoefiOedYmF9qcWW1lqkNORoj5a2Ui+u139heEvy/XAg9GofCGUFqkcBHumWg+JAjRlchR4Qi0COVI26hJ5Qh2av5ZA3dqDK5whDs1WjjidmrGhSMiEdSgHiAaVEYwnPTSNOMI8Icnjjj9oeFhF0L1EaJwRN+dDKPjQs3Dd8yzNrnQ5sxqK1MdcjKCy991mgh9beEUCm8MpUUKF+Eeiwi7DBGoFjFkcmRxdWReOEI5ooUjsY5V5chXX331rHDk6MQR6gZ2oaVlvXTgK0HD4YkjlBEUE0N/EprjfLdTw7dpdFyoefiOedYmF9qcWW1lqkNORnD5G8tEELq2UHh7KC1SuAh7LOqTESH0h8ItjRgyOeJWRx5lI0kdq2kRrI4MC0e0jlULR7g6gsIRyhEj9J9heuII8zR20VwvOXTga55Ggt1Dv5uGuwpH5nKEb9PouFDz8B3zrE0utDmz2spUh5yMoPkbv3QGIRyGhcKbRGmRwkW0p+UzLYIWEkQxkSPUIpQjpkVUjmSFI1rHisIRyBGeOMKlkZXCES9H2kd8VTGgdYZeEpTDpAudw161R+GIvJkM3//Ff1M1BCQFfYTMwGcmC+Hb1d3bNDou1Dx8xzxrkwttzqy2MtUhJyMwf8tpIgZz+MfFvyyEhcKbRGmRwkXYw1Gfj/CRxPOUmGgRtzRCOQItMpcj3KmBHBnu1BiynRonR2wIfhADTxyhVoDjQkgHmhI0A8eFmo8WTxz5nacTR5zg0BC+C12XM37El2/T6LhQ8/Ad86xNLrQ5s9rKVIecjID8XaeJWAufSQ0LhTeJ0iKFi7CHoz4f4aOFBCGgRQxdiTRkcqRt1Bzv1BhcHevZnRotHDEtYnhWOPL8xBH6LolQe5kcZpzD1jlmk6+qMQ1B34VQGBqqjxAODTs1fMtGx4Wah++YZ21yoc2Z1VamOuRkBOQvCJE/+cM/6v/BT39QAELm4RQKbxilRQoX0Z6Z3zwl4bPtMqShK5GGrkQaohahHIEWoRwxlWAwLWLg0ogWsbJwxLSIgTs1+EwN5IjbqTk+ceRJFlAf0NHQ9WpIQ8YZ8iQ4pvk/ubtwxJSHy8C4OsLXqjou1Dx8xzxrkwttzqy2MtUhJyNY/lqZyOGHeNUpFN4wSosU7oF7jBogRICuRBq6EmmYrI48ykaS1RGTI1gdcYUjujqicmS4OuLkCFZHohxRfaBGAaEhzUJa7EVmSGBoNjxxxMmIu+x78lp1jgs1D98xz9rkQpszq61MdcjJCHedJmIwX1t1CoU3jNIihXsQH6PWQogouh5pyLTIZHVkpXAEqyPDj/hidWRSOPLll1/6wpEnlaA2FBA09joaDHn2MqMEOsMTR5yM2DGulPDEEb5u3Xt3mHdDrtnkQpszq61MdcgZEn71jjIR/sm4tlB4JygtUrgHw4epoWuQJ3QZ0nC4NEI5YlpkIkcmJ464whHUsc4LR/xX1SycOAKHXZrULubZy4wS6CP847xw5F7LCkdcqHn4jnnWJhfanFltZapDzpCwf5oIAN+1hcI7QWmRwj0YPkwNXYMIuhKRzZqhHKEWoRxpGzUPOfIoG1nbqYEc2d+pUYN6cKIBxi70ksOQXTFEhj5CmN1Dv5uGR+GIfHPejTYsHHGh5uE75lmbXGhzZrWVqQ45kXDXl87Qd22h8E5QWqRwJ+LD1NquQQQrWsQtjVCOzJdGTIvoTo0h26nROtb4EV8vR8KJI9HQRYKjMakOfM3TlBBPHPn9z7/rZISrS9Vw0hUtFo64UPPw4xv6lE0utDmz2spUhxxHuOU0EfsDwV+KAQ7DQuH9oLRI4U7ow5StARKEcFrE4OQItMj6Tg2WRvQjvvHEEbdTo4UjbqcmKxyhOEBLY1IJcBzBhS4PQ569sMeJIwI9cWTTKE3MMYuFIzCGmh8yz9rkQpszq61MdchRwl2nicBhRsNC4f2gtEjhTujD1LVQIQC0iKErkYYoR1SRrKyOsI4VOzXZAWhDOcLVEX7KNyscgUSgUFBHDUnmNdQkuzQP016zyYkjN5rJEVc4AmOoefiOedYmF9qcWW1lqkOOEu46TQQ+kxoWCu8HpUUKd0Ifpq7tMqShK5GGrkQanBzhAolbHXmUjUw3a7LCEV0d0cIR0yJcHeFmzVdffWUZuwe7f4MWjlAiqFZgqL0whMMM82iVgJZmoSsc+fFNX1UTTQtHYAw1D98xz9rkQpszq61Mdcgh4a7TRPjXgSSdQuG9obRI4U7os9W1BggRoCuRhq5EGihHqEUoR0yLqBzJlka0jhWFI5Aj7sQRVzhi0KURkyPZAWhOItCcgIhKgqZ5GvIkkKb5yYkjrgpkEprvQvoasnAExtewvrDhH77C5+aG64U2Z1ZbmeqQA8JdZSLmaKtOofDeUFqkcD/ic5YthAjQlcja0gjlCLRIJkdMi+hODeRI3KmhHMl2auaFI9GGAoIGJQGLvcgMCQzp3HLiiNMfNJUpLBzR17A69DVzwdxwvdDmzGorUx1yjHDLaSL2yx//OtQpFN4bSosU7kd8zrKFCgG6EmnoSqQhkyNto+Zgp+Z/a3B1rHGnBnJkslNz9sQRM1UMLo8266Uxow672D5OHJGX1qNw5L6P+KpMQeEIX8POoX/4Cp+bG64X2pxZbWWqQ44R7jpNxICQbaHwnlFapHA/4nNW265EGroSaehKpCFqEcoRaBHKEVMJBtMihmynRuUIdmpc4YjbqYknjmjhyF/+7Gd/99u/YLKABrmgikG70Ga9NIaOoA4IZj/94Y9wM8CPv/jBb3z2LcoIXd7YNMoRvqf1hQ3/8BU+NzdcL7Q5s9rKVIec/dNE7Hfe/goAC7UtFN4zSosUPiziM9daCBHFUI5kqyOPspFkdcTkCFZHsDQykSPcqdHVEe7UUI5wdcQXjmycOMKQXVkIXzOw4Ykjqj+cHJl3MYTvQru0vYZVIsChv/Kan5gbrhfanFltZao558bTRADLaFsovGeUFil8WMRnrrUGSBCFkyMTLTJcHYmFI06OsI51WDiC1ZGzhSNQBnCgGNTQS4JyXBIOfPbS2AtDcnDiyPPCEUqKaK5rEpqPwhG+p/WFDX/+Cj80N1wvtDmz2spUE861MpGv//yH/b/n6ddegSTbQuE9o7RI4WMgPnmt7RrkCUMtYpjLEdMiUY7oTo1+xFfrWN1ODepYUTgCOaKFI/hMzakTR6Ab1EfvMNSkdjE/7P04J46YZWfDw195zU/MDdcLbc6stjLVhHPXaSIK5EEoFN45SosUPgb0ycu2axCBypGuRBooR5wWoRxpGzUPOfIoG3n+VTXZTg3kyHCnBnJkWDhiSbuNx4+EwpGf/w5kASWCagWGmjQ/hkyyiyFNe2EWDk8c+Y0ng5KYh4sWC0fobyoGN5yhOZszq61MlXH2TxOx33b+2hMIW3+h8N5RWqTwMaBPXraGrkGeAC1iyLQI5QgUCbQI5UjcqYmFI+7EEezUmBYxuBNH3E4NV0d84YhIhKgVNGkODOEwwzxaJaClIZ+dOOLUhobwXQh/HtpF7cWsL2z4m4rBDWdozubMaitTDTn3fukMHAC9hULBUFqk8DGAJ29sIUGIrkSmRaymRdzqCLRIlCOmRQzznRrIEbdTAzkSV0coR0y+2M0Dj8KRz36OEoHmBMRQScA0T3ME0hgy8zhxRF5s2YkjqjBcqIIDIX0NXeGIGfyV1/zE3HCG5mzOrLYyVeTc/qUz1hKtv1AoPFBapPAxgCfvsDVAiABdjEzlyNnVEVfHCjkyrGNVORLrWLFZgzrWZ4Ujn/8SZIEzKgbqBubRDnuRoSFknr0aPgpH5N124cQRpz8yc2fDw99UDG44Q3M2Z1ZbmSpy7jpNBL5mDI1SKBQeKC1S+HjA8ze2XYYIuh5pmMsRtzryKBsROcKdGhSO6OqIKxzhZk0sHEEdq2qRrz7WiSPIqBNDOJMTR6yFQU9oSB8hCfSjxQPQNhWDG87QnM2Z1VamcpwbTxMxny3Q+guFQkdpkcLHAx7BwxYSRNGVSIOTI9QilCOmRVSOXCgc0Y/VaOEId2rcR3yHhSMw6ANIBGdIkkCOyzNJnxl1SLB2UDjy+XedjBia0yIaqq+hXRFva7y8NxWDG87QnM2Z1VamUs61MpH47XfmuBZ4MAqFwhNKixQ+HvAIHrYGSBCiy5AGp0Xc0gjlCLRIJkfcTo3KEbdTAzmS7dRQjsxPHIE5n+a6hr1w2Ot8EtjlThwxXPiqGrOh/tBeflWNtpfNDWdozubMaitTkXPXaSL0tYVTKBQUpUUKnwZ8NKM1dA0i6EpEakcyOdI2ap7t1ECLQI6c2qkZfsTXtAh2avTEEciRZ4UjGyeOqINemPbCJl13nTii4iOGZtipwct7UzG44QzN2ZxZbWUqcm4pE+lB+FVvuUKh8AylRQqfBu4BDadrEIHTIoaoRShHoEUMj5oRWRpROfK/NHB1hB+rwerI8AA0XR1ROYLVkX+yfOII1QMMSWY01CS7NA/TXvruxJGv24kjmUWRYWZJ5uE7GkLWsW4qBjecoTmbM6utTAXOXWUiPSgVUigsoLRI4dNAH9DW0oEEUQzlSLY68igbma6OxJ0aXR1B4Qh3anR1hDs1+hFfkyNfffWVER4/UsNdJ45oEvnYi5YE2N8LhSP//1/+VVUSh0bxAWcSfk9e4ZfNDWdozubMaitTGeeu00R60MDfbYSFQiGitEjh00Af0NbCgQ8JonByZKhF3OoItIiujqBwBDs1To7MC0dQxzopHDE5YgoG92/4iy/+wd+ZnjhCh13Ms9d1oVUCWteLzKNw5Pmb73e+/R3ojBWj2oghfIbxxJEL5oYz3J9ZbWWqa2Ui7jQRoMcNCF2yUCgoSosUPg30AW0tHPpdgzzBaRHDUI5khSMqR1g4MtypGRaOYKfGfcTX7dSYHLGr4EcwxBNHnGKgboAhn/UiMyQw1Ly1myeOUG3EULWImTtx5IK54QzN2ZxZbWWqu04TMfRUgwsLhUJEaZHCpwQe0+3pfaxFDF2JNEzkSNuo8Ts1XBrROtbhTg3kyHCnBnWsulNjWsRweOIIJIIqBs2jzXrVlJCFcNyJIywcccKCvguhOWguozQ9ceSCvRAtsl8mgl9dOMgALiwUChGlRQqfEnx283kN39BlSENXIg1dieRahHLEtIihbdSM5Ui2UxMLR/TEkf+sgXJEl0ZuOXEEGfZqxvlsNaQTTxw5WzjiTCUIMzC7onu1r9tL0CJ3nSZiMB9toVBYR2mRwqcEn918fNO3FkLE0GVIQ1ciDUM5MlkdMZyVI6gdiXJEV0dUjhgZP4jh8okjDNnFEL4L4TDD/F0njkwMWoQnjlwwN5ChOZfnjDaZ6tqXzgxPE9G2UCiso7RI4UWAj+/HQ/3pgW7oYkTQJcmTKBnKkbg6km3WDAtHtI6VtSPDj/iijlULRxZPHGESRl+7NDnspU9zXWbxxBGTDk5MaHjZLu/UfHItcleZCHy2hUJhHaVFCi8L7an+zQO9CxBBVyILmzWmRShH+LEa0yIqR1g4YsgKR7g04gpHIEdYOAI5MigcSU4cgXpQH71ZyKR2aS997bLWnTjy4+cnjqgWwSKHhupPQtg1OfJptchdZSIG+GwLhcI6SosUXhbaU/3ZY71rEIHTIgbKEWoRypG2UZPWscbP1GSFI/xMTdypiR/x9SeOfPZzlAiqFRhaqwTlIHRJ5GMvWhJgjxNH5N1pmBSOOIXh9Af9LLTrupf9oX1CLXLXaSKAhdoWCoV1lBYpvCy0p/qzx7oBEoSYaBG3NEI5olpE5cjwI74qR/TEEZMjhmynxskRG9J+oAfWTxyBQ0PGJZFHqwS0JDBv9vf3ThxZtwuFI47P0JyzU00sTnXXaSLOYVsoFNZRWqTwstCe6v6x3jWIYF2OtI2aAzliWsTQNmoeOzUGnjgCOcKqEa6OODnyn3zgE0dcF1oloHW9zJgNv6rmN8LKh1vtuGBnd2o+lRa5IET+5A//qP/zPf2iGujDYVsoFNZRWqTwstCe6v6xbm3XIIJ1OeJWR6hI5qsjro71ghzJCkdoVAzUDcyjpWlv7CIhhjQLfzL6qpqJFtEQvguHXWan5Mgn0SLXykQmH+Kl0zoLhcI5lBYpvCy4xzpbAyQIAS1i6EqkIZMj0CJudcS0CORI9hFfrWN1J47EOlZ+xFfrWE2sPH6qhuzEEbTahVZNe2NGnRjSyU4cURnhzHVp6PSHY9oV9d0/sY+vRe46TcQcthoWCoWzKC1SeFlwj3XXQoUAXYk0dCWSaBGVI6ZFnBxhHWv8iC8LR/CZGi0c0TrWSeHIl19+6QpHVB/Aok8CuzSvSfXZaujy9544MlEq64UjjsbQnMUZVoxTXTtNxJWJ2K+f+83UsFAonEVpkcKLgz7WXWuAEDF0GdLQlUjDUI5Ai1COUIs4OZLt1GBp5NpOTXbiCIwqgWEUEK6LvfQRwqHPXu0yy04csZamIeUFkhrObXGn5iNrkbtOEzEgZLL1FwqFKygtUnih4FNeW0NXIg1diTR0JdIwkSNto8bv1JgWMZgWoRzJdmogRxZ3akyLGOYnjqhQQIhM7FIHvS5JX3u1i+HgxJGnb85T/QHfhZMuhPTNVuTIx9Qit3/pDFs4hULhGkqLFF40+KzXtisRgZMjmRahHGkbNae/qsa0iEELR3SnZn42vC8cGZ04ourBWs3TRxiTNOSHHCYHJ478yq9BVUBMqO9C9bMQPkK7omqCaB9Ni9x4moj5sS0UCpdRWqTwojF87hsgQRROjhicInmUjRytjhzKkWEdq8oRtzqicsT4jx+pAYUj0ZyGoENDZpiPvWhJYN5sUDiSnDhChRHDeRfCw8IR18vQnPnAU3bvaSLDtlAoXEZpkcIrwPDp3zWIYK5Fhqsjw8KR+BFf7NRo4UisY3WFI6hjnZ048rxwxIwCgg67YOgiQfOxFy0JzDMcnjgCGUExQUnhQs0gnNh8p+bjaJFbThOh79pCobCJ0iKFV4D49Le2CxDB4dII5YhpkShHTItAjnBphHIkKxzROlZXOII6Vv2Ir8kREyh2D48faXriCCzLowvtkKC9DDXDcH7iiFMbGtJ3YexCZiJHPoIW2T9NxH7f8IsH37WFQmETpUUKrwDx6W+toWuQJ0CLGLoSaaAcoRahHGkbNQ858igbWdupOTxxZLhTAzmCpRHTK48fqUFPHDGjSoBQ0LzrRUYJmmdvFjIzPHHEyQj6LoQ/D+EjtMs5iQD70Frk3jIRAxxtC4XCJkqLFF4B4tOfLVQI0JXI1Z2aoRxxOzWGCzs1/FiNyZGVE0fUnIBwNOQ1SR9ODF0+Fo787s//NZURzlyXExyTMCsc+aBa5JbTRPjLxoyGhUJhH6VFCq8A+vR3bZchDV2JNHQl0pDJkbZRsyRHTIsY/lkDC0cM6yeOODkyKRyhXIgZbZkfhkyyC+2w91E4Im/Wx4kjn30LSmLFVHkwZFLD4U7NB9Uid50mAp9JDQuFwj5KixReDfQd4NouRs7Lkbg6YiphKEdc4YiujkCOYLNmIke0cMQydg9284ZH4ci3fwGygHJBQ2S0jY61MNdLn73axfxPf/gj3AyAE0coLyAphv5h6Oy3ghz5cFpk/zQR+42y3y7+miFJp1Ao3IXSIoVXA30luBZCBOhKpKErkYZMjkCLODliWkTlyErhiG7WTA5AgxyZnDgCcaAOTEPNI6RNeoddaOcnjqwY1UYM6SO0K6pi+EBa5K4yEXO0VadQKNyF0iKFV4P4YmBrgBABuhJp6Eok0SIqR9YLRyBHeOIICkd0s4YnjsTCEf2I77BwBCqBPlsYfXAcgUmXV4sEhIMTRza+qmZirnDkQ2iRa2UiX//5D/tP3n6p7BfJWvhs1SkUCnehtEjhVcK9JAAIEcJpEcNQjkCLODnSNmq+kSOmRQ53alDHelg4ws/UGOaFI2aUCzTtjV0kMKRpr3YxtDY7ccQMSxrDkAsemtEwmhaOfAgtcstpIgBCtoVC4UOgtEjhVcK9JICuQQSn5EjbqBnv1PwfDThxJNupQeGI+4hvtlPzHzd8lX9VDY2igboh5tGFlg67GLJX85ox35048igcCUoi2rpSoU85crsWufE0kdgWCoUPgdIihVcJ95KAY+gaRODkSKZFKEdMixjaRs1gpyYWjnCnhoUjlCPcqTE5YlpE5Yju1PjCkSeJYEaVAKGgedeLjBI0z94Y0pB5FI6EE0eoJK6ZUyo0u5xJh3u1SH3pTKHwGlFapPCKwZcE3xPmQIIonBwxOEXyKBuZro5oEeukcGQuR4arI5AjvnDks5+DUIA+gBNDGvLsdUmG2mro8o/CkefvXRSOZJLisqFw5EYtctdpIgBC1xYKhQ+B0iKFVwy+JPiegN81yBMOtchwdWRYx4qlESdHUDiidaz6mZpYODKsY31WOPL5L0EWwCgXYkZb5ochk+xCO+zNThyhjDCfofoxREZDtd8MB6DtaJFbThNxDttCofDhUFqk8IrBVwXfFvC7BnkCtIihK5GGTI6YFpnIEe7UxDpWVziidayucCSeODIoHNk4cYQhjKF2oaXDLubdiSNff/EDkyMqIyb6Y97lQncA2mUtsn+aCH55nMO2UCh8OJQWKbxi8FXBtwV8Q5chDV2JNHQl0kA5Qi1COdI2ap7t1BhMi6gccTs18cQRV8c63KnB6khWOOK0AlQCfBdqHmHWyy4ktYuhtYPCkTMnjqjgcBa77IqUFNe0yLUyEa1Xtd8T/OaYrw7bQqHw4VBapPCKwVcF3xb0rYUQAboSOb9To3LE1bFOCkd0p4aFI9lODQtHsq+qoUpQ3YAQmdgVkzTk1bRLncmJI255Y9P0xJELWuSW00T4axPDQqHwoVFapPAWwHdGe4n0t0iXIYKuRxrmcqRt1BwUjkCOmBYxcGlETxzBTg3kiCscMS3idmpMi0CO2FXwsxhMDUAWOJVgLQxJNXahlxyG7NLerCs7cUS1CPzFkBmGsPgR33UtckuZiAE+MwwLhcKHRmmRwpuCe4tY22XIE7oSaTglRxZXR1wd60SODAtHTI74wpGf/44qBqoE1Q00JNlFAkOa9moXQ7Y/TU4ccXpiojY0hO9C+JAjZ7XIh/jSGYaFQuHjoLRI4U2BbxG2kCCKrkRkv8bJEd2pUTlCLQI5ku3UHBaOsI7VtMjwI75GaD/NA/MTR9DSGXbB2MVeOmxh6GJmcuIIZUQ016Wh6g8X2uVOaZEP9KUz1sIpFAofB6VFCm8KfIuwNUCCKOZahHIkapG4NDI/cWRYOKIHoEGOxI/4moJpP9AD7sQRCgXKBc2roZddjqmhtczDkIHFE0d+99vfUQ2h/gXj2L/9V79ll4bOONQit5wmYr8M9LWFUygUPg5KixTeFPgWcS0kCOG0iMHJEdMiujrilkZUjvzv+YkjpkVUjnBpZGWnZnLiCISCUwwMtWWeITNw2Gro8rD5iSPQIgjVz7oQKoGhFo7MtciNZSIIXVsoFD4aSosU3hQe75bwUrG2axDBuhyBFnFypG3UPNupMWQ7NSgcWd+pMZgWsaTdxuOnev5VNZALqhUYajsMYQjVyKTDLubdiSM//uIHmaSA78JJlwtZODLRIjeeJgLA17ZQKHw0lBYpvCk8Xi/hpYK2axCBkyNOi0Q5YlrE0DZqzu3UxMIRt1NjoBzRpZFYOOK0AlQCQ2bgMMn8sJcZGrs0f/hVNZQUMYTI0FD9GNp1J1rkrtNEetCgvyqFQuEjo7RI4U3B3iX6UnEtJAgBLWLoYqRhqEgmqyOUI9isWZQj/3VDLByJdazGt5sHeOII5AJaGvJZF9qsV811sTUbnjgC9QCjmGCoIkNDtchE4chQi9x1moihxw0IXbJQKHwclBYpvDXoS8W1hi5DGroSWdMiujqS1bEefsSXdaz/tCEWjsQ61msnjtChz17HQV4NvSRoaDY8cQTKA5KCfgznRiEC/zfDV9XAbikTgYMM4MJCofAxUVqk8Dah7xttuwxp6EqkoSuRhkyOmBZxcsRUgpMjulmTFY6gjhWrI1o4Ajni6li/il9Vc3TiiPYiqca862WSBBcyOTxxRPWEC+EPQ/ouhM86Vtq9XzqDDODCQqHwMVFapPCWoW8dtl2JCLoeaRjKkUfZSL5TYzAtYsh2aoYnjmB1ZHGnxhWO/J32Ed+oEhi6vPro1S4k6URTmtmjcETe7gYUjlBGwJyfhfCHobV2OQqRf/um00T4m4Ak4MJCofAxUVqk8Jahbx22BkgQosuQhqEWgRxpGzXP6lizwpFJHSt3arA6srhTY3LE+I8fqUFPHFGhQLnA0Bl62eWYDNXQ5fLxxJHf+fZ3qCSgKmBUFcP8MFQyv6rmV+84TcQAh22hUHgJKC1SePuIb6CuQQRdiTzXIoYoR9pGjS8cMS0S5YhpEYNpEYM7cQQ7NVwa2TlxhELBKQbNu5A+TLuYZMheZ9lX1Thb1BwI6dMsiZ2aC0LkT/7wj/rNtf93AD7bQqHwElBapPD2Ed9A1hq6DHnCUIsYKEfaRs1q4chiHSuWRhblyD/JTxxhy4wmY2gt8zBkaMgoARklDAtHTtlQf8C06/NLZSLxQ7wG87UtFAovAaVFCm8f8Q1krQEShIAWMczlSNuoOVfHOiwcwerIf5scgGZyRAtHWMfqCkegCdCqAx+mXUwyP+xlJnYxb3Z44shd9q/+86cXRYZCxGChtoVC4SWgtEjh7SO+gdhChQBdiTRAjgCqRSBHuDridmri0gjkCJdGWDhiWgR1rG6nJtaxonAEcgQ7NaZg7OaBxRNHYK6LBIZqWRfyTMYTR363nTgCDWGOW/mYLIRM7F/55/6Kkxpzi186Yy2ADNtCofASUFqk8PYR30B8D5kDIWLoMqShy5AGtzQCOcLVEcoRro7M5YgrHFncqXEfq7Gr4P4N8cQRGEVD7GWGxi7Nw3ddLjSLhSMqOCZaxPwshI/w1//Kv+CkxtyGXzpDIMm2UCi8BJQWKbwXDN9D5nQl0tCVSENXIg2ZHIEWyVZHTIsYTIsYNndq3MdqfOHIt39BJYIZlQQd7XLGPHuRYTL6DNG6wpGvv/jB3/rsW1AVp4xaRMP/35likb8xOk1EgSTbQqHwElBapPBekL2HzO9KpKErkYauRBItonLEtAjliGkRQ1waUTmiOzX8WI1bHYkHoOlmjS8c+eznqBWoEtTQpXkyXdcwjExNDk4c+ZVfU1WxY6cKV1WI2P8m/7sJhK2/UCi8FJQWKbwX6HtI30bmGyBEgK5EGroYaRgqksnqyFyO6OoID0DT1REUjkxWR0y+9J/hqXAEBg3h5AJDdjFUAh3tcoYu1zv4qppvf0e3WsxcyAzDoa0XrsbTRAzqGxA2SqFQeCkoLVJ4j9C3UXtDPdCViMDJkUyLZKsjk4/4mhbB6gh3amIdqyscoRzRT/naVfqP0QpHnFBQnyEcDZ2P0DlqSlZCduLIRHxoCN+F5iwWrsbTROAwBFp/oVB4WSgtUniP0HcSX1FdgAicFjFkcsS0COWIaZGhHOHSiB6A5gpHdKfGFY5QjnCnxuSIJe0e8IPoiSOwoWiAwy5tYeiCMYm89jJDs9AVjgxPHKHaiCH1B8PFwtW/8fw0Ef6fsiVaf6FQeFkoLVJ4j9B3El9R1nYNIjiUI4+ykWSnxrSIwbSIgTs1XBq5tlNj0MIRkyPGwQ9ieBSOiFCA0TcHxi5NTvLoQjshmN1+4shi4WosE+H/KVqiUQqFwstCaZHCe4e+osyBBFEsLo1QjrSNmht2agx64ojJEd2pUTlio3D/Bj1xBKaKYdKFMOZp7HIE5Jn8+/mJI1j24MqHC5nUcKVw9fBLZ1rugQejUCi8PJQWKbx3uLdUFyCCw6URypG2UfPNTo1pkaEciasj+FjNcHUEcmRYO6JyxC7Uf4DnhSPQBzCKBpdHF1rn0LSLrToMzR6FI/JP+jhx5Okjvk5/RN+Fh4Wrw9NE4GsLp1AovEyUFim8d7gXFcIuQxqgRQxdiTRkckRXRx5lI0erI9ypGa6OmBxBHeuwdkRXRyxp94AfQU8ccaIBWoGGLhImeZdxDkOSf/rDH+FmgEfhyHM5An8Yqj8vXHWnidh/Fv77zI9toVB4sSgtUnjveLy71rSIoSuRhkyOrKyOoI41KxxhHat+rMbVjpgccZs1vnDkE504AufUiSOqPzQ8LFwdChGDhbEtFAovFqVFCu8dj3fXcy2CFkIE6EqkoSuRhqhFKEcOC0dWdmr0YzWTT/lSjrjCEZULVAnaMu9C+uqgi0k1EjSZfVUNDJojM2iReeHq13/+wz7v0//X4z+yARm2hULhhaO0SOG9o728BlrEACFi6DJEQC0yXBpROdI2aj7gTo2TI3Yh/CCG4YkjbF0XQ/pwNFQCDUl2KWF44oiqDSc+NLR2UrgaTxNRIMm2UCi8cJQWKbx3tJfXgRYxdA0imMsRaBHKkcc+jcgR0yIG7tRAjhiynRqVI26nhnWskCPWZfeAnwUnjlAlQCgw1KTrcqaELE+fvQiHJ45QfFB/DMOscHV4mogCSfQWCoWXj9IihfcOvr0A+Gy7EmnoGuQJ0CKGiRzR1RFoEbc6AjkyXx2Jh45gs8bVjnCBxDjtR3kAJ45QGahogMOumIQhyS4SGNKQpyEZTxz593/5V6P+oK9hVrgay0TMsZZA2PoLhcIrQGmRQuEZ9E32eK09lyOA0yKGiRxxqyPUIlgdGRaOuNUR3axxn/KlHPknDZQjNqr9NA88ThxpdaxDxWDGLteLULsiQfPsRZ7h48SR58pAC0cy+5t/ZVy4Wl86Uyi8PZQWKRSeQd9kbLsGETg5kmkRypHhTk0sHBnWsWabNSpH/tMGyhGDXe7x8zT8wee/RIkAByqBydjF0Dk07WKrDkOzeOIIP+KrRiFi/rBwNZ4mAoch0PoLhcKrQWmRQuEZ8CZzbRcgAqdFDJkcaRs1fqfGtIjKEbdTY8BOjckR3amBHNFP+VKO/GcNkCNQJJa3O3n8SE8njkAWUCvA0SS7YC7PXuZp2sUkQpL/4osf4GaAr+XEkaHFwlV3moj9v/A/iCHQ+guFwqtBaZFC4RnwJnOtoWsQwaEcMS1COdI2ag52aiBHdKcmFo6YHGHhiMqR/7wBcoQLJCZcHj9SAwpHqAzY0piE0Xdd5jgaM5pnqEn/VTX5iSNmsXBV61Xt3x//L+azJRqlUCi8GpQWKRSeAW+yYQsJQhxqES6NUI6YFjFAi1CO6Ikj+FhNJkdMixi0jpVy5L9ogBzRBRIbazcPnDpxBD4zzmEYyTAkXe/wxBGKD2zN0HeFq+40Ef6naAs8GIVC4VWhtEih8Ax4mQ1bQ5chDdAiQBcjDVQklCNxdeRRNjIqHMlWR1A74jZrVJGYHMECSRQlzwpH2okjUSUw1CTzWVdMwjAEhpD54Ykj0dyJq8MyEfjawikUCq8OpUUKhQH4eottVyINXYlsFI6sr44Ma0coR/7LBsgRKJK2afNQJJa3O7GbN/zlz372937+O6oP4DvRoHmXhJFPh13MZ11/8YN/gJsBHoUjQYto4aorE7F/dvxfGOJ/UKFQeI0oLVIopIivOmuhQhRdjzQM5Qi0SCZHTIuoHDEtYph/rCbKkf+qAXIkLpAY//HzNAxPHHGKAV1o6WgXTbsYsssZ875w5Jd/1WmRf0u0SCZEDPE/qFAovEaUFikUUgxfdeZAgii6EmmgHKEWGS6NGNpGzWynhnJEd2qGcuS/boAcgSJxCyQ2A+7fwBNHVB+ghU26mJ90Ma+97DKLJ478zre/w0/zmrFw1Z0mYv/UPWhw/zWFQuGVorRIoXCA+MLDS1HRZUgDtYhbGoly5HCnhnLEFY5EOfJPGyBH3AIJFInB5u8/wPMTR1QlwDTJLoaaoa+htjGEPzxxhFoEhauxTMTQ4waELlkoFF4dSosUCgeILzzzuwYRdCUitSNRjrSNmmdFrHGnxrSIoW3UPHZqDKZFDuXIf9MAOeIWSKhIDHY/+BFQOGKaAEaJgFYz9DXU1nUxdA5DMgcnjjQhghNX42kibAkXFgqFV4rSIoXCAeJb0Hygy5AnOC1iiHJkc3XEQDmiisTkCBZIKEpUl1CaGL//DHLiCIUCQs04H6G26tAcU/No6cSvqjEtgsLVeJqIOWgJFxYKhVeK0iKFwgHiW9B8ABJEsSJHVIuoHIEiMS2C1ZFh4YiujgwXSDJFQtgk/cd4OnEEyoBagc6wiyE5Me+SMPLpWDs8ceTf+uc/m3zpDJKACwuFwitFaZFC4QDxLWg+k12DCJwccVokyhHTIro6Ml8aUTnCBRKVI1AkJkecIlHYJfCDGP7hL/+6UwkwhpqEZV1MujySaOkwH08c+ZHs3eg/NdtCofDGUFqkUFiCvgUfr8dlLWJwcgRaxMkR0yIX5EhcHXELJFQkDnY/+FkM2YkjMCYneXShpcMu5rMud+KIQv+p2RYKhTeG0iKFwhL0Lfh4PT69Gg1dgzwBWsTQlUjDUI5Qi1COQIsY2kZNr2M9tTriFkioSBxsLH4Ww1/+7Gc//dE//rTWb+U57B8T/8Lma1soFN4YSosUCkvQt+Dj9fj8BQkVAnQlcr6IVeUIl0YOV0egSChH3AIJFUmETdh+mheK9m/cgZBtoVB4YygtUiicRns/PntBGroSEUwUyaNs5Lki0dURA+UIFImTI6pIdI2k7dg8EyXUJUPYhdoP9OKAf1LnsC0UCm8MpUUKhdNo70f/grS2a5AnTLSIypFH5UiQI1wd4QKJyhFdINE1krZj09dInCIZwnpt/n5zz4Gbn6D/kCM8/o02gH9J/qvSYVsoFN4YSosUClcQX5DW4k2swGu7v96ftIghypG2VzPerBnKEa6OcIHEyRGnSIYAAcAQDLd5bDaDTWuT4yp2ObuuXd3uwWD3Y3eF27P7tLt9rOf8n/+n3TxElf049nO1pZ//235M/Mj95/9//p/+L/Jc9PR/tefffgdf20Kh8MZQWqRQuIL4grTW0N+lArxl8d7t7+GgRQxxacRg73jIEWqRoRyBFqEcGSqSIUAwgI+xVCEGCBGoEAoR3EYmRKBFmrLqWgQ/Jn7k/vOPtEj/92p4/BM34F8VDjKFQuHtobRIoXAd+ppk21+nT8CLFu/d/h5uwLsZ72lokShH7B1vUDkCRTKUI1AkUBJQFVAYXW6MAIIBfIylCjHocgiFCG4DWgRCxAAhgptXIQItgh+2/+QN+AfBPw6Afy77B8S/JMBQk4VC4Y2htEihcB36mmSLdyrR37RrckS1COXIY21ESlnbqsSgdgSKBEoCqgIKo8uNEUAwgI+xVCEGCBEDhYhBhYhhX4j0f6kG/ksC5mtYKBTeJEqLFArXgdfksO2vVtEiBryD+wu5Ae9pJ0cMeK9TjkCR2OsfisTUAGSB6QOKkscKiYgSA7QFdMYQIAAYguGYSlWIQVWIwQkRaBHcvP0U0CIrQsTQ/6VGXzpjvoaFQuFNorRIoXAdeE0O2/52beiv3Aa8iftruQFv60U5YqAcUUWiayQGSArIi641RgABwBAMx1Q2J4QIroIr2qVxG7il4YoIhYgBP13/UY+ECP/1rAWYLBQKbxilRQqF68Brctga+ju2ob94Gw61iAHvdWoRlSNYllA50pYtHnLEABkBSQF50bXGCCAAGILhmArTUojYFQ12aRUihuGKCLQIfrT+czZMtIj7NwTULxQKbxWlRQqFXegbVNv+jm3oL94GvI/7y7kB72zKEQNe6pQjUCRQAG1VYrw6YoCMgKSAvOhaYwQQAAzBcEyFaXGJoRDBjakQwc3jB8EP1X/CBvzg/V+hof/rPN+dQVsoFN4PSosUCruI71G2/U3b0F+/DXgr91d0A97cUYsYVI5QkTzWRp6qWYdyxAB50bVGAnAAjMIkmFBViAFCBLeBW8pWRKIWwY/cf/6G/u8SdmfQFgqF94PSIoXCPYhvU2sN/X3b0F/CT1oEwKsab268xfFGx9sdWiTKESyNGKAV2uLFM0VigLboQiMHaAaMwiSYUFUIhQjuBHflhAjuHz8Lfq7+Qzb0H76h/4s8CRGD+9crFArvB6VFCoU74d6pQH/rNvRXcUN/RTfgzZ3JEQPe/dABkCNQJAanSABICsiLQ4AMYDgmdELEAC2Cm8GN4SZxw7j5oRbpP3ND/7cQIWJw/3qFQuH9oLRIoXAn3DuVTn/3NvQX8snVEQMUQCZHDBAQACRF1xfP4cQHAD5gwzEhJseF7IpnhYih/3ilRQqFQo7SIoXC/eA7lU5/9zb0F3JDf1E34OWNdzne63jH430ftYgBKgGKAeoBUDkSEcWHAUMATIJpcQlcDpfGbQy1CG4ePwiAH63/tA39X+G5EDHov5u1hULh/aC0SKFwP/hO5WvVnP4Gbuiv5Qa8rQF7eeN1rlrEgFc+Xv+QApAFkAiUIwCURJcVAV16PBcfAAYCmGpRhRhww7h5qBAAP1f/UZ8LEf4TAQjbv1ahUHhfKC1SKNwPvln15Wp+fw+fWRox4GWPdz90ADQB9AG0Qlu8GCgSQxcaOTrvSX8AmBCT40K4KG4AN4MbM+A+cdv4EfrP09B/zgb8+PyXgQMgbP9UhULhfaG0SKFwP/hm1Zer+XgTA/3l3NBf2g14l+O9jnc8YK98KACoASgDqAQoBqgHoAuKhi40chinD2vAbADmx7VwXdyDShAD7taAm+8/SUP/CWVFxIB/DbRE+0cqFArvEaVFCoX7gTere8Uy2V/IT+jv6ga8v/FGN/Q3/Kh8xABxAKEA0QB0HdHQ9cUToE6Inm3oAxr6RCMVYsBt4Jb6/TXgnvEjAP2naug/rezOoCUe/0aFQuFdorRIofCh4F6x8K3t72RBf1034C2O9zqANz21CABZAJUAxQB0EdHQlYWg644n9GxDH9PQ52rAJXC5fu0G1SL9RteECP8d0BKPf6NCofAuUVqkUPhQcK9Y+Ej2N7Ogv7SnWgToWiBZIAG6pmjoWiNBJz2hj2/AtAZcpV81bM30u2zAzQP952noP2T40pn2j/GA+YVC4d2itEih8JGANy7a/mYW9Jd2A97l/fXegLd+lwANkAVQCYauGnJFAnQB8oSebehjGvpcDf0CSY1Iv78G3DbQf5IG/IBNcjxTIWjhFAqF94zSIoXCRwLfvmjxhlb0V3cD3uj9Jd+Ad78BUgDKAIBW6NqhoWuKhq41RugMQR/fgGkBXAiX7vfR0G+uAfds6D9DQ//ZSosUCoUcpUUKhY8Evn3Z9re0oL/Ap1rEAE1ggEQwdMnwXJEYusRI0EmCPktDn7qhX68JkX5DDbhPoN+6oP9UoV7VtYVC4Z2jtEih8JEwfBP3d7Wgv8Yb+ku+ob/8R6Kk64WGriMEXWXk6DxBn6sBlwBw0X4fDf3mGvpNP6H/PPmKiLWFQqFgKC1SKHwkDN/Hhv7GfkJ/kzf0l3xDf/k3QBMAXSYcKZJD9JGCPm9Dv9jVRRHD8F+gUCgUDKVFCoWPhOH72NDf2IL+Mhf0F35DFwIN0AddLzR0HSHoWiNH5wn6XA24BICL9vsQ9Lts6D/DE/AzGob/AoVCoWAoLVIofCRk72Nr+3tb0F/sgv7aX1ggMXRNcQZ9pKDP29Cv19DvQ9BvcSRE8APSYVsoFAod/+//+/8Bem8/bJqJT8UAAAAASUVORK5CYII=;imageBackground=none;clipPath=inset(3% 3.82% 1.67% 5.73% round 49%);" vertex="1" parent="WqvjjpdOr-V9ovbXtOMA-28">
          <mxGeometry x="57.690000000000005" y="39.81" width="194.63" height="234.87" as="geometry" />
        </mxCell>
      </root>
    </mxGraphModel>
  </diagram>
</mxfile>
